<?xml version="1.0" encoding="utf-8" standalone="no"?>
<!DOCTYPE svg PUBLIC "-//W3C//DTD SVG 1.1//EN"
  "http://www.w3.org/Graphics/SVG/1.1/DTD/svg11.dtd">
<svg xmlns:xlink="http://www.w3.org/1999/xlink" width="451.130907pt" height="337.353386pt" viewBox="0 0 451.130907 337.353386" xmlns="http://www.w3.org/2000/svg" version="1.1">
 <metadata>
  <rdf:RDF xmlns:dc="http://purl.org/dc/elements/1.1/" xmlns:cc="http://creativecommons.org/ns#" xmlns:rdf="http://www.w3.org/1999/02/22-rdf-syntax-ns#">
   <cc:Work>
    <dc:type rdf:resource="http://purl.org/dc/dcmitype/StillImage"/>
    <dc:date>2023-10-26T14:20:20.110554</dc:date>
    <dc:format>image/svg+xml</dc:format>
    <dc:creator>
     <cc:Agent>
      <dc:title>Matplotlib v3.6.2, https://matplotlib.org/</dc:title>
     </cc:Agent>
    </dc:creator>
   </cc:Work>
  </rdf:RDF>
 </metadata>
 <defs>
  <style type="text/css">*{stroke-linejoin: round; stroke-linecap: butt}</style>
 </defs>
 <g id="figure_1">
  <g id="patch_1">
   <path d="M 0 337.353386 
L 451.130907 337.353386 
L 451.130907 0 
L 0 0 
z
" style="fill: #ffffff"/>
  </g>
  <g id="axes_1">
   <g id="patch_2">
    <path d="M 22.430183 328.933855 
L 443.930907 328.933855 
L 443.930907 7.2 
L 22.430183 7.2 
z
" style="fill: #ffffff"/>
   </g>
   <g id="matplotlib.axis_1">
    <g id="xtick_1">
     <g id="line2d_1">
      <defs>
       <path id="m364c4ebce2" d="M 0 0 
L 0 3.5 
" style="stroke: #000000; stroke-width: 0.8"/>
      </defs>
      <g>
       <use xlink:href="#m364c4ebce2" x="38.482813" y="72.058889" style="stroke: #000000; stroke-width: 0.8"/>
      </g>
     </g>
    </g>
    <g id="xtick_2">
     <g id="line2d_2">
      <g>
       <use xlink:href="#m364c4ebce2" x="117.951275" y="72.058889" style="stroke: #000000; stroke-width: 0.8"/>
      </g>
     </g>
     <g id="text_1">
      <!-- 10 -->
      <g transform="translate(111.588775 86.657326) scale(0.1 -0.1)">
       <defs>
        <path id="DejaVuSans-31" d="M 794 531 
L 1825 531 
L 1825 4091 
L 703 3866 
L 703 4441 
L 1819 4666 
L 2450 4666 
L 2450 531 
L 3481 531 
L 3481 0 
L 794 0 
L 794 531 
z
" transform="scale(0.015625)"/>
        <path id="DejaVuSans-30" d="M 2034 4250 
Q 1547 4250 1301 3770 
Q 1056 3291 1056 2328 
Q 1056 1369 1301 889 
Q 1547 409 2034 409 
Q 2525 409 2770 889 
Q 3016 1369 3016 2328 
Q 3016 3291 2770 3770 
Q 2525 4250 2034 4250 
z
M 2034 4750 
Q 2819 4750 3233 4129 
Q 3647 3509 3647 2328 
Q 3647 1150 3233 529 
Q 2819 -91 2034 -91 
Q 1250 -91 836 529 
Q 422 1150 422 2328 
Q 422 3509 836 4129 
Q 1250 4750 2034 4750 
z
" transform="scale(0.015625)"/>
       </defs>
       <use xlink:href="#DejaVuSans-31"/>
       <use xlink:href="#DejaVuSans-30" x="63.623047"/>
      </g>
     </g>
    </g>
    <g id="xtick_3">
     <g id="line2d_3">
      <g>
       <use xlink:href="#m364c4ebce2" x="197.419737" y="72.058889" style="stroke: #000000; stroke-width: 0.8"/>
      </g>
     </g>
     <g id="text_2">
      <!-- 20 -->
      <g transform="translate(191.057237 86.657326) scale(0.1 -0.1)">
       <defs>
        <path id="DejaVuSans-32" d="M 1228 531 
L 3431 531 
L 3431 0 
L 469 0 
L 469 531 
Q 828 903 1448 1529 
Q 2069 2156 2228 2338 
Q 2531 2678 2651 2914 
Q 2772 3150 2772 3378 
Q 2772 3750 2511 3984 
Q 2250 4219 1831 4219 
Q 1534 4219 1204 4116 
Q 875 4013 500 3803 
L 500 4441 
Q 881 4594 1212 4672 
Q 1544 4750 1819 4750 
Q 2544 4750 2975 4387 
Q 3406 4025 3406 3419 
Q 3406 3131 3298 2873 
Q 3191 2616 2906 2266 
Q 2828 2175 2409 1742 
Q 1991 1309 1228 531 
z
" transform="scale(0.015625)"/>
       </defs>
       <use xlink:href="#DejaVuSans-32"/>
       <use xlink:href="#DejaVuSans-30" x="63.623047"/>
      </g>
     </g>
    </g>
    <g id="xtick_4">
     <g id="line2d_4">
      <g>
       <use xlink:href="#m364c4ebce2" x="276.888199" y="72.058889" style="stroke: #000000; stroke-width: 0.8"/>
      </g>
     </g>
     <g id="text_3">
      <!-- 30 -->
      <g transform="translate(270.525699 86.657326) scale(0.1 -0.1)">
       <defs>
        <path id="DejaVuSans-33" d="M 2597 2516 
Q 3050 2419 3304 2112 
Q 3559 1806 3559 1356 
Q 3559 666 3084 287 
Q 2609 -91 1734 -91 
Q 1441 -91 1130 -33 
Q 819 25 488 141 
L 488 750 
Q 750 597 1062 519 
Q 1375 441 1716 441 
Q 2309 441 2620 675 
Q 2931 909 2931 1356 
Q 2931 1769 2642 2001 
Q 2353 2234 1838 2234 
L 1294 2234 
L 1294 2753 
L 1863 2753 
Q 2328 2753 2575 2939 
Q 2822 3125 2822 3475 
Q 2822 3834 2567 4026 
Q 2313 4219 1838 4219 
Q 1578 4219 1281 4162 
Q 984 4106 628 3988 
L 628 4550 
Q 988 4650 1302 4700 
Q 1616 4750 1894 4750 
Q 2613 4750 3031 4423 
Q 3450 4097 3450 3541 
Q 3450 3153 3228 2886 
Q 3006 2619 2597 2516 
z
" transform="scale(0.015625)"/>
       </defs>
       <use xlink:href="#DejaVuSans-33"/>
       <use xlink:href="#DejaVuSans-30" x="63.623047"/>
      </g>
     </g>
    </g>
    <g id="xtick_5">
     <g id="line2d_5">
      <g>
       <use xlink:href="#m364c4ebce2" x="356.356662" y="72.058889" style="stroke: #000000; stroke-width: 0.8"/>
      </g>
     </g>
     <g id="text_4">
      <!-- 40 -->
      <g transform="translate(349.994162 86.657326) scale(0.1 -0.1)">
       <defs>
        <path id="DejaVuSans-34" d="M 2419 4116 
L 825 1625 
L 2419 1625 
L 2419 4116 
z
M 2253 4666 
L 3047 4666 
L 3047 1625 
L 3713 1625 
L 3713 1100 
L 3047 1100 
L 3047 0 
L 2419 0 
L 2419 1100 
L 313 1100 
L 313 1709 
L 2253 4666 
z
" transform="scale(0.015625)"/>
       </defs>
       <use xlink:href="#DejaVuSans-34"/>
       <use xlink:href="#DejaVuSans-30" x="63.623047"/>
      </g>
     </g>
    </g>
    <g id="xtick_6">
     <g id="line2d_6">
      <g>
       <use xlink:href="#m364c4ebce2" x="435.825124" y="72.058889" style="stroke: #000000; stroke-width: 0.8"/>
      </g>
     </g>
     <g id="text_5">
      <!-- 50 -->
      <g transform="translate(429.462624 86.657326) scale(0.1 -0.1)">
       <defs>
        <path id="DejaVuSans-35" d="M 691 4666 
L 3169 4666 
L 3169 4134 
L 1269 4134 
L 1269 2991 
Q 1406 3038 1543 3061 
Q 1681 3084 1819 3084 
Q 2600 3084 3056 2656 
Q 3513 2228 3513 1497 
Q 3513 744 3044 326 
Q 2575 -91 1722 -91 
Q 1428 -91 1123 -41 
Q 819 9 494 109 
L 494 744 
Q 775 591 1075 516 
Q 1375 441 1709 441 
Q 2250 441 2565 725 
Q 2881 1009 2881 1497 
Q 2881 1984 2565 2268 
Q 2250 2553 1709 2553 
Q 1456 2553 1204 2497 
Q 953 2441 691 2322 
L 691 4666 
z
" transform="scale(0.015625)"/>
       </defs>
       <use xlink:href="#DejaVuSans-35"/>
       <use xlink:href="#DejaVuSans-30" x="63.623047"/>
      </g>
     </g>
    </g>
    <g id="xtick_7">
     <g id="line2d_7">
      <defs>
       <path id="ma5fff81320" d="M 0 0 
L 0 2 
" style="stroke: #000000; stroke-width: 0.6"/>
      </defs>
      <g>
       <use xlink:href="#ma5fff81320" x="22.58912" y="72.058889" style="stroke: #000000; stroke-width: 0.6"/>
      </g>
     </g>
    </g>
    <g id="xtick_8">
     <g id="line2d_8">
      <g>
       <use xlink:href="#ma5fff81320" x="54.376505" y="72.058889" style="stroke: #000000; stroke-width: 0.6"/>
      </g>
     </g>
    </g>
    <g id="xtick_9">
     <g id="line2d_9">
      <g>
       <use xlink:href="#ma5fff81320" x="70.270197" y="72.058889" style="stroke: #000000; stroke-width: 0.6"/>
      </g>
     </g>
    </g>
    <g id="xtick_10">
     <g id="line2d_10">
      <g>
       <use xlink:href="#ma5fff81320" x="86.16389" y="72.058889" style="stroke: #000000; stroke-width: 0.6"/>
      </g>
     </g>
    </g>
    <g id="xtick_11">
     <g id="line2d_11">
      <g>
       <use xlink:href="#ma5fff81320" x="102.057582" y="72.058889" style="stroke: #000000; stroke-width: 0.6"/>
      </g>
     </g>
    </g>
    <g id="xtick_12">
     <g id="line2d_12">
      <g>
       <use xlink:href="#ma5fff81320" x="133.844967" y="72.058889" style="stroke: #000000; stroke-width: 0.6"/>
      </g>
     </g>
    </g>
    <g id="xtick_13">
     <g id="line2d_13">
      <g>
       <use xlink:href="#ma5fff81320" x="149.73866" y="72.058889" style="stroke: #000000; stroke-width: 0.6"/>
      </g>
     </g>
    </g>
    <g id="xtick_14">
     <g id="line2d_14">
      <g>
       <use xlink:href="#ma5fff81320" x="165.632352" y="72.058889" style="stroke: #000000; stroke-width: 0.6"/>
      </g>
     </g>
    </g>
    <g id="xtick_15">
     <g id="line2d_15">
      <g>
       <use xlink:href="#ma5fff81320" x="181.526045" y="72.058889" style="stroke: #000000; stroke-width: 0.6"/>
      </g>
     </g>
    </g>
    <g id="xtick_16">
     <g id="line2d_16">
      <g>
       <use xlink:href="#ma5fff81320" x="213.31343" y="72.058889" style="stroke: #000000; stroke-width: 0.6"/>
      </g>
     </g>
    </g>
    <g id="xtick_17">
     <g id="line2d_17">
      <g>
       <use xlink:href="#ma5fff81320" x="229.207122" y="72.058889" style="stroke: #000000; stroke-width: 0.6"/>
      </g>
     </g>
    </g>
    <g id="xtick_18">
     <g id="line2d_18">
      <g>
       <use xlink:href="#ma5fff81320" x="245.100814" y="72.058889" style="stroke: #000000; stroke-width: 0.6"/>
      </g>
     </g>
    </g>
    <g id="xtick_19">
     <g id="line2d_19">
      <g>
       <use xlink:href="#ma5fff81320" x="260.994507" y="72.058889" style="stroke: #000000; stroke-width: 0.6"/>
      </g>
     </g>
    </g>
    <g id="xtick_20">
     <g id="line2d_20">
      <g>
       <use xlink:href="#ma5fff81320" x="292.781892" y="72.058889" style="stroke: #000000; stroke-width: 0.6"/>
      </g>
     </g>
    </g>
    <g id="xtick_21">
     <g id="line2d_21">
      <g>
       <use xlink:href="#ma5fff81320" x="308.675584" y="72.058889" style="stroke: #000000; stroke-width: 0.6"/>
      </g>
     </g>
    </g>
    <g id="xtick_22">
     <g id="line2d_22">
      <g>
       <use xlink:href="#ma5fff81320" x="324.569277" y="72.058889" style="stroke: #000000; stroke-width: 0.6"/>
      </g>
     </g>
    </g>
    <g id="xtick_23">
     <g id="line2d_23">
      <g>
       <use xlink:href="#ma5fff81320" x="340.462969" y="72.058889" style="stroke: #000000; stroke-width: 0.6"/>
      </g>
     </g>
    </g>
    <g id="xtick_24">
     <g id="line2d_24">
      <g>
       <use xlink:href="#ma5fff81320" x="372.250354" y="72.058889" style="stroke: #000000; stroke-width: 0.6"/>
      </g>
     </g>
    </g>
    <g id="xtick_25">
     <g id="line2d_25">
      <g>
       <use xlink:href="#ma5fff81320" x="388.144047" y="72.058889" style="stroke: #000000; stroke-width: 0.6"/>
      </g>
     </g>
    </g>
    <g id="xtick_26">
     <g id="line2d_26">
      <g>
       <use xlink:href="#ma5fff81320" x="404.037739" y="72.058889" style="stroke: #000000; stroke-width: 0.6"/>
      </g>
     </g>
    </g>
    <g id="xtick_27">
     <g id="line2d_27">
      <g>
       <use xlink:href="#ma5fff81320" x="419.931431" y="72.058889" style="stroke: #000000; stroke-width: 0.6"/>
      </g>
     </g>
    </g>
   </g>
   <g id="matplotlib.axis_2">
    <g id="ytick_1">
     <g id="line2d_28">
      <defs>
       <path id="m8179c9b8cf" d="M 0 0 
L -3.5 0 
" style="stroke: #000000; stroke-width: 0.8"/>
      </defs>
      <g>
       <use xlink:href="#m8179c9b8cf" x="38.482813" y="324.27448" style="stroke: #000000; stroke-width: 0.8"/>
      </g>
     </g>
     <g id="text_6">
      <!-- −2.5 -->
      <g transform="translate(7.2 328.073699) scale(0.1 -0.1)">
       <defs>
        <path id="DejaVuSans-2212" d="M 678 2272 
L 4684 2272 
L 4684 1741 
L 678 1741 
L 678 2272 
z
" transform="scale(0.015625)"/>
        <path id="DejaVuSans-2e" d="M 684 794 
L 1344 794 
L 1344 0 
L 684 0 
L 684 794 
z
" transform="scale(0.015625)"/>
       </defs>
       <use xlink:href="#DejaVuSans-2212"/>
       <use xlink:href="#DejaVuSans-32" x="83.789062"/>
       <use xlink:href="#DejaVuSans-2e" x="147.412109"/>
       <use xlink:href="#DejaVuSans-35" x="179.199219"/>
      </g>
     </g>
    </g>
    <g id="ytick_2">
     <g id="line2d_29">
      <g>
       <use xlink:href="#m8179c9b8cf" x="38.482813" y="273.831362" style="stroke: #000000; stroke-width: 0.8"/>
      </g>
     </g>
     <g id="text_7">
      <!-- −2.0 -->
      <g transform="translate(7.2 277.63058) scale(0.1 -0.1)">
       <use xlink:href="#DejaVuSans-2212"/>
       <use xlink:href="#DejaVuSans-32" x="83.789062"/>
       <use xlink:href="#DejaVuSans-2e" x="147.412109"/>
       <use xlink:href="#DejaVuSans-30" x="179.199219"/>
      </g>
     </g>
    </g>
    <g id="ytick_3">
     <g id="line2d_30">
      <g>
       <use xlink:href="#m8179c9b8cf" x="38.482813" y="223.388243" style="stroke: #000000; stroke-width: 0.8"/>
      </g>
     </g>
     <g id="text_8">
      <!-- −1.5 -->
      <g transform="translate(7.2 227.187462) scale(0.1 -0.1)">
       <use xlink:href="#DejaVuSans-2212"/>
       <use xlink:href="#DejaVuSans-31" x="83.789062"/>
       <use xlink:href="#DejaVuSans-2e" x="147.412109"/>
       <use xlink:href="#DejaVuSans-35" x="179.199219"/>
      </g>
     </g>
    </g>
    <g id="ytick_4">
     <g id="line2d_31">
      <g>
       <use xlink:href="#m8179c9b8cf" x="38.482813" y="172.945125" style="stroke: #000000; stroke-width: 0.8"/>
      </g>
     </g>
     <g id="text_9">
      <!-- −1.0 -->
      <g transform="translate(7.2 176.744344) scale(0.1 -0.1)">
       <use xlink:href="#DejaVuSans-2212"/>
       <use xlink:href="#DejaVuSans-31" x="83.789062"/>
       <use xlink:href="#DejaVuSans-2e" x="147.412109"/>
       <use xlink:href="#DejaVuSans-30" x="179.199219"/>
      </g>
     </g>
    </g>
    <g id="ytick_5">
     <g id="line2d_32">
      <g>
       <use xlink:href="#m8179c9b8cf" x="38.482813" y="122.502007" style="stroke: #000000; stroke-width: 0.8"/>
      </g>
     </g>
     <g id="text_10">
      <!-- −0.5 -->
      <g transform="translate(7.2 126.301226) scale(0.1 -0.1)">
       <use xlink:href="#DejaVuSans-2212"/>
       <use xlink:href="#DejaVuSans-30" x="83.789062"/>
       <use xlink:href="#DejaVuSans-2e" x="147.412109"/>
       <use xlink:href="#DejaVuSans-35" x="179.199219"/>
      </g>
     </g>
    </g>
    <g id="ytick_6">
     <g id="line2d_33">
      <g>
       <use xlink:href="#m8179c9b8cf" x="38.482813" y="72.058889" style="stroke: #000000; stroke-width: 0.8"/>
      </g>
     </g>
    </g>
    <g id="ytick_7">
     <g id="line2d_34">
      <g>
       <use xlink:href="#m8179c9b8cf" x="38.482813" y="21.615771" style="stroke: #000000; stroke-width: 0.8"/>
      </g>
     </g>
     <g id="text_11">
      <!-- 0.5 -->
      <g transform="translate(15.579688 25.41499) scale(0.1 -0.1)">
       <use xlink:href="#DejaVuSans-30"/>
       <use xlink:href="#DejaVuSans-2e" x="63.623047"/>
       <use xlink:href="#DejaVuSans-35" x="95.410156"/>
      </g>
     </g>
    </g>
    <g id="ytick_8">
     <g id="line2d_35">
      <defs>
       <path id="ma86909ed31" d="M 0 0 
L -2 0 
" style="stroke: #000000; stroke-width: 0.6"/>
      </defs>
      <g>
       <use xlink:href="#ma86909ed31" x="38.482813" y="314.185856" style="stroke: #000000; stroke-width: 0.6"/>
      </g>
     </g>
    </g>
    <g id="ytick_9">
     <g id="line2d_36">
      <g>
       <use xlink:href="#ma86909ed31" x="38.482813" y="304.097233" style="stroke: #000000; stroke-width: 0.6"/>
      </g>
     </g>
    </g>
    <g id="ytick_10">
     <g id="line2d_37">
      <g>
       <use xlink:href="#ma86909ed31" x="38.482813" y="294.008609" style="stroke: #000000; stroke-width: 0.6"/>
      </g>
     </g>
    </g>
    <g id="ytick_11">
     <g id="line2d_38">
      <g>
       <use xlink:href="#ma86909ed31" x="38.482813" y="283.919985" style="stroke: #000000; stroke-width: 0.6"/>
      </g>
     </g>
    </g>
    <g id="ytick_12">
     <g id="line2d_39">
      <g>
       <use xlink:href="#ma86909ed31" x="38.482813" y="263.742738" style="stroke: #000000; stroke-width: 0.6"/>
      </g>
     </g>
    </g>
    <g id="ytick_13">
     <g id="line2d_40">
      <g>
       <use xlink:href="#ma86909ed31" x="38.482813" y="253.654114" style="stroke: #000000; stroke-width: 0.6"/>
      </g>
     </g>
    </g>
    <g id="ytick_14">
     <g id="line2d_41">
      <g>
       <use xlink:href="#ma86909ed31" x="38.482813" y="243.565491" style="stroke: #000000; stroke-width: 0.6"/>
      </g>
     </g>
    </g>
    <g id="ytick_15">
     <g id="line2d_42">
      <g>
       <use xlink:href="#ma86909ed31" x="38.482813" y="233.476867" style="stroke: #000000; stroke-width: 0.6"/>
      </g>
     </g>
    </g>
    <g id="ytick_16">
     <g id="line2d_43">
      <g>
       <use xlink:href="#ma86909ed31" x="38.482813" y="213.29962" style="stroke: #000000; stroke-width: 0.6"/>
      </g>
     </g>
    </g>
    <g id="ytick_17">
     <g id="line2d_44">
      <g>
       <use xlink:href="#ma86909ed31" x="38.482813" y="203.210996" style="stroke: #000000; stroke-width: 0.6"/>
      </g>
     </g>
    </g>
    <g id="ytick_18">
     <g id="line2d_45">
      <g>
       <use xlink:href="#ma86909ed31" x="38.482813" y="193.122373" style="stroke: #000000; stroke-width: 0.6"/>
      </g>
     </g>
    </g>
    <g id="ytick_19">
     <g id="line2d_46">
      <g>
       <use xlink:href="#ma86909ed31" x="38.482813" y="183.033749" style="stroke: #000000; stroke-width: 0.6"/>
      </g>
     </g>
    </g>
    <g id="ytick_20">
     <g id="line2d_47">
      <g>
       <use xlink:href="#ma86909ed31" x="38.482813" y="162.856502" style="stroke: #000000; stroke-width: 0.6"/>
      </g>
     </g>
    </g>
    <g id="ytick_21">
     <g id="line2d_48">
      <g>
       <use xlink:href="#ma86909ed31" x="38.482813" y="152.767878" style="stroke: #000000; stroke-width: 0.6"/>
      </g>
     </g>
    </g>
    <g id="ytick_22">
     <g id="line2d_49">
      <g>
       <use xlink:href="#ma86909ed31" x="38.482813" y="142.679254" style="stroke: #000000; stroke-width: 0.6"/>
      </g>
     </g>
    </g>
    <g id="ytick_23">
     <g id="line2d_50">
      <g>
       <use xlink:href="#ma86909ed31" x="38.482813" y="132.590631" style="stroke: #000000; stroke-width: 0.6"/>
      </g>
     </g>
    </g>
    <g id="ytick_24">
     <g id="line2d_51">
      <g>
       <use xlink:href="#ma86909ed31" x="38.482813" y="112.413383" style="stroke: #000000; stroke-width: 0.6"/>
      </g>
     </g>
    </g>
    <g id="ytick_25">
     <g id="line2d_52">
      <g>
       <use xlink:href="#ma86909ed31" x="38.482813" y="102.32476" style="stroke: #000000; stroke-width: 0.6"/>
      </g>
     </g>
    </g>
    <g id="ytick_26">
     <g id="line2d_53">
      <g>
       <use xlink:href="#ma86909ed31" x="38.482813" y="92.236136" style="stroke: #000000; stroke-width: 0.6"/>
      </g>
     </g>
    </g>
    <g id="ytick_27">
     <g id="line2d_54">
      <g>
       <use xlink:href="#ma86909ed31" x="38.482813" y="82.147513" style="stroke: #000000; stroke-width: 0.6"/>
      </g>
     </g>
    </g>
    <g id="ytick_28">
     <g id="line2d_55">
      <g>
       <use xlink:href="#ma86909ed31" x="38.482813" y="61.970265" style="stroke: #000000; stroke-width: 0.6"/>
      </g>
     </g>
    </g>
    <g id="ytick_29">
     <g id="line2d_56">
      <g>
       <use xlink:href="#ma86909ed31" x="38.482813" y="51.881642" style="stroke: #000000; stroke-width: 0.6"/>
      </g>
     </g>
    </g>
    <g id="ytick_30">
     <g id="line2d_57">
      <g>
       <use xlink:href="#ma86909ed31" x="38.482813" y="41.793018" style="stroke: #000000; stroke-width: 0.6"/>
      </g>
     </g>
    </g>
    <g id="ytick_31">
     <g id="line2d_58">
      <g>
       <use xlink:href="#ma86909ed31" x="38.482813" y="31.704394" style="stroke: #000000; stroke-width: 0.6"/>
      </g>
     </g>
    </g>
    <g id="ytick_32">
     <g id="line2d_59">
      <g>
       <use xlink:href="#ma86909ed31" x="38.482813" y="11.527147" style="stroke: #000000; stroke-width: 0.6"/>
      </g>
     </g>
    </g>
   </g>
   <g id="line2d_60">
    <path d="M 30.535966 116.453936 
L 32.137233 109.211758 
L 33.996965 99.413928 
L 37.162558 80.410408 
L 41.322852 54.317836 
L 43.076663 44.100314 
L 44.407355 37.005379 
L 46.398706 27.791858 
L 48.065822 21.637007 
L 49.042315 18.775696 
L 50.018807 16.500523 
L 50.969905 14.868197 
L 51.921003 13.824729 
L 52.809514 13.38719 
L 53.698026 13.468016 
L 55.475049 15.155889 
L 56.376965 16.763212 
L 57.740934 20.093724 
L 59.104903 24.420087 
L 61.149132 32.503466 
L 63.855602 45.401846 
L 70.290531 78.819959 
L 71.700436 85.348168 
L 73.110341 91.219558 
L 74.583824 96.506267 
L 76.310756 101.430533 
L 78.037688 104.843265 
L 78.879671 105.931465 
L 80.418102 106.928131 
L 81.956534 106.655308 
L 83.471124 105.196128 
L 85.233157 102.128045 
L 86.926476 97.961284 
L 88.687995 92.592826 
L 90.82665 85.058799 
L 96.8226 62.586803 
L 98.851915 56.075372 
L 100.699712 51.197139 
L 102.547508 47.550221 
L 104.353892 45.322387 
L 105.599476 44.598651 
L 106.84506 44.545962 
L 107.937573 45.04413 
L 109.853172 47.088711 
L 111.293338 49.527994 
L 114.005043 55.862413 
L 116.403651 62.820813 
L 121.664246 79.250841 
L 124.092059 85.872867 
L 126.352175 90.756629 
L 127.494576 92.635183 
L 128.769366 94.208008 
L 130.044156 95.198386 
L 131.227251 95.581434 
L 132.410347 95.446313 
L 134.383353 94.098764 
L 135.77105 92.36189 
L 137.158746 90.040535 
L 138.012904 88.353985 
L 140.763368 81.872311 
L 147.50351 63.702903 
L 149.11653 59.92243 
L 151.415642 55.510252 
L 153.611375 52.640989 
L 155.435307 51.398344 
L 157.46206 51.29566 
L 159.223398 52.287477 
L 160.368479 53.443228 
L 162.826805 57.134615 
L 165.772932 63.262506 
L 169.167012 71.546332 
L 171.239593 76.640829 
L 174.549716 83.849079 
L 176.058144 86.476704 
L 177.566572 88.562295 
L 178.986626 89.968991 
L 180.750424 90.906136 
L 182.480403 90.924178 
L 184.210383 90.059486 
L 186.541271 87.593997 
L 189.653339 82.371561 
L 192.467239 76.386947 
L 197.335242 65.492349 
L 199.012598 62.179059 
L 201.354246 58.366414 
L 202.890769 56.514352 
L 204.427292 55.254798 
L 205.858775 54.650931 
L 207.396365 54.63148 
L 209.292875 55.494911 
L 211.178128 57.267402 
L 214.446488 62.156872 
L 216.630516 66.348251 
L 223.183294 79.794934 
L 225.124922 83.086121 
L 227.066551 85.692796 
L 228.606607 87.174906 
L 230.00829 88.025267 
L 232.723353 88.246425 
L 233.361464 88.024181 
L 235.202401 86.821391 
L 237.043338 84.846061 
L 239.187213 81.722614 
L 240.941724 78.662453 
L 244.712396 71.309592 
L 246.890852 67.092096 
L 249.055982 63.308344 
L 250.616081 60.989621 
L 252.394829 58.886991 
L 253.697568 57.768349 
L 255.263447 56.939282 
L 256.829326 56.698441 
L 258.365801 57.038869 
L 260.245451 58.206331 
L 262.429334 60.506714 
L 264.110523 62.861193 
L 267.953532 69.508415 
L 273.143515 78.923708 
L 274.307303 80.74394 
L 276.095036 83.1498 
L 277.88277 84.981417 
L 279.044834 85.821252 
L 280.806686 86.5249 
L 283.204272 86.342047 
L 285.247616 85.170848 
L 287.42582 82.991608 
L 289.57305 80.066316 
L 291.726192 76.577815 
L 295.505866 69.900811 
L 298.323346 65.216825 
L 300.192701 62.572184 
L 301.12698 61.444678 
L 304.189831 58.866198 
L 305.910092 58.262856 
L 307.905978 58.371404 
L 309.682735 59.188272 
L 311.007364 60.212662 
L 313.90003 63.516583 
L 315.908895 66.478348 
L 323.410515 78.759619 
L 326.395793 82.51333 
L 328.257178 84.124806 
L 329.302038 84.741139 
L 330.90363 85.255448 
L 332.505222 85.234597 
L 334.068732 84.701485 
L 336.555707 82.873755 
L 337.519526 81.874693 
L 341.222858 76.885415 
L 347.081073 67.532796 
L 349.288526 64.41622 
L 352.719861 60.845034 
L 354.351576 59.853075 
L 356.294572 59.347069 
L 358.956226 59.879288 
L 360.92146 61.14378 
L 363.222094 63.446897 
L 365.057833 65.796567 
L 368.462593 70.889855 
L 372.707393 77.349945 
L 373.790538 78.81546 
L 377.45251 82.672314 
L 379.411655 83.846972 
L 381.138808 84.288925 
L 383.772181 83.856359 
L 385.109604 83.139346 
L 387.234199 81.375633 
L 390.436285 77.545785 
L 398.199201 66.260612 
L 400.849867 63.186514 
L 402.396086 61.836381 
L 404.954722 60.477143 
L 407.033483 60.250583 
L 409.120962 60.830124 
L 412.552383 63.401326 
L 415.013509 66.245501 
L 418.706658 71.412459 
L 421.719592 75.743959 
L 423.732041 78.363193 
L 426.637408 81.376066 
L 428.18859 82.491765 
L 430.976083 83.474539 
L 433.659428 83.105742 
L 435.825124 81.89649 
L 435.825124 81.89649 
" clip-path="url(#p6117c96603)" style="fill: none; stroke: #0000ff; stroke-linecap: square"/>
   </g>
   <g id="line2d_61">
    <path d="M 38.854249 322.746666 
L 39.193186 244.679097 
L 39.616857 199.772729 
L 40.040529 173.119126 
L 40.548934 151.239286 
L 41.226808 130.419785 
L 41.856689 115.67599 
L 42.746629 99.125057 
L 43.636568 85.697119 
L 44.526508 74.355457 
L 46.270901 56.333333 
L 47.125355 49.09018 
L 48.3727 40.08306 
L 49.620044 32.768991 
L 51.069444 26.245078 
L 52.458749 21.877212 
L 53.848053 19.264394 
L 55.143061 18.329516 
L 56.356958 18.692637 
L 57.925829 20.807096 
L 59.4947 24.592164 
L 60.8392 28.99281 
L 62.429106 35.343919 
L 64.208879 43.59063 
L 69.98286 73.548504 
L 71.874162 82.716503 
L 73.436513 89.49084 
L 74.867996 94.872621 
L 76.299478 99.331195 
L 77.819297 102.944256 
L 78.888321 104.751292 
L 79.957346 105.933732 
L 80.490806 106.288437 
L 81.772976 106.503767 
L 83.055146 105.838505 
L 84.191836 104.545111 
L 85.328525 102.633034 
L 86.635959 99.736614 
L 89.096206 92.59693 
L 93.438908 76.72769 
L 96.412084 65.52323 
L 97.944301 60.225926 
L 99.353268 55.850274 
L 101.040907 51.408603 
L 102.424399 48.529653 
L 103.807891 46.413372 
L 105.448592 44.954047 
L 106.718012 44.626949 
L 107.987433 44.995601 
L 109.534571 46.352745 
L 110.900919 48.326565 
L 112.267267 50.954732 
L 113.139668 52.93536 
L 115.594825 59.518362 
L 121.699135 78.488407 
L 124.103685 85.168748 
L 126.104283 89.712976 
L 127.589439 92.3213 
L 129.074596 94.188073 
L 129.893222 94.88009 
L 131.32184 95.495511 
L 132.750457 95.353274 
L 135.050998 93.581135 
L 135.927978 92.436394 
L 137.866254 89.095546 
L 139.759446 84.930117 
L 144.186209 73.17229 
L 147.285024 64.814782 
L 148.683379 61.403948 
L 151.024038 56.566609 
L 153.105738 53.446998 
L 154.5796 52.024662 
L 156.702091 51.211134 
L 158.176785 51.518502 
L 159.65148 52.52233 
L 160.257284 53.12738 
L 162.630559 56.478398 
L 166.073688 63.54171 
L 172.70323 79.621477 
L 174.382219 83.172989 
L 175.962116 86.029248 
L 177.542013 88.306107 
L 179.04826 89.861634 
L 180.975957 90.899625 
L 182.330365 90.965771 
L 184.989192 89.526524 
L 187.086531 87.038907 
L 188.947762 83.990994 
L 192.525315 76.597231 
L 197.268849 65.950736 
L 199.458965 61.643016 
L 201.918285 57.81827 
L 203.961913 55.693739 
L 205.448576 54.83193 
L 206.920237 54.575432 
L 208.391898 54.916116 
L 209.408202 55.492028 
L 212.070803 58.222619 
L 214.37926 61.807816 
L 216.891949 66.614282 
L 222.756936 78.749505 
L 223.430075 80.007046 
L 225.461371 83.396092 
L 228.122373 86.645451 
L 229.781808 87.848693 
L 231.244394 88.335322 
L 232.706981 88.270803 
L 234.109871 87.69673 
L 236.078554 86.089335 
L 238.119509 83.542059 
L 240.923094 78.907466 
L 244.259105 72.439401 
L 246.848538 67.386438 
L 248.771708 63.962816 
L 251.112942 60.487578 
L 251.863196 59.580204 
L 253.968854 57.663683 
L 255.561409 56.886347 
L 257.153964 56.719574 
L 258.361269 57.002278 
L 260.35229 58.213082 
L 263.271958 61.488763 
L 265.113902 64.291519 
L 266.929774 67.438056 
L 272.716039 78.040397 
L 275.469494 82.232437 
L 276.383711 83.367796 
L 279.104709 85.792465 
L 281.374482 86.587253 
L 283.3815 86.307545 
L 284.617898 85.684325 
L 286.393418 84.226623 
L 289.510449 80.298657 
L 290.762028 78.343678 
L 299.034565 64.290382 
L 301.260621 61.39936 
L 302.691202 59.979875 
L 304.564027 58.726664 
L 306.263163 58.231672 
L 307.962299 58.367402 
L 309.296552 58.910482 
L 311.212751 60.324315 
L 313.584818 62.984811 
L 315.233264 65.308226 
L 318.830074 71.177022 
L 322.03645 76.532045 
L 324.75128 80.491896 
L 325.862538 81.844163 
L 327.753545 83.683236 
L 330.43618 85.135464 
L 331.823006 85.307898 
L 333.365613 85.027394 
L 335.812962 83.600468 
L 338.69056 80.571264 
L 339.536099 79.455732 
L 341.669275 76.315286 
L 346.393897 68.711719 
L 349.712838 63.976408 
L 352.397064 61.164139 
L 355.081947 59.601386 
L 355.631045 59.453576 
L 358.830413 59.793773 
L 360.797933 60.988384 
L 361.570769 61.645388 
L 364.724118 65.245845 
L 366.042064 67.091893 
L 372.861974 77.466158 
L 374.005437 79.000024 
L 377.756816 82.846656 
L 378.96026 83.600254 
L 380.858915 84.243391 
L 383.570409 83.959257 
L 384.826341 83.356666 
L 387.048154 81.621766 
L 388.693608 79.856897 
L 390.726338 77.238814 
L 398.385114 66.105192 
L 400.199967 63.93157 
L 402.128179 62.097436 
L 404.056392 60.854985 
L 406.19977 60.251508 
L 408.250707 60.474328 
L 410.086259 61.323182 
L 411.313393 62.20977 
L 413.606652 64.46493 
L 416.183505 67.718116 
L 422.183775 76.292639 
L 425.186941 79.941781 
L 427.918259 82.284388 
L 430.039399 83.278979 
L 432.725091 83.391183 
L 434.753954 82.62309 
L 435.825124 81.938439 
L 435.825124 81.938439 
" clip-path="url(#p6117c96603)" style="fill: none; stroke: #ff0000; stroke-linecap: square"/>
   </g>
   <g id="patch_3">
    <path d="M 38.482813 328.933855 
L 38.482813 7.2 
" style="fill: none; stroke: #000000; stroke-width: 0.8; stroke-linejoin: miter; stroke-linecap: square"/>
   </g>
   <g id="patch_4">
    <path d="M 22.430183 72.058889 
L 443.930907 72.058889 
" style="fill: none; stroke: #000000; stroke-width: 0.8; stroke-linejoin: miter; stroke-linecap: square"/>
   </g>
   <g id="legend_1">
    <g id="patch_5">
     <path d="M 345.030907 51.298437 
L 440.930907 51.298437 
L 440.930907 14.2 
L 345.030907 14.2 
z
" style="fill: #4c4c4c; opacity: 0.5; stroke: #4c4c4c; stroke-linejoin: miter"/>
    </g>
    <g id="patch_6">
     <path d="M 343.030907 49.298437 
L 438.930907 49.298437 
L 438.930907 12.2 
L 343.030907 12.2 
z
" style="fill: #ffffff; stroke: #cccccc; stroke-linejoin: miter"/>
    </g>
    <g id="line2d_62">
     <path d="M 352.030907 22.298437 
L 346.530907 22.298437 
" style="fill: none; stroke: #0000ff; stroke-linecap: square"/>
    </g>
    <g id="text_12">
     <!-- $J_{1}(x)$ -->
     <g transform="translate(354.530907 25.798437) scale(0.1 -0.1)">
      <defs>
       <path id="Cmmi10-4a" d="M 697 384 
Q 759 206 928 115 
Q 1097 25 1294 25 
Q 1494 25 1680 164 
Q 1866 303 1995 512 
Q 2125 722 2175 928 
L 2931 3956 
Q 2938 3981 2939 3993 
Q 2941 4006 2944 4019 
Q 2944 4088 2894 4103 
Q 2725 4147 2209 4147 
Q 2144 4147 2144 4231 
Q 2156 4281 2164 4309 
Q 2172 4338 2192 4355 
Q 2213 4372 2253 4372 
L 3988 4372 
Q 4050 4372 4050 4288 
Q 4025 4147 3969 4147 
Q 3744 4147 3628 4112 
Q 3513 4078 3469 3928 
L 2713 903 
Q 2641 606 2420 367 
Q 2200 128 1897 -6 
Q 1594 -141 1288 -141 
Q 950 -141 695 46 
Q 441 234 441 556 
Q 441 769 556 922 
Q 672 1075 884 1075 
Q 1006 1075 1089 1000 
Q 1172 925 1172 806 
Q 1172 634 1044 506 
Q 916 378 744 378 
Q 709 378 697 384 
z
" transform="scale(0.015625)"/>
       <path id="Cmr10-31" d="M 594 0 
L 594 225 
Q 1394 225 1394 428 
L 1394 3788 
Q 1063 3628 556 3628 
L 556 3853 
Q 1341 3853 1741 4263 
L 1831 4263 
Q 1853 4263 1873 4245 
Q 1894 4228 1894 4206 
L 1894 428 
Q 1894 225 2694 225 
L 2694 0 
L 594 0 
z
" transform="scale(0.015625)"/>
       <path id="Cmr10-28" d="M 1984 -1588 
Q 1628 -1306 1370 -942 
Q 1113 -578 948 -165 
Q 784 247 703 697 
Q 622 1147 622 1600 
Q 622 2059 703 2509 
Q 784 2959 951 3375 
Q 1119 3791 1378 4153 
Q 1638 4516 1984 4788 
Q 1984 4800 2016 4800 
L 2075 4800 
Q 2094 4800 2109 4783 
Q 2125 4766 2125 4744 
Q 2125 4716 2113 4703 
Q 1800 4397 1592 4047 
Q 1384 3697 1257 3301 
Q 1131 2906 1075 2482 
Q 1019 2059 1019 1600 
Q 1019 -434 2106 -1491 
Q 2125 -1509 2125 -1544 
Q 2125 -1559 2108 -1579 
Q 2091 -1600 2075 -1600 
L 2016 -1600 
Q 1984 -1600 1984 -1588 
z
" transform="scale(0.015625)"/>
       <path id="Cmmi10-78" d="M 500 184 
Q 613 97 819 97 
Q 1019 97 1172 289 
Q 1325 481 1381 709 
L 1672 1844 
Q 1741 2153 1741 2266 
Q 1741 2425 1652 2544 
Q 1563 2663 1403 2663 
Q 1200 2663 1022 2536 
Q 844 2409 722 2214 
Q 600 2019 550 1819 
Q 538 1778 500 1778 
L 422 1778 
Q 372 1778 372 1838 
L 372 1856 
Q 434 2094 584 2320 
Q 734 2547 951 2687 
Q 1169 2828 1416 2828 
Q 1650 2828 1839 2703 
Q 2028 2578 2106 2363 
Q 2216 2559 2386 2693 
Q 2556 2828 2759 2828 
Q 2897 2828 3040 2779 
Q 3184 2731 3275 2631 
Q 3366 2531 3366 2381 
Q 3366 2219 3261 2101 
Q 3156 1984 2994 1984 
Q 2891 1984 2822 2050 
Q 2753 2116 2753 2216 
Q 2753 2350 2845 2451 
Q 2938 2553 3066 2572 
Q 2950 2663 2747 2663 
Q 2541 2663 2389 2472 
Q 2238 2281 2175 2047 
L 1894 916 
Q 1825 659 1825 494 
Q 1825 331 1917 214 
Q 2009 97 2163 97 
Q 2463 97 2698 361 
Q 2934 625 3009 941 
Q 3022 978 3059 978 
L 3138 978 
Q 3163 978 3178 961 
Q 3194 944 3194 922 
Q 3194 916 3188 903 
Q 3097 522 2806 225 
Q 2516 -72 2150 -72 
Q 1916 -72 1727 54 
Q 1538 181 1459 397 
Q 1359 209 1182 68 
Q 1006 -72 806 -72 
Q 669 -72 523 -23 
Q 378 25 287 125 
Q 197 225 197 378 
Q 197 528 301 651 
Q 406 775 563 775 
Q 669 775 741 711 
Q 813 647 813 544 
Q 813 409 723 309 
Q 634 209 500 184 
z
" transform="scale(0.015625)"/>
       <path id="Cmr10-29" d="M 416 -1600 
Q 359 -1600 359 -1544 
Q 359 -1516 372 -1503 
Q 1466 -434 1466 1600 
Q 1466 3634 384 4691 
Q 359 4706 359 4744 
Q 359 4766 376 4783 
Q 394 4800 416 4800 
L 475 4800 
Q 494 4800 506 4788 
Q 966 4425 1272 3906 
Q 1578 3388 1720 2800 
Q 1863 2213 1863 1600 
Q 1863 1147 1786 708 
Q 1709 269 1542 -157 
Q 1375 -584 1119 -945 
Q 863 -1306 506 -1588 
Q 494 -1600 475 -1600 
L 416 -1600 
z
" transform="scale(0.015625)"/>
      </defs>
      <use xlink:href="#Cmmi10-4a"/>
      <use xlink:href="#Cmr10-31" transform="translate(55.419922 -17.00625) scale(0.7)"/>
      <use xlink:href="#Cmr10-28" transform="translate(96.797266 0)"/>
      <use xlink:href="#Cmmi10-78" transform="translate(135.615625 0)"/>
      <use xlink:href="#Cmr10-29" transform="translate(192.695703 0)"/>
     </g>
    </g>
    <g id="line2d_63">
     <path d="M 352.030907 37.198437 
L 346.530907 37.198437 
" style="fill: none; stroke: #ff0000; stroke-linecap: square"/>
    </g>
    <g id="text_13">
     <!-- $\sqrt{\frac{2}{\pi x}}\cos(x - 3\pi/4)$ -->
     <g transform="translate(354.530907 40.698437) scale(0.1 -0.1)">
      <defs>
       <path id="Cmex10-71" d="M 2713 -11263 
L 1259 -6188 
L 819 -6700 
L 703 -6578 
L 1619 -5503 
L 2981 -10266 
L 6284 178 
Q 6306 256 6400 256 
Q 6453 256 6490 218 
Q 6528 181 6528 128 
L 6528 103 
L 2963 -11188 
Q 2925 -11263 2853 -11263 
L 2713 -11263 
z
" transform="scale(0.015625)"/>
       <path id="Cmr10-32" d="M 319 0 
L 319 172 
Q 319 188 331 206 
L 1325 1306 
Q 1550 1550 1690 1715 
Q 1831 1881 1968 2097 
Q 2106 2313 2186 2536 
Q 2266 2759 2266 3009 
Q 2266 3272 2169 3511 
Q 2072 3750 1880 3894 
Q 1688 4038 1416 4038 
Q 1138 4038 916 3870 
Q 694 3703 603 3438 
Q 628 3444 672 3444 
Q 816 3444 917 3347 
Q 1019 3250 1019 3097 
Q 1019 2950 917 2848 
Q 816 2747 672 2747 
Q 522 2747 420 2851 
Q 319 2956 319 3097 
Q 319 3338 409 3548 
Q 500 3759 670 3923 
Q 841 4088 1055 4175 
Q 1269 4263 1509 4263 
Q 1875 4263 2190 4108 
Q 2506 3953 2690 3670 
Q 2875 3388 2875 3009 
Q 2875 2731 2753 2481 
Q 2631 2231 2440 2026 
Q 2250 1822 1953 1562 
Q 1656 1303 1563 1216 
L 838 519 
L 1453 519 
Q 1906 519 2211 526 
Q 2516 534 2534 550 
Q 2609 631 2688 1141 
L 2875 1141 
L 2694 0 
L 319 0 
z
" transform="scale(0.015625)"/>
       <path id="Cmmi10-bc" d="M 647 109 
Q 647 144 672 213 
Q 850 584 1004 942 
Q 1159 1300 1282 1639 
Q 1406 1978 1509 2363 
L 1100 2363 
Q 866 2363 662 2216 
Q 459 2069 325 1844 
Q 313 1819 288 1819 
L 213 1819 
Q 153 1819 153 1881 
Q 153 1894 166 1919 
Q 375 2275 614 2517 
Q 853 2759 1153 2759 
L 3475 2759 
Q 3541 2759 3587 2715 
Q 3634 2672 3634 2597 
Q 3634 2503 3567 2433 
Q 3500 2363 3406 2363 
L 2591 2363 
Q 2488 1859 2478 1381 
Q 2478 766 2694 269 
Q 2713 231 2713 191 
Q 2713 122 2672 62 
Q 2631 3 2567 -34 
Q 2503 -72 2431 -72 
Q 2263 -72 2200 203 
Q 2138 478 2138 738 
Q 2138 1103 2200 1442 
Q 2263 1781 2400 2363 
L 1703 2363 
Q 1197 313 1094 103 
Q 1003 -72 844 -72 
Q 766 -72 706 -20 
Q 647 31 647 109 
z
" transform="scale(0.015625)"/>
       <path id="Cmr10-63" d="M 1594 -72 
Q 1206 -72 890 129 
Q 575 331 394 667 
Q 213 1003 213 1381 
Q 213 1759 392 2106 
Q 572 2453 889 2661 
Q 1206 2869 1594 2869 
Q 1969 2869 2276 2722 
Q 2584 2575 2584 2241 
Q 2584 2116 2495 2023 
Q 2406 1931 2278 1931 
Q 2150 1931 2061 2023 
Q 1972 2116 1972 2241 
Q 1972 2353 2044 2436 
Q 2116 2519 2222 2541 
Q 2000 2681 1600 2681 
Q 1294 2681 1106 2478 
Q 919 2275 844 1975 
Q 769 1675 769 1381 
Q 769 1072 861 783 
Q 953 494 1158 305 
Q 1363 116 1672 116 
Q 1975 116 2187 302 
Q 2400 488 2478 788 
Q 2478 825 2528 825 
L 2606 825 
Q 2625 825 2640 808 
Q 2656 791 2656 769 
L 2656 750 
Q 2559 372 2271 150 
Q 1984 -72 1594 -72 
z
" transform="scale(0.015625)"/>
       <path id="Cmr10-6f" d="M 1600 -72 
Q 1216 -72 887 123 
Q 559 319 368 647 
Q 178 975 178 1363 
Q 178 1656 283 1928 
Q 388 2200 583 2414 
Q 778 2628 1037 2748 
Q 1297 2869 1600 2869 
Q 1994 2869 2317 2661 
Q 2641 2453 2828 2104 
Q 3016 1756 3016 1363 
Q 3016 978 2825 648 
Q 2634 319 2307 123 
Q 1981 -72 1600 -72 
z
M 1600 116 
Q 2113 116 2284 487 
Q 2456 859 2456 1434 
Q 2456 1756 2422 1967 
Q 2388 2178 2272 2350 
Q 2200 2456 2089 2536 
Q 1978 2616 1854 2658 
Q 1731 2700 1600 2700 
Q 1400 2700 1220 2609 
Q 1041 2519 922 2350 
Q 803 2169 770 1951 
Q 738 1734 738 1434 
Q 738 1075 800 789 
Q 863 503 1052 309 
Q 1241 116 1600 116 
z
" transform="scale(0.015625)"/>
       <path id="Cmr10-73" d="M 213 -19 
L 213 1025 
Q 213 1075 269 1075 
L 347 1075 
Q 384 1075 397 1025 
Q 575 97 1259 97 
Q 1563 97 1767 234 
Q 1972 372 1972 659 
Q 1972 866 1812 1011 
Q 1653 1156 1434 1209 
L 1006 1294 
Q 791 1341 614 1437 
Q 438 1534 325 1695 
Q 213 1856 213 2069 
Q 213 2350 361 2529 
Q 509 2709 746 2789 
Q 984 2869 1259 2869 
Q 1588 2869 1831 2694 
L 2016 2853 
Q 2016 2869 2047 2869 
L 2094 2869 
Q 2113 2869 2128 2851 
Q 2144 2834 2144 2816 
L 2144 1978 
Q 2144 1919 2094 1919 
L 2016 1919 
Q 1959 1919 1959 1978 
Q 1959 2313 1773 2516 
Q 1588 2719 1253 2719 
Q 966 2719 755 2612 
Q 544 2506 544 2247 
Q 544 2069 695 1955 
Q 847 1841 1050 1791 
L 1484 1709 
Q 1703 1659 1892 1540 
Q 2081 1422 2192 1240 
Q 2303 1059 2303 831 
Q 2303 600 2223 429 
Q 2144 259 2001 146 
Q 1859 34 1665 -19 
Q 1472 -72 1259 -72 
Q 859 -72 575 197 
L 341 -56 
Q 341 -72 306 -72 
L 269 -72 
Q 213 -72 213 -19 
z
" transform="scale(0.015625)"/>
       <path id="Cmsy10-a1" d="M 653 1472 
Q 600 1472 565 1512 
Q 531 1553 531 1600 
Q 531 1647 565 1687 
Q 600 1728 653 1728 
L 4325 1728 
Q 4375 1728 4408 1687 
Q 4441 1647 4441 1600 
Q 4441 1553 4408 1512 
Q 4375 1472 4325 1472 
L 653 1472 
z
" transform="scale(0.015625)"/>
       <path id="Cmr10-33" d="M 609 494 
Q 759 275 1012 169 
Q 1266 63 1556 63 
Q 1928 63 2084 380 
Q 2241 697 2241 1100 
Q 2241 1281 2208 1462 
Q 2175 1644 2097 1800 
Q 2019 1956 1883 2050 
Q 1747 2144 1550 2144 
L 1125 2144 
Q 1069 2144 1069 2203 
L 1069 2259 
Q 1069 2309 1125 2309 
L 1478 2338 
Q 1703 2338 1851 2506 
Q 2000 2675 2069 2917 
Q 2138 3159 2138 3378 
Q 2138 3684 1994 3881 
Q 1850 4078 1556 4078 
Q 1313 4078 1091 3986 
Q 869 3894 738 3706 
Q 750 3709 759 3711 
Q 769 3713 781 3713 
Q 925 3713 1022 3613 
Q 1119 3513 1119 3372 
Q 1119 3234 1022 3134 
Q 925 3034 781 3034 
Q 641 3034 541 3134 
Q 441 3234 441 3372 
Q 441 3647 606 3850 
Q 772 4053 1033 4158 
Q 1294 4263 1556 4263 
Q 1750 4263 1965 4205 
Q 2181 4147 2356 4039 
Q 2531 3931 2642 3762 
Q 2753 3594 2753 3378 
Q 2753 3109 2633 2881 
Q 2513 2653 2303 2487 
Q 2094 2322 1844 2241 
Q 2122 2188 2372 2031 
Q 2622 1875 2773 1631 
Q 2925 1388 2925 1106 
Q 2925 753 2731 467 
Q 2538 181 2222 20 
Q 1906 -141 1556 -141 
Q 1256 -141 954 -26 
Q 653 88 461 316 
Q 269 544 269 863 
Q 269 1022 375 1128 
Q 481 1234 641 1234 
Q 744 1234 830 1186 
Q 916 1138 964 1050 
Q 1013 963 1013 863 
Q 1013 706 903 600 
Q 794 494 641 494 
L 609 494 
z
" transform="scale(0.015625)"/>
       <path id="Cmmi10-3d" d="M 359 -1472 
Q 359 -1453 366 -1447 
L 2591 4722 
Q 2603 4759 2634 4779 
Q 2666 4800 2706 4800 
Q 2763 4800 2798 4765 
Q 2834 4731 2834 4672 
L 2834 4647 
L 609 -1522 
Q 572 -1600 488 -1600 
Q 434 -1600 396 -1562 
Q 359 -1525 359 -1472 
z
" transform="scale(0.015625)"/>
       <path id="Cmr10-34" d="M 178 1056 
L 178 1281 
L 2156 4231 
Q 2178 4263 2222 4263 
L 2316 4263 
Q 2388 4263 2388 4191 
L 2388 1281 
L 3016 1281 
L 3016 1056 
L 2388 1056 
L 2388 428 
Q 2388 297 2575 261 
Q 2763 225 3009 225 
L 3009 0 
L 1247 0 
L 1247 225 
Q 1494 225 1681 261 
Q 1869 297 1869 428 
L 1869 1056 
L 178 1056 
z
M 391 1281 
L 1906 1281 
L 1906 3547 
L 391 1281 
z
" transform="scale(0.015625)"/>
      </defs>
      <use xlink:href="#Cmex10-71" transform="translate(0 112.859375) scale(0.782542)"/>
      <use xlink:href="#Cmr10-32" transform="translate(112.75 38.123437) scale(0.7)"/>
      <use xlink:href="#Cmmi10-bc" transform="translate(90.75 -24.057813) scale(0.7)"/>
      <use xlink:href="#Cmmi10-78" transform="translate(130.637695 -24.057813) scale(0.7)"/>
      <use xlink:href="#Cmr10-63" transform="translate(195.59375 0.625)"/>
      <use xlink:href="#Cmr10-6f" transform="translate(239.978516 0.625)"/>
      <use xlink:href="#Cmr10-73" transform="translate(289.978516 0.625)"/>
      <use xlink:href="#Cmr10-28" transform="translate(329.382812 0.625)"/>
      <use xlink:href="#Cmmi10-78" transform="translate(368.201172 0.625)"/>
      <use xlink:href="#Cmsy10-a1" transform="translate(442.839844 0.625)"/>
      <use xlink:href="#Cmr10-33" transform="translate(538.083984 0.625)"/>
      <use xlink:href="#Cmmi10-bc" transform="translate(588.083984 0.625)"/>
      <use xlink:href="#Cmmi10-3d" transform="translate(645.066406 0.625)"/>
      <use xlink:href="#Cmr10-34" transform="translate(695.066406 0.625)"/>
      <use xlink:href="#Cmr10-29" transform="translate(745.066406 0.625)"/>
      <path d="M 78.25 109.5 
L 78.25 115.75 
L 195.59375 115.75 
L 195.59375 109.5 
L 78.25 109.5 
z
"/>
      <path d="M 90.75 13.123437 
L 90.75 19.373437 
L 170.59375 19.373437 
L 170.59375 13.123437 
L 90.75 13.123437 
z
"/>
     </g>
    </g>
   </g>
  </g>
 </g>
 <defs>
  <clipPath id="p6117c96603">
   <rect x="22.430183" y="7.2" width="421.500724" height="321.733855"/>
  </clipPath>
 </defs>
</svg>
