<?xml version="1.0" encoding="utf-8" standalone="no"?>
<!DOCTYPE svg PUBLIC "-//W3C//DTD SVG 1.1//EN"
  "http://www.w3.org/Graphics/SVG/1.1/DTD/svg11.dtd">
<svg xmlns:xlink="http://www.w3.org/1999/xlink" width="451.130907pt" height="338.4pt" viewBox="0 0 451.130907 338.4" xmlns="http://www.w3.org/2000/svg" version="1.1">
 <metadata>
  <rdf:RDF xmlns:dc="http://purl.org/dc/elements/1.1/" xmlns:cc="http://creativecommons.org/ns#" xmlns:rdf="http://www.w3.org/1999/02/22-rdf-syntax-ns#">
   <cc:Work>
    <dc:type rdf:resource="http://purl.org/dc/dcmitype/StillImage"/>
    <dc:date>2023-09-10T19:10:48.328904</dc:date>
    <dc:format>image/svg+xml</dc:format>
    <dc:creator>
     <cc:Agent>
      <dc:title>Matplotlib v3.6.2, https://matplotlib.org/</dc:title>
     </cc:Agent>
    </dc:creator>
   </cc:Work>
  </rdf:RDF>
 </metadata>
 <defs>
  <style type="text/css">*{stroke-linejoin: round; stroke-linecap: butt}</style>
 </defs>
 <g id="figure_1">
  <g id="patch_1">
   <path d="M 0 338.4 
L 451.130907 338.4 
L 451.130907 0 
L 0 0 
z
" style="fill: #ffffff"/>
  </g>
  <g id="axes_1">
   <g id="patch_2">
    <path d="M 22.430183 331.2 
L 443.930907 331.2 
L 443.930907 7.2 
L 22.430183 7.2 
z
" style="fill: #ffffff"/>
   </g>
   <g id="matplotlib.axis_1">
    <g id="xtick_1">
     <g id="line2d_1">
      <defs>
       <path id="m5d8fcd66de" d="M 0 0 
L 0 3.5 
" style="stroke: #000000; stroke-width: 0.8"/>
      </defs>
      <g>
       <use xlink:href="#m5d8fcd66de" x="38.482813" y="110.647205" style="stroke: #000000; stroke-width: 0.8"/>
      </g>
     </g>
    </g>
    <g id="xtick_2">
     <g id="line2d_2">
      <g>
       <use xlink:href="#m5d8fcd66de" x="117.951275" y="110.647205" style="stroke: #000000; stroke-width: 0.8"/>
      </g>
     </g>
     <g id="text_1">
      <!-- 10 -->
      <g transform="translate(111.588775 125.245642) scale(0.1 -0.1)">
       <defs>
        <path id="DejaVuSans-31" d="M 794 531 
L 1825 531 
L 1825 4091 
L 703 3866 
L 703 4441 
L 1819 4666 
L 2450 4666 
L 2450 531 
L 3481 531 
L 3481 0 
L 794 0 
L 794 531 
z
" transform="scale(0.015625)"/>
        <path id="DejaVuSans-30" d="M 2034 4250 
Q 1547 4250 1301 3770 
Q 1056 3291 1056 2328 
Q 1056 1369 1301 889 
Q 1547 409 2034 409 
Q 2525 409 2770 889 
Q 3016 1369 3016 2328 
Q 3016 3291 2770 3770 
Q 2525 4250 2034 4250 
z
M 2034 4750 
Q 2819 4750 3233 4129 
Q 3647 3509 3647 2328 
Q 3647 1150 3233 529 
Q 2819 -91 2034 -91 
Q 1250 -91 836 529 
Q 422 1150 422 2328 
Q 422 3509 836 4129 
Q 1250 4750 2034 4750 
z
" transform="scale(0.015625)"/>
       </defs>
       <use xlink:href="#DejaVuSans-31"/>
       <use xlink:href="#DejaVuSans-30" x="63.623047"/>
      </g>
     </g>
    </g>
    <g id="xtick_3">
     <g id="line2d_3">
      <g>
       <use xlink:href="#m5d8fcd66de" x="197.419737" y="110.647205" style="stroke: #000000; stroke-width: 0.8"/>
      </g>
     </g>
     <g id="text_2">
      <!-- 20 -->
      <g transform="translate(191.057237 125.245642) scale(0.1 -0.1)">
       <defs>
        <path id="DejaVuSans-32" d="M 1228 531 
L 3431 531 
L 3431 0 
L 469 0 
L 469 531 
Q 828 903 1448 1529 
Q 2069 2156 2228 2338 
Q 2531 2678 2651 2914 
Q 2772 3150 2772 3378 
Q 2772 3750 2511 3984 
Q 2250 4219 1831 4219 
Q 1534 4219 1204 4116 
Q 875 4013 500 3803 
L 500 4441 
Q 881 4594 1212 4672 
Q 1544 4750 1819 4750 
Q 2544 4750 2975 4387 
Q 3406 4025 3406 3419 
Q 3406 3131 3298 2873 
Q 3191 2616 2906 2266 
Q 2828 2175 2409 1742 
Q 1991 1309 1228 531 
z
" transform="scale(0.015625)"/>
       </defs>
       <use xlink:href="#DejaVuSans-32"/>
       <use xlink:href="#DejaVuSans-30" x="63.623047"/>
      </g>
     </g>
    </g>
    <g id="xtick_4">
     <g id="line2d_4">
      <g>
       <use xlink:href="#m5d8fcd66de" x="276.888199" y="110.647205" style="stroke: #000000; stroke-width: 0.8"/>
      </g>
     </g>
     <g id="text_3">
      <!-- 30 -->
      <g transform="translate(270.525699 125.245642) scale(0.1 -0.1)">
       <defs>
        <path id="DejaVuSans-33" d="M 2597 2516 
Q 3050 2419 3304 2112 
Q 3559 1806 3559 1356 
Q 3559 666 3084 287 
Q 2609 -91 1734 -91 
Q 1441 -91 1130 -33 
Q 819 25 488 141 
L 488 750 
Q 750 597 1062 519 
Q 1375 441 1716 441 
Q 2309 441 2620 675 
Q 2931 909 2931 1356 
Q 2931 1769 2642 2001 
Q 2353 2234 1838 2234 
L 1294 2234 
L 1294 2753 
L 1863 2753 
Q 2328 2753 2575 2939 
Q 2822 3125 2822 3475 
Q 2822 3834 2567 4026 
Q 2313 4219 1838 4219 
Q 1578 4219 1281 4162 
Q 984 4106 628 3988 
L 628 4550 
Q 988 4650 1302 4700 
Q 1616 4750 1894 4750 
Q 2613 4750 3031 4423 
Q 3450 4097 3450 3541 
Q 3450 3153 3228 2886 
Q 3006 2619 2597 2516 
z
" transform="scale(0.015625)"/>
       </defs>
       <use xlink:href="#DejaVuSans-33"/>
       <use xlink:href="#DejaVuSans-30" x="63.623047"/>
      </g>
     </g>
    </g>
    <g id="xtick_5">
     <g id="line2d_5">
      <g>
       <use xlink:href="#m5d8fcd66de" x="356.356662" y="110.647205" style="stroke: #000000; stroke-width: 0.8"/>
      </g>
     </g>
     <g id="text_4">
      <!-- 40 -->
      <g transform="translate(349.994162 125.245642) scale(0.1 -0.1)">
       <defs>
        <path id="DejaVuSans-34" d="M 2419 4116 
L 825 1625 
L 2419 1625 
L 2419 4116 
z
M 2253 4666 
L 3047 4666 
L 3047 1625 
L 3713 1625 
L 3713 1100 
L 3047 1100 
L 3047 0 
L 2419 0 
L 2419 1100 
L 313 1100 
L 313 1709 
L 2253 4666 
z
" transform="scale(0.015625)"/>
       </defs>
       <use xlink:href="#DejaVuSans-34"/>
       <use xlink:href="#DejaVuSans-30" x="63.623047"/>
      </g>
     </g>
    </g>
    <g id="xtick_6">
     <g id="line2d_6">
      <g>
       <use xlink:href="#m5d8fcd66de" x="435.825124" y="110.647205" style="stroke: #000000; stroke-width: 0.8"/>
      </g>
     </g>
     <g id="text_5">
      <!-- 50 -->
      <g transform="translate(429.462624 125.245642) scale(0.1 -0.1)">
       <defs>
        <path id="DejaVuSans-35" d="M 691 4666 
L 3169 4666 
L 3169 4134 
L 1269 4134 
L 1269 2991 
Q 1406 3038 1543 3061 
Q 1681 3084 1819 3084 
Q 2600 3084 3056 2656 
Q 3513 2228 3513 1497 
Q 3513 744 3044 326 
Q 2575 -91 1722 -91 
Q 1428 -91 1123 -41 
Q 819 9 494 109 
L 494 744 
Q 775 591 1075 516 
Q 1375 441 1709 441 
Q 2250 441 2565 725 
Q 2881 1009 2881 1497 
Q 2881 1984 2565 2268 
Q 2250 2553 1709 2553 
Q 1456 2553 1204 2497 
Q 953 2441 691 2322 
L 691 4666 
z
" transform="scale(0.015625)"/>
       </defs>
       <use xlink:href="#DejaVuSans-35"/>
       <use xlink:href="#DejaVuSans-30" x="63.623047"/>
      </g>
     </g>
    </g>
    <g id="xtick_7">
     <g id="line2d_7">
      <defs>
       <path id="mc1fb65a442" d="M 0 0 
L 0 2 
" style="stroke: #000000; stroke-width: 0.6"/>
      </defs>
      <g>
       <use xlink:href="#mc1fb65a442" x="22.58912" y="110.647205" style="stroke: #000000; stroke-width: 0.6"/>
      </g>
     </g>
    </g>
    <g id="xtick_8">
     <g id="line2d_8">
      <g>
       <use xlink:href="#mc1fb65a442" x="54.376505" y="110.647205" style="stroke: #000000; stroke-width: 0.6"/>
      </g>
     </g>
    </g>
    <g id="xtick_9">
     <g id="line2d_9">
      <g>
       <use xlink:href="#mc1fb65a442" x="70.270197" y="110.647205" style="stroke: #000000; stroke-width: 0.6"/>
      </g>
     </g>
    </g>
    <g id="xtick_10">
     <g id="line2d_10">
      <g>
       <use xlink:href="#mc1fb65a442" x="86.16389" y="110.647205" style="stroke: #000000; stroke-width: 0.6"/>
      </g>
     </g>
    </g>
    <g id="xtick_11">
     <g id="line2d_11">
      <g>
       <use xlink:href="#mc1fb65a442" x="102.057582" y="110.647205" style="stroke: #000000; stroke-width: 0.6"/>
      </g>
     </g>
    </g>
    <g id="xtick_12">
     <g id="line2d_12">
      <g>
       <use xlink:href="#mc1fb65a442" x="133.844967" y="110.647205" style="stroke: #000000; stroke-width: 0.6"/>
      </g>
     </g>
    </g>
    <g id="xtick_13">
     <g id="line2d_13">
      <g>
       <use xlink:href="#mc1fb65a442" x="149.73866" y="110.647205" style="stroke: #000000; stroke-width: 0.6"/>
      </g>
     </g>
    </g>
    <g id="xtick_14">
     <g id="line2d_14">
      <g>
       <use xlink:href="#mc1fb65a442" x="165.632352" y="110.647205" style="stroke: #000000; stroke-width: 0.6"/>
      </g>
     </g>
    </g>
    <g id="xtick_15">
     <g id="line2d_15">
      <g>
       <use xlink:href="#mc1fb65a442" x="181.526045" y="110.647205" style="stroke: #000000; stroke-width: 0.6"/>
      </g>
     </g>
    </g>
    <g id="xtick_16">
     <g id="line2d_16">
      <g>
       <use xlink:href="#mc1fb65a442" x="213.31343" y="110.647205" style="stroke: #000000; stroke-width: 0.6"/>
      </g>
     </g>
    </g>
    <g id="xtick_17">
     <g id="line2d_17">
      <g>
       <use xlink:href="#mc1fb65a442" x="229.207122" y="110.647205" style="stroke: #000000; stroke-width: 0.6"/>
      </g>
     </g>
    </g>
    <g id="xtick_18">
     <g id="line2d_18">
      <g>
       <use xlink:href="#mc1fb65a442" x="245.100814" y="110.647205" style="stroke: #000000; stroke-width: 0.6"/>
      </g>
     </g>
    </g>
    <g id="xtick_19">
     <g id="line2d_19">
      <g>
       <use xlink:href="#mc1fb65a442" x="260.994507" y="110.647205" style="stroke: #000000; stroke-width: 0.6"/>
      </g>
     </g>
    </g>
    <g id="xtick_20">
     <g id="line2d_20">
      <g>
       <use xlink:href="#mc1fb65a442" x="292.781892" y="110.647205" style="stroke: #000000; stroke-width: 0.6"/>
      </g>
     </g>
    </g>
    <g id="xtick_21">
     <g id="line2d_21">
      <g>
       <use xlink:href="#mc1fb65a442" x="308.675584" y="110.647205" style="stroke: #000000; stroke-width: 0.6"/>
      </g>
     </g>
    </g>
    <g id="xtick_22">
     <g id="line2d_22">
      <g>
       <use xlink:href="#mc1fb65a442" x="324.569277" y="110.647205" style="stroke: #000000; stroke-width: 0.6"/>
      </g>
     </g>
    </g>
    <g id="xtick_23">
     <g id="line2d_23">
      <g>
       <use xlink:href="#mc1fb65a442" x="340.462969" y="110.647205" style="stroke: #000000; stroke-width: 0.6"/>
      </g>
     </g>
    </g>
    <g id="xtick_24">
     <g id="line2d_24">
      <g>
       <use xlink:href="#mc1fb65a442" x="372.250354" y="110.647205" style="stroke: #000000; stroke-width: 0.6"/>
      </g>
     </g>
    </g>
    <g id="xtick_25">
     <g id="line2d_25">
      <g>
       <use xlink:href="#mc1fb65a442" x="388.144047" y="110.647205" style="stroke: #000000; stroke-width: 0.6"/>
      </g>
     </g>
    </g>
    <g id="xtick_26">
     <g id="line2d_26">
      <g>
       <use xlink:href="#mc1fb65a442" x="404.037739" y="110.647205" style="stroke: #000000; stroke-width: 0.6"/>
      </g>
     </g>
    </g>
    <g id="xtick_27">
     <g id="line2d_27">
      <g>
       <use xlink:href="#mc1fb65a442" x="419.931431" y="110.647205" style="stroke: #000000; stroke-width: 0.6"/>
      </g>
     </g>
    </g>
   </g>
   <g id="matplotlib.axis_2">
    <g id="ytick_1">
     <g id="line2d_28">
      <defs>
       <path id="m2863c7bb37" d="M 0 0 
L -3.5 0 
" style="stroke: #000000; stroke-width: 0.8"/>
      </defs>
      <g>
       <use xlink:href="#m2863c7bb37" x="38.482813" y="277.725454" style="stroke: #000000; stroke-width: 0.8"/>
      </g>
     </g>
     <g id="text_6">
      <!-- −1.0 -->
      <g transform="translate(7.2 281.524673) scale(0.1 -0.1)">
       <defs>
        <path id="DejaVuSans-2212" d="M 678 2272 
L 4684 2272 
L 4684 1741 
L 678 1741 
L 678 2272 
z
" transform="scale(0.015625)"/>
        <path id="DejaVuSans-2e" d="M 684 794 
L 1344 794 
L 1344 0 
L 684 0 
L 684 794 
z
" transform="scale(0.015625)"/>
       </defs>
       <use xlink:href="#DejaVuSans-2212"/>
       <use xlink:href="#DejaVuSans-31" x="83.789062"/>
       <use xlink:href="#DejaVuSans-2e" x="147.412109"/>
       <use xlink:href="#DejaVuSans-30" x="179.199219"/>
      </g>
     </g>
    </g>
    <g id="ytick_2">
     <g id="line2d_29">
      <g>
       <use xlink:href="#m2863c7bb37" x="38.482813" y="194.186329" style="stroke: #000000; stroke-width: 0.8"/>
      </g>
     </g>
     <g id="text_7">
      <!-- −0.5 -->
      <g transform="translate(7.2 197.985548) scale(0.1 -0.1)">
       <use xlink:href="#DejaVuSans-2212"/>
       <use xlink:href="#DejaVuSans-30" x="83.789062"/>
       <use xlink:href="#DejaVuSans-2e" x="147.412109"/>
       <use xlink:href="#DejaVuSans-35" x="179.199219"/>
      </g>
     </g>
    </g>
    <g id="ytick_3">
     <g id="line2d_30">
      <g>
       <use xlink:href="#m2863c7bb37" x="38.482813" y="110.647205" style="stroke: #000000; stroke-width: 0.8"/>
      </g>
     </g>
    </g>
    <g id="ytick_4">
     <g id="line2d_31">
      <g>
       <use xlink:href="#m2863c7bb37" x="38.482813" y="27.10808" style="stroke: #000000; stroke-width: 0.8"/>
      </g>
     </g>
     <g id="text_8">
      <!-- 0.5 -->
      <g transform="translate(15.579688 30.907299) scale(0.1 -0.1)">
       <use xlink:href="#DejaVuSans-30"/>
       <use xlink:href="#DejaVuSans-2e" x="63.623047"/>
       <use xlink:href="#DejaVuSans-35" x="95.410156"/>
      </g>
     </g>
    </g>
    <g id="ytick_5">
     <g id="line2d_32">
      <defs>
       <path id="me10304f122" d="M 0 0 
L -2 0 
" style="stroke: #000000; stroke-width: 0.6"/>
      </defs>
      <g>
       <use xlink:href="#me10304f122" x="38.482813" y="327.848929" style="stroke: #000000; stroke-width: 0.6"/>
      </g>
     </g>
    </g>
    <g id="ytick_6">
     <g id="line2d_33">
      <g>
       <use xlink:href="#me10304f122" x="38.482813" y="311.141104" style="stroke: #000000; stroke-width: 0.6"/>
      </g>
     </g>
    </g>
    <g id="ytick_7">
     <g id="line2d_34">
      <g>
       <use xlink:href="#me10304f122" x="38.482813" y="294.433279" style="stroke: #000000; stroke-width: 0.6"/>
      </g>
     </g>
    </g>
    <g id="ytick_8">
     <g id="line2d_35">
      <g>
       <use xlink:href="#me10304f122" x="38.482813" y="261.017629" style="stroke: #000000; stroke-width: 0.6"/>
      </g>
     </g>
    </g>
    <g id="ytick_9">
     <g id="line2d_36">
      <g>
       <use xlink:href="#me10304f122" x="38.482813" y="244.309804" style="stroke: #000000; stroke-width: 0.6"/>
      </g>
     </g>
    </g>
    <g id="ytick_10">
     <g id="line2d_37">
      <g>
       <use xlink:href="#me10304f122" x="38.482813" y="227.601979" style="stroke: #000000; stroke-width: 0.6"/>
      </g>
     </g>
    </g>
    <g id="ytick_11">
     <g id="line2d_38">
      <g>
       <use xlink:href="#me10304f122" x="38.482813" y="210.894154" style="stroke: #000000; stroke-width: 0.6"/>
      </g>
     </g>
    </g>
    <g id="ytick_12">
     <g id="line2d_39">
      <g>
       <use xlink:href="#me10304f122" x="38.482813" y="177.478504" style="stroke: #000000; stroke-width: 0.6"/>
      </g>
     </g>
    </g>
    <g id="ytick_13">
     <g id="line2d_40">
      <g>
       <use xlink:href="#me10304f122" x="38.482813" y="160.77068" style="stroke: #000000; stroke-width: 0.6"/>
      </g>
     </g>
    </g>
    <g id="ytick_14">
     <g id="line2d_41">
      <g>
       <use xlink:href="#me10304f122" x="38.482813" y="144.062855" style="stroke: #000000; stroke-width: 0.6"/>
      </g>
     </g>
    </g>
    <g id="ytick_15">
     <g id="line2d_42">
      <g>
       <use xlink:href="#me10304f122" x="38.482813" y="127.35503" style="stroke: #000000; stroke-width: 0.6"/>
      </g>
     </g>
    </g>
    <g id="ytick_16">
     <g id="line2d_43">
      <g>
       <use xlink:href="#me10304f122" x="38.482813" y="93.93938" style="stroke: #000000; stroke-width: 0.6"/>
      </g>
     </g>
    </g>
    <g id="ytick_17">
     <g id="line2d_44">
      <g>
       <use xlink:href="#me10304f122" x="38.482813" y="77.231555" style="stroke: #000000; stroke-width: 0.6"/>
      </g>
     </g>
    </g>
    <g id="ytick_18">
     <g id="line2d_45">
      <g>
       <use xlink:href="#me10304f122" x="38.482813" y="60.52373" style="stroke: #000000; stroke-width: 0.6"/>
      </g>
     </g>
    </g>
    <g id="ytick_19">
     <g id="line2d_46">
      <g>
       <use xlink:href="#me10304f122" x="38.482813" y="43.815905" style="stroke: #000000; stroke-width: 0.6"/>
      </g>
     </g>
    </g>
    <g id="ytick_20">
     <g id="line2d_47">
      <g>
       <use xlink:href="#me10304f122" x="38.482813" y="10.400255" style="stroke: #000000; stroke-width: 0.6"/>
      </g>
     </g>
    </g>
   </g>
   <g id="line2d_48">
    <path d="M 30.535966 184.170086 
L 31.903323 174.052805 
L 33.414655 161.261663 
L 34.925986 147.10891 
L 43.300222 62.296358 
L 44.666046 50.443903 
L 46.003917 40.111677 
L 47.341787 31.256162 
L 48.330548 25.765173 
L 49.319308 21.235425 
L 50.562194 16.973769 
L 51.80508 14.3633 
L 53.08152 13.430769 
L 54.154236 14.013965 
L 55.226951 15.821487 
L 56.460079 19.357496 
L 57.796083 24.846324 
L 59.132087 31.910591 
L 60.181582 38.444552 
L 61.845905 50.308245 
L 64.844396 74.965195 
L 70.090439 120.236433 
L 71.167342 128.68232 
L 72.941639 141.280901 
L 74.892315 152.765497 
L 76.63973 160.565153 
L 78.387145 165.766482 
L 79.31088 167.42069 
L 81.183643 168.428599 
L 82.517222 167.269642 
L 83.8508 164.629033 
L 85.157901 160.70815 
L 86.465001 155.601445 
L 88.4989 145.678324 
L 90.629333 133.383147 
L 96.202195 98.56803 
L 98.485164 85.992754 
L 99.960599 79.102878 
L 101.145351 74.443183 
L 102.330102 70.653691 
L 103.458276 67.913715 
L 104.58645 66.060607 
L 105.008593 65.600092 
L 106.726681 65.043688 
L 108.44477 66.56978 
L 110.308178 70.43965 
L 111.630127 74.445789 
L 114.067291 84.101455 
L 117.457595 100.793532 
L 120.41201 116.273766 
L 122.693197 127.440139 
L 124.191828 133.930131 
L 125.549855 139.018315 
L 126.907881 143.21443 
L 127.705004 145.21823 
L 129.402504 148.265989 
L 131.100004 149.576079 
L 132.055156 149.536002 
L 133.434122 148.504507 
L 134.813087 146.366909 
L 137.397697 139.676021 
L 139.561055 131.872187 
L 142.690557 118.335035 
L 146.513813 100.995216 
L 149.263744 90.018266 
L 150.113821 87.116195 
L 151.931887 81.912922 
L 154.131465 77.721277 
L 155.869871 76.205995 
L 158.28696 76.827841 
L 159.974249 79.086714 
L 161.661537 82.716102 
L 163.0009 86.455855 
L 165.545744 95.21583 
L 173.145694 125.443882 
L 175.240457 132.268512 
L 176.306997 135.159727 
L 178.092346 138.949664 
L 179.877695 141.282515 
L 180.7912 141.878018 
L 182.976513 141.626513 
L 184.31953 140.320301 
L 186.291453 136.92192 
L 188.263375 131.974293 
L 190.875427 123.590885 
L 198.480511 95.952115 
L 199.311012 93.384209 
L 201.566259 87.492952 
L 203.768759 83.586471 
L 205.405195 82.033989 
L 206.864715 81.674399 
L 208.324234 82.286097 
L 210.389706 84.749452 
L 212.501797 89.02034 
L 214.085272 93.197905 
L 215.575886 97.726458 
L 221.764855 118.937994 
L 224.711767 127.834969 
L 226.148982 131.344794 
L 227.276483 133.614282 
L 228.772282 135.889446 
L 230.268081 137.260159 
L 232.424063 137.569141 
L 234.995759 135.385609 
L 235.364134 134.857074 
L 238.366126 128.784872 
L 239.88763 124.702887 
L 242.61975 116.279846 
L 247.302755 101.162823 
L 249.32988 95.434382 
L 250.626103 92.292879 
L 252.033857 89.454505 
L 253.951395 86.693311 
L 255.879407 85.333101 
L 257.499504 85.339077 
L 259.119601 86.38799 
L 261.239897 89.246474 
L 262.992079 92.737043 
L 263.7854 94.604335 
L 268.119056 106.934639 
L 271.899149 118.508395 
L 274.219814 124.814386 
L 276.482674 129.759197 
L 279.088782 133.482223 
L 281.862434 134.740116 
L 283.898103 133.811159 
L 284.870871 132.83065 
L 286.938994 129.685138 
L 289.89375 123.096429 
L 292.298383 116.494001 
L 296.206614 105.054874 
L 299.113237 97.37052 
L 301.342464 92.672735 
L 303.004055 90.09079 
L 304.957198 88.222388 
L 306.914331 87.709679 
L 309.836926 89.500389 
L 312.388051 93.364171 
L 313.377135 95.353787 
L 315.060213 99.246725 
L 319.744952 112.004502 
L 321.825719 117.721055 
L 323.667985 122.358354 
L 325.531602 126.383194 
L 327.115921 129.116718 
L 328.813304 131.217535 
L 330.510686 132.374636 
L 332.701974 132.402118 
L 333.434655 132.042098 
L 336.153608 129.173072 
L 337.77465 126.425147 
L 339.262533 123.338825 
L 342.209461 116.085685 
L 346.709868 104.091215 
L 347.907365 101.125379 
L 350.054009 96.416793 
L 352.737011 92.054359 
L 355.053189 89.98705 
L 356.64962 89.577288 
L 358.485794 90.152253 
L 359.573956 91.008496 
L 362.506417 95.057113 
L 363.570363 97.072349 
L 368.219182 108.080404 
L 369.915151 112.482845 
L 372.898357 119.851349 
L 374.892172 124.084569 
L 376.037605 126.140582 
L 378.94259 129.808872 
L 380.170014 130.607463 
L 382.162434 130.885128 
L 385.285284 128.802602 
L 386.562619 127.127999 
L 388.257108 124.270858 
L 392.510639 114.807308 
L 396.998415 103.751268 
L 399.886827 97.637925 
L 400.671432 96.249792 
L 402.350698 93.774416 
L 405.569888 91.216525 
L 407.812247 91.294783 
L 409.819422 92.661237 
L 410.436402 93.314691 
L 413.328763 97.670316 
L 415.355905 101.756355 
L 416.764959 104.939162 
L 422.135164 117.689193 
L 424.185534 121.979461 
L 425.730215 124.716042 
L 426.765214 126.253218 
L 429.156473 128.745925 
L 432.446402 129.483061 
L 433.923357 128.76753 
L 435.825124 126.93931 
L 435.825124 126.93931 
" clip-path="url(#p5237e42cf4)" style="fill: none; stroke: #0000ff; stroke-linecap: square"/>
   </g>
   <g id="line2d_49">
    <path d="M 39.595284 324.969231 
L 40.136523 270.137115 
L 40.677762 234.297867 
L 41.432449 198.715679 
L 42.465117 163.463985 
L 43.74273 130.834019 
L 45.262133 100.885513 
L 46.142729 86.539011 
L 47.043161 73.69674 
L 47.943593 62.494402 
L 48.844024 52.797631 
L 49.744456 44.516535 
L 50.778054 36.674149 
L 51.811651 30.539898 
L 52.927117 25.764738 
L 53.967597 22.972658 
L 55.471993 21.637843 
L 56.97639 23.297021 
L 57.957402 25.868887 
L 58.938413 29.520768 
L 60.097687 35.10412 
L 61.25696 41.906034 
L 62.916883 53.415308 
L 64.451306 65.478369 
L 70.993636 121.410709 
L 73.400677 139.275373 
L 74.495598 146.249818 
L 75.815559 153.499203 
L 77.13552 159.350612 
L 79.041808 165.134382 
L 80.084447 166.911028 
L 81.127086 167.697186 
L 82.166247 167.506156 
L 83.205407 166.368057 
L 84.710754 163.124524 
L 86.010594 158.924348 
L 87.310434 153.574959 
L 89.818966 140.635751 
L 91.432211 131.026544 
L 96.928329 96.780647 
L 98.486556 88.156115 
L 100.044783 80.599961 
L 101.889259 73.380216 
L 103.208144 69.53396 
L 104.527029 66.879551 
L 105.312498 65.885791 
L 107.44265 65.426077 
L 109.125099 67.324756 
L 111.198686 72.204777 
L 112.814439 77.71167 
L 114.430191 84.438612 
L 116.053527 92.126982 
L 123.516734 129.832432 
L 126.000046 139.538036 
L 127.685038 144.441027 
L 128.901515 147.001573 
L 130.117991 148.684986 
L 131.650826 149.517355 
L 133.18366 148.908781 
L 134.667409 146.989661 
L 135.980011 144.269447 
L 137.991756 138.445855 
L 140.092458 130.627324 
L 142.271556 121.24481 
L 147.594849 97.354104 
L 150.235808 87.453843 
L 151.863598 82.661906 
L 153.491387 79.098623 
L 155.274493 76.75741 
L 156.85378 76.119016 
L 158.343783 76.761486 
L 159.833786 78.575163 
L 160.835624 80.41601 
L 162.34067 84.0382 
L 164.461076 90.631848 
L 166.724239 99.082433 
L 173.4526 125.890921 
L 174.481918 129.377027 
L 176.158049 134.306515 
L 178.192318 138.794335 
L 179.876902 141.092 
L 181.561487 142.008616 
L 184.182211 140.652109 
L 185.990189 137.837131 
L 188.749433 130.999518 
L 190.910593 123.99757 
L 197.083791 101.181941 
L 200.564998 90.293669 
L 201.392482 88.238933 
L 203.621199 84.009614 
L 205.089239 82.371551 
L 206.557278 81.705296 
L 207.319231 81.748563 
L 209.549575 83.378843 
L 212.48943 88.685487 
L 214.552097 94.175825 
L 215.743048 97.84351 
L 217.577203 103.97194 
L 220.583767 114.487044 
L 223.877595 125.139334 
L 225.688258 129.976348 
L 227.461809 133.706885 
L 230.346067 137.215229 
L 232.307028 137.615695 
L 234.576919 136.049757 
L 236.13788 133.780278 
L 238.141001 129.613166 
L 241.822144 119.204848 
L 247.376816 101.286854 
L 249.682152 94.8262 
L 251.439518 90.807338 
L 253.196885 87.783485 
L 254.56287 86.210738 
L 256.356269 85.254446 
L 258.103606 85.563424 
L 260.024733 87.285686 
L 261.842599 90.149765 
L 264.774227 96.87089 
L 268.206517 106.88802 
L 270.663057 114.501459 
L 272.984986 121.301661 
L 275.379135 127.296905 
L 276.773391 130.101387 
L 278.380191 132.570366 
L 280.002119 134.143056 
L 281.624047 134.733402 
L 282.694239 134.574619 
L 285.148292 132.602489 
L 286.157101 131.179437 
L 289.149023 125.171518 
L 290.980623 120.462898 
L 298.660998 98.699181 
L 301.174985 93.154 
L 304.084647 88.98477 
L 305.480943 87.996269 
L 306.576242 87.710649 
L 308.549867 88.291797 
L 310.523491 90.235224 
L 311.739856 92.058873 
L 313.82175 96.137983 
L 315.532451 100.219795 
L 319.598939 111.356141 
L 321.862947 117.595998 
L 324.928855 124.991112 
L 327.487985 129.533943 
L 329.220019 131.508575 
L 332.038255 132.573425 
L 333.444167 132.078983 
L 335.207138 130.523467 
L 338.602952 124.927534 
L 340.844916 119.783058 
L 342.180201 116.366263 
L 347.472348 102.370671 
L 350.856184 95.052761 
L 351.566238 93.844296 
L 353.270008 91.517236 
L 354.973778 90.076193 
L 356.852025 89.586101 
L 358.700374 90.246469 
L 359.683689 91.047661 
L 361.61385 93.46682 
L 364.542752 98.964855 
L 366.735942 104.122141 
L 370.967114 114.992258 
L 373.543149 121.142258 
L 374.848802 123.861231 
L 377.099096 127.65369 
L 378.718833 129.545193 
L 381.155113 130.88907 
L 383.303022 130.50555 
L 385.698033 128.391301 
L 387.863756 125.111255 
L 389.821726 121.238883 
L 391.657753 117.0427 
L 397.000645 103.901587 
L 400.455677 96.733987 
L 402.856911 93.249595 
L 404.320026 91.894292 
L 406.043536 91.11814 
L 407.767046 91.258364 
L 409.434305 92.256151 
L 411.875 95.138162 
L 412.505669 96.129499 
L 415.387155 101.689211 
L 416.748645 104.756499 
L 421.780576 116.747262 
L 423.475519 120.439829 
L 425.204949 123.733392 
L 428.249656 127.922758 
L 429.311753 128.809071 
L 432.234757 129.541803 
L 434.069274 128.703625 
L 435.825124 127.008782 
L 435.825124 127.008782 
" clip-path="url(#p5237e42cf4)" style="fill: none; stroke: #ff0000; stroke-linecap: square"/>
   </g>
   <g id="patch_3">
    <path d="M 38.482813 331.2 
L 38.482813 7.2 
" style="fill: none; stroke: #000000; stroke-width: 0.8; stroke-linejoin: miter; stroke-linecap: square"/>
   </g>
   <g id="patch_4">
    <path d="M 22.430183 110.647205 
L 443.930907 110.647205 
" style="fill: none; stroke: #000000; stroke-width: 0.8; stroke-linejoin: miter; stroke-linecap: square"/>
   </g>
   <g id="legend_1">
    <g id="patch_5">
     <path d="M 345.030907 51.298438 
L 440.930907 51.298438 
L 440.930907 14.2 
L 345.030907 14.2 
z
" style="fill: #4c4c4c; opacity: 0.5; stroke: #4c4c4c; stroke-linejoin: miter"/>
    </g>
    <g id="patch_6">
     <path d="M 343.030907 49.298438 
L 438.930907 49.298438 
L 438.930907 12.2 
L 343.030907 12.2 
z
" style="fill: #ffffff; stroke: #cccccc; stroke-linejoin: miter"/>
    </g>
    <g id="line2d_50">
     <path d="M 352.030907 22.298438 
L 346.530907 22.298438 
" style="fill: none; stroke: #0000ff; stroke-linecap: square"/>
    </g>
    <g id="text_9">
     <!-- $J_{1}(x)$ -->
     <g transform="translate(354.530907 25.798438) scale(0.1 -0.1)">
      <defs>
       <path id="Cmmi10-4a" d="M 697 384 
Q 759 206 928 115 
Q 1097 25 1294 25 
Q 1494 25 1680 164 
Q 1866 303 1995 512 
Q 2125 722 2175 928 
L 2931 3956 
Q 2938 3981 2939 3993 
Q 2941 4006 2944 4019 
Q 2944 4088 2894 4103 
Q 2725 4147 2209 4147 
Q 2144 4147 2144 4231 
Q 2156 4281 2164 4309 
Q 2172 4338 2192 4355 
Q 2213 4372 2253 4372 
L 3988 4372 
Q 4050 4372 4050 4288 
Q 4025 4147 3969 4147 
Q 3744 4147 3628 4112 
Q 3513 4078 3469 3928 
L 2713 903 
Q 2641 606 2420 367 
Q 2200 128 1897 -6 
Q 1594 -141 1288 -141 
Q 950 -141 695 46 
Q 441 234 441 556 
Q 441 769 556 922 
Q 672 1075 884 1075 
Q 1006 1075 1089 1000 
Q 1172 925 1172 806 
Q 1172 634 1044 506 
Q 916 378 744 378 
Q 709 378 697 384 
z
" transform="scale(0.015625)"/>
       <path id="Cmr10-31" d="M 594 0 
L 594 225 
Q 1394 225 1394 428 
L 1394 3788 
Q 1063 3628 556 3628 
L 556 3853 
Q 1341 3853 1741 4263 
L 1831 4263 
Q 1853 4263 1873 4245 
Q 1894 4228 1894 4206 
L 1894 428 
Q 1894 225 2694 225 
L 2694 0 
L 594 0 
z
" transform="scale(0.015625)"/>
       <path id="Cmr10-28" d="M 1984 -1588 
Q 1628 -1306 1370 -942 
Q 1113 -578 948 -165 
Q 784 247 703 697 
Q 622 1147 622 1600 
Q 622 2059 703 2509 
Q 784 2959 951 3375 
Q 1119 3791 1378 4153 
Q 1638 4516 1984 4788 
Q 1984 4800 2016 4800 
L 2075 4800 
Q 2094 4800 2109 4783 
Q 2125 4766 2125 4744 
Q 2125 4716 2113 4703 
Q 1800 4397 1592 4047 
Q 1384 3697 1257 3301 
Q 1131 2906 1075 2482 
Q 1019 2059 1019 1600 
Q 1019 -434 2106 -1491 
Q 2125 -1509 2125 -1544 
Q 2125 -1559 2108 -1579 
Q 2091 -1600 2075 -1600 
L 2016 -1600 
Q 1984 -1600 1984 -1588 
z
" transform="scale(0.015625)"/>
       <path id="Cmmi10-78" d="M 500 184 
Q 613 97 819 97 
Q 1019 97 1172 289 
Q 1325 481 1381 709 
L 1672 1844 
Q 1741 2153 1741 2266 
Q 1741 2425 1652 2544 
Q 1563 2663 1403 2663 
Q 1200 2663 1022 2536 
Q 844 2409 722 2214 
Q 600 2019 550 1819 
Q 538 1778 500 1778 
L 422 1778 
Q 372 1778 372 1838 
L 372 1856 
Q 434 2094 584 2320 
Q 734 2547 951 2687 
Q 1169 2828 1416 2828 
Q 1650 2828 1839 2703 
Q 2028 2578 2106 2363 
Q 2216 2559 2386 2693 
Q 2556 2828 2759 2828 
Q 2897 2828 3040 2779 
Q 3184 2731 3275 2631 
Q 3366 2531 3366 2381 
Q 3366 2219 3261 2101 
Q 3156 1984 2994 1984 
Q 2891 1984 2822 2050 
Q 2753 2116 2753 2216 
Q 2753 2350 2845 2451 
Q 2938 2553 3066 2572 
Q 2950 2663 2747 2663 
Q 2541 2663 2389 2472 
Q 2238 2281 2175 2047 
L 1894 916 
Q 1825 659 1825 494 
Q 1825 331 1917 214 
Q 2009 97 2163 97 
Q 2463 97 2698 361 
Q 2934 625 3009 941 
Q 3022 978 3059 978 
L 3138 978 
Q 3163 978 3178 961 
Q 3194 944 3194 922 
Q 3194 916 3188 903 
Q 3097 522 2806 225 
Q 2516 -72 2150 -72 
Q 1916 -72 1727 54 
Q 1538 181 1459 397 
Q 1359 209 1182 68 
Q 1006 -72 806 -72 
Q 669 -72 523 -23 
Q 378 25 287 125 
Q 197 225 197 378 
Q 197 528 301 651 
Q 406 775 563 775 
Q 669 775 741 711 
Q 813 647 813 544 
Q 813 409 723 309 
Q 634 209 500 184 
z
" transform="scale(0.015625)"/>
       <path id="Cmr10-29" d="M 416 -1600 
Q 359 -1600 359 -1544 
Q 359 -1516 372 -1503 
Q 1466 -434 1466 1600 
Q 1466 3634 384 4691 
Q 359 4706 359 4744 
Q 359 4766 376 4783 
Q 394 4800 416 4800 
L 475 4800 
Q 494 4800 506 4788 
Q 966 4425 1272 3906 
Q 1578 3388 1720 2800 
Q 1863 2213 1863 1600 
Q 1863 1147 1786 708 
Q 1709 269 1542 -157 
Q 1375 -584 1119 -945 
Q 863 -1306 506 -1588 
Q 494 -1600 475 -1600 
L 416 -1600 
z
" transform="scale(0.015625)"/>
      </defs>
      <use xlink:href="#Cmmi10-4a"/>
      <use xlink:href="#Cmr10-31" transform="translate(55.419922 -17.00625) scale(0.7)"/>
      <use xlink:href="#Cmr10-28" transform="translate(96.797266 0)"/>
      <use xlink:href="#Cmmi10-78" transform="translate(135.615625 0)"/>
      <use xlink:href="#Cmr10-29" transform="translate(192.695703 0)"/>
     </g>
    </g>
    <g id="line2d_51">
     <path d="M 352.030907 37.198438 
L 346.530907 37.198438 
" style="fill: none; stroke: #ff0000; stroke-linecap: square"/>
    </g>
    <g id="text_10">
     <!-- $\sqrt{\frac{2}{\pi x}}\cos(x - 3\pi/4)$ -->
     <g transform="translate(354.530907 40.698438) scale(0.1 -0.1)">
      <defs>
       <path id="Cmex10-71" d="M 2713 -11263 
L 1259 -6188 
L 819 -6700 
L 703 -6578 
L 1619 -5503 
L 2981 -10266 
L 6284 178 
Q 6306 256 6400 256 
Q 6453 256 6490 218 
Q 6528 181 6528 128 
L 6528 103 
L 2963 -11188 
Q 2925 -11263 2853 -11263 
L 2713 -11263 
z
" transform="scale(0.015625)"/>
       <path id="Cmr10-32" d="M 319 0 
L 319 172 
Q 319 188 331 206 
L 1325 1306 
Q 1550 1550 1690 1715 
Q 1831 1881 1968 2097 
Q 2106 2313 2186 2536 
Q 2266 2759 2266 3009 
Q 2266 3272 2169 3511 
Q 2072 3750 1880 3894 
Q 1688 4038 1416 4038 
Q 1138 4038 916 3870 
Q 694 3703 603 3438 
Q 628 3444 672 3444 
Q 816 3444 917 3347 
Q 1019 3250 1019 3097 
Q 1019 2950 917 2848 
Q 816 2747 672 2747 
Q 522 2747 420 2851 
Q 319 2956 319 3097 
Q 319 3338 409 3548 
Q 500 3759 670 3923 
Q 841 4088 1055 4175 
Q 1269 4263 1509 4263 
Q 1875 4263 2190 4108 
Q 2506 3953 2690 3670 
Q 2875 3388 2875 3009 
Q 2875 2731 2753 2481 
Q 2631 2231 2440 2026 
Q 2250 1822 1953 1562 
Q 1656 1303 1563 1216 
L 838 519 
L 1453 519 
Q 1906 519 2211 526 
Q 2516 534 2534 550 
Q 2609 631 2688 1141 
L 2875 1141 
L 2694 0 
L 319 0 
z
" transform="scale(0.015625)"/>
       <path id="Cmmi10-bc" d="M 647 109 
Q 647 144 672 213 
Q 850 584 1004 942 
Q 1159 1300 1282 1639 
Q 1406 1978 1509 2363 
L 1100 2363 
Q 866 2363 662 2216 
Q 459 2069 325 1844 
Q 313 1819 288 1819 
L 213 1819 
Q 153 1819 153 1881 
Q 153 1894 166 1919 
Q 375 2275 614 2517 
Q 853 2759 1153 2759 
L 3475 2759 
Q 3541 2759 3587 2715 
Q 3634 2672 3634 2597 
Q 3634 2503 3567 2433 
Q 3500 2363 3406 2363 
L 2591 2363 
Q 2488 1859 2478 1381 
Q 2478 766 2694 269 
Q 2713 231 2713 191 
Q 2713 122 2672 62 
Q 2631 3 2567 -34 
Q 2503 -72 2431 -72 
Q 2263 -72 2200 203 
Q 2138 478 2138 738 
Q 2138 1103 2200 1442 
Q 2263 1781 2400 2363 
L 1703 2363 
Q 1197 313 1094 103 
Q 1003 -72 844 -72 
Q 766 -72 706 -20 
Q 647 31 647 109 
z
" transform="scale(0.015625)"/>
       <path id="Cmr10-63" d="M 1594 -72 
Q 1206 -72 890 129 
Q 575 331 394 667 
Q 213 1003 213 1381 
Q 213 1759 392 2106 
Q 572 2453 889 2661 
Q 1206 2869 1594 2869 
Q 1969 2869 2276 2722 
Q 2584 2575 2584 2241 
Q 2584 2116 2495 2023 
Q 2406 1931 2278 1931 
Q 2150 1931 2061 2023 
Q 1972 2116 1972 2241 
Q 1972 2353 2044 2436 
Q 2116 2519 2222 2541 
Q 2000 2681 1600 2681 
Q 1294 2681 1106 2478 
Q 919 2275 844 1975 
Q 769 1675 769 1381 
Q 769 1072 861 783 
Q 953 494 1158 305 
Q 1363 116 1672 116 
Q 1975 116 2187 302 
Q 2400 488 2478 788 
Q 2478 825 2528 825 
L 2606 825 
Q 2625 825 2640 808 
Q 2656 791 2656 769 
L 2656 750 
Q 2559 372 2271 150 
Q 1984 -72 1594 -72 
z
" transform="scale(0.015625)"/>
       <path id="Cmr10-6f" d="M 1600 -72 
Q 1216 -72 887 123 
Q 559 319 368 647 
Q 178 975 178 1363 
Q 178 1656 283 1928 
Q 388 2200 583 2414 
Q 778 2628 1037 2748 
Q 1297 2869 1600 2869 
Q 1994 2869 2317 2661 
Q 2641 2453 2828 2104 
Q 3016 1756 3016 1363 
Q 3016 978 2825 648 
Q 2634 319 2307 123 
Q 1981 -72 1600 -72 
z
M 1600 116 
Q 2113 116 2284 487 
Q 2456 859 2456 1434 
Q 2456 1756 2422 1967 
Q 2388 2178 2272 2350 
Q 2200 2456 2089 2536 
Q 1978 2616 1854 2658 
Q 1731 2700 1600 2700 
Q 1400 2700 1220 2609 
Q 1041 2519 922 2350 
Q 803 2169 770 1951 
Q 738 1734 738 1434 
Q 738 1075 800 789 
Q 863 503 1052 309 
Q 1241 116 1600 116 
z
" transform="scale(0.015625)"/>
       <path id="Cmr10-73" d="M 213 -19 
L 213 1025 
Q 213 1075 269 1075 
L 347 1075 
Q 384 1075 397 1025 
Q 575 97 1259 97 
Q 1563 97 1767 234 
Q 1972 372 1972 659 
Q 1972 866 1812 1011 
Q 1653 1156 1434 1209 
L 1006 1294 
Q 791 1341 614 1437 
Q 438 1534 325 1695 
Q 213 1856 213 2069 
Q 213 2350 361 2529 
Q 509 2709 746 2789 
Q 984 2869 1259 2869 
Q 1588 2869 1831 2694 
L 2016 2853 
Q 2016 2869 2047 2869 
L 2094 2869 
Q 2113 2869 2128 2851 
Q 2144 2834 2144 2816 
L 2144 1978 
Q 2144 1919 2094 1919 
L 2016 1919 
Q 1959 1919 1959 1978 
Q 1959 2313 1773 2516 
Q 1588 2719 1253 2719 
Q 966 2719 755 2612 
Q 544 2506 544 2247 
Q 544 2069 695 1955 
Q 847 1841 1050 1791 
L 1484 1709 
Q 1703 1659 1892 1540 
Q 2081 1422 2192 1240 
Q 2303 1059 2303 831 
Q 2303 600 2223 429 
Q 2144 259 2001 146 
Q 1859 34 1665 -19 
Q 1472 -72 1259 -72 
Q 859 -72 575 197 
L 341 -56 
Q 341 -72 306 -72 
L 269 -72 
Q 213 -72 213 -19 
z
" transform="scale(0.015625)"/>
       <path id="Cmsy10-a1" d="M 653 1472 
Q 600 1472 565 1512 
Q 531 1553 531 1600 
Q 531 1647 565 1687 
Q 600 1728 653 1728 
L 4325 1728 
Q 4375 1728 4408 1687 
Q 4441 1647 4441 1600 
Q 4441 1553 4408 1512 
Q 4375 1472 4325 1472 
L 653 1472 
z
" transform="scale(0.015625)"/>
       <path id="Cmr10-33" d="M 609 494 
Q 759 275 1012 169 
Q 1266 63 1556 63 
Q 1928 63 2084 380 
Q 2241 697 2241 1100 
Q 2241 1281 2208 1462 
Q 2175 1644 2097 1800 
Q 2019 1956 1883 2050 
Q 1747 2144 1550 2144 
L 1125 2144 
Q 1069 2144 1069 2203 
L 1069 2259 
Q 1069 2309 1125 2309 
L 1478 2338 
Q 1703 2338 1851 2506 
Q 2000 2675 2069 2917 
Q 2138 3159 2138 3378 
Q 2138 3684 1994 3881 
Q 1850 4078 1556 4078 
Q 1313 4078 1091 3986 
Q 869 3894 738 3706 
Q 750 3709 759 3711 
Q 769 3713 781 3713 
Q 925 3713 1022 3613 
Q 1119 3513 1119 3372 
Q 1119 3234 1022 3134 
Q 925 3034 781 3034 
Q 641 3034 541 3134 
Q 441 3234 441 3372 
Q 441 3647 606 3850 
Q 772 4053 1033 4158 
Q 1294 4263 1556 4263 
Q 1750 4263 1965 4205 
Q 2181 4147 2356 4039 
Q 2531 3931 2642 3762 
Q 2753 3594 2753 3378 
Q 2753 3109 2633 2881 
Q 2513 2653 2303 2487 
Q 2094 2322 1844 2241 
Q 2122 2188 2372 2031 
Q 2622 1875 2773 1631 
Q 2925 1388 2925 1106 
Q 2925 753 2731 467 
Q 2538 181 2222 20 
Q 1906 -141 1556 -141 
Q 1256 -141 954 -26 
Q 653 88 461 316 
Q 269 544 269 863 
Q 269 1022 375 1128 
Q 481 1234 641 1234 
Q 744 1234 830 1186 
Q 916 1138 964 1050 
Q 1013 963 1013 863 
Q 1013 706 903 600 
Q 794 494 641 494 
L 609 494 
z
" transform="scale(0.015625)"/>
       <path id="Cmmi10-3d" d="M 359 -1472 
Q 359 -1453 366 -1447 
L 2591 4722 
Q 2603 4759 2634 4779 
Q 2666 4800 2706 4800 
Q 2763 4800 2798 4765 
Q 2834 4731 2834 4672 
L 2834 4647 
L 609 -1522 
Q 572 -1600 488 -1600 
Q 434 -1600 396 -1562 
Q 359 -1525 359 -1472 
z
" transform="scale(0.015625)"/>
       <path id="Cmr10-34" d="M 178 1056 
L 178 1281 
L 2156 4231 
Q 2178 4263 2222 4263 
L 2316 4263 
Q 2388 4263 2388 4191 
L 2388 1281 
L 3016 1281 
L 3016 1056 
L 2388 1056 
L 2388 428 
Q 2388 297 2575 261 
Q 2763 225 3009 225 
L 3009 0 
L 1247 0 
L 1247 225 
Q 1494 225 1681 261 
Q 1869 297 1869 428 
L 1869 1056 
L 178 1056 
z
M 391 1281 
L 1906 1281 
L 1906 3547 
L 391 1281 
z
" transform="scale(0.015625)"/>
      </defs>
      <use xlink:href="#Cmex10-71" transform="translate(0 112.859375) scale(0.782542)"/>
      <use xlink:href="#Cmr10-32" transform="translate(112.75 38.123437) scale(0.7)"/>
      <use xlink:href="#Cmmi10-bc" transform="translate(90.75 -24.057813) scale(0.7)"/>
      <use xlink:href="#Cmmi10-78" transform="translate(130.637695 -24.057813) scale(0.7)"/>
      <use xlink:href="#Cmr10-63" transform="translate(195.59375 0.625)"/>
      <use xlink:href="#Cmr10-6f" transform="translate(239.978516 0.625)"/>
      <use xlink:href="#Cmr10-73" transform="translate(289.978516 0.625)"/>
      <use xlink:href="#Cmr10-28" transform="translate(329.382812 0.625)"/>
      <use xlink:href="#Cmmi10-78" transform="translate(368.201172 0.625)"/>
      <use xlink:href="#Cmsy10-a1" transform="translate(442.839844 0.625)"/>
      <use xlink:href="#Cmr10-33" transform="translate(538.083984 0.625)"/>
      <use xlink:href="#Cmmi10-bc" transform="translate(588.083984 0.625)"/>
      <use xlink:href="#Cmmi10-3d" transform="translate(645.066406 0.625)"/>
      <use xlink:href="#Cmr10-34" transform="translate(695.066406 0.625)"/>
      <use xlink:href="#Cmr10-29" transform="translate(745.066406 0.625)"/>
      <path d="M 78.25 109.5 
L 78.25 115.75 
L 195.59375 115.75 
L 195.59375 109.5 
L 78.25 109.5 
z
"/>
      <path d="M 90.75 13.123437 
L 90.75 19.373437 
L 170.59375 19.373437 
L 170.59375 13.123437 
L 90.75 13.123437 
z
"/>
     </g>
    </g>
   </g>
  </g>
 </g>
 <defs>
  <clipPath id="p5237e42cf4">
   <rect x="22.430183" y="7.2" width="421.500724" height="324"/>
  </clipPath>
 </defs>
</svg>
