<?xml version="1.0" encoding="utf-8" standalone="no"?>
<!DOCTYPE svg PUBLIC "-//W3C//DTD SVG 1.1//EN"
  "http://www.w3.org/Graphics/SVG/1.1/DTD/svg11.dtd">
<svg xmlns:xlink="http://www.w3.org/1999/xlink" width="453.6pt" height="336.764737pt" viewBox="0 0 453.6 336.764737" xmlns="http://www.w3.org/2000/svg" version="1.1">
 <metadata>
  <rdf:RDF xmlns:dc="http://purl.org/dc/elements/1.1/" xmlns:cc="http://creativecommons.org/ns#" xmlns:rdf="http://www.w3.org/1999/02/22-rdf-syntax-ns#">
   <cc:Work>
    <dc:type rdf:resource="http://purl.org/dc/dcmitype/StillImage"/>
    <dc:date>2022-03-16T16:50:39.849009</dc:date>
    <dc:format>image/svg+xml</dc:format>
    <dc:creator>
     <cc:Agent>
      <dc:title>Matplotlib v3.5.1, https://matplotlib.org/</dc:title>
     </cc:Agent>
    </dc:creator>
   </cc:Work>
  </rdf:RDF>
 </metadata>
 <defs>
  <style type="text/css">*{stroke-linejoin: round; stroke-linecap: butt}</style>
 </defs>
 <g id="figure_1">
  <g id="patch_1">
   <path d="M 0 336.764737 
L 453.6 336.764737 
L 453.6 0 
L 0 0 
z
" style="fill: #ffffff"/>
  </g>
  <g id="axes_1">
   <g id="patch_2">
    <path d="M 7.2 327.565487 
L 446.4 327.565487 
L 446.4 7.2 
L 7.2 7.2 
z
" style="fill: #ffffff"/>
   </g>
   <g id="matplotlib.axis_1">
    <g id="xtick_1">
     <g id="line2d_1">
      <defs>
       <path id="m46664a138d" d="M 0 0 
L 0 3.5 
" style="stroke: #000000; stroke-width: 0.8"/>
      </defs>
      <g>
       <use xlink:href="#m46664a138d" x="114.779405" y="167.382867" style="stroke: #000000; stroke-width: 0.8"/>
      </g>
     </g>
     <g id="text_1">
      <!-- −5 -->
      <g transform="translate(107.408312 181.981304)scale(0.1 -0.1)">
       <defs>
        <path id="DejaVuSans-2212" d="M 678 2272 
L 4684 2272 
L 4684 1741 
L 678 1741 
L 678 2272 
z
" transform="scale(0.015625)"/>
        <path id="DejaVuSans-35" d="M 691 4666 
L 3169 4666 
L 3169 4134 
L 1269 4134 
L 1269 2991 
Q 1406 3038 1543 3061 
Q 1681 3084 1819 3084 
Q 2600 3084 3056 2656 
Q 3513 2228 3513 1497 
Q 3513 744 3044 326 
Q 2575 -91 1722 -91 
Q 1428 -91 1123 -41 
Q 819 9 494 109 
L 494 744 
Q 775 591 1075 516 
Q 1375 441 1709 441 
Q 2250 441 2565 725 
Q 2881 1009 2881 1497 
Q 2881 1984 2565 2268 
Q 2250 2553 1709 2553 
Q 1456 2553 1204 2497 
Q 953 2441 691 2322 
L 691 4666 
z
" transform="scale(0.015625)"/>
       </defs>
       <use xlink:href="#DejaVuSans-2212"/>
       <use xlink:href="#DejaVuSans-35" x="83.789062"/>
      </g>
     </g>
    </g>
    <g id="xtick_2">
     <g id="line2d_2">
      <g>
       <use xlink:href="#m46664a138d" x="226.8" y="167.382867" style="stroke: #000000; stroke-width: 0.8"/>
      </g>
     </g>
    </g>
    <g id="xtick_3">
     <g id="line2d_3">
      <g>
       <use xlink:href="#m46664a138d" x="338.820595" y="167.382867" style="stroke: #000000; stroke-width: 0.8"/>
      </g>
     </g>
     <g id="text_2">
      <!-- 5 -->
      <g transform="translate(335.639345 181.981304)scale(0.1 -0.1)">
       <use xlink:href="#DejaVuSans-35"/>
      </g>
     </g>
    </g>
    <g id="xtick_4">
     <g id="line2d_4">
      <defs>
       <path id="mc532b34972" d="M 0 0 
L 0 2 
" style="stroke: #000000; stroke-width: 0.6"/>
      </defs>
      <g>
       <use xlink:href="#mc532b34972" x="25.16293" y="167.382867" style="stroke: #000000; stroke-width: 0.6"/>
      </g>
     </g>
    </g>
    <g id="xtick_5">
     <g id="line2d_5">
      <g>
       <use xlink:href="#mc532b34972" x="47.567049" y="167.382867" style="stroke: #000000; stroke-width: 0.6"/>
      </g>
     </g>
    </g>
    <g id="xtick_6">
     <g id="line2d_6">
      <g>
       <use xlink:href="#mc532b34972" x="69.971168" y="167.382867" style="stroke: #000000; stroke-width: 0.6"/>
      </g>
     </g>
    </g>
    <g id="xtick_7">
     <g id="line2d_7">
      <g>
       <use xlink:href="#mc532b34972" x="92.375287" y="167.382867" style="stroke: #000000; stroke-width: 0.6"/>
      </g>
     </g>
    </g>
    <g id="xtick_8">
     <g id="line2d_8">
      <g>
       <use xlink:href="#mc532b34972" x="137.183524" y="167.382867" style="stroke: #000000; stroke-width: 0.6"/>
      </g>
     </g>
    </g>
    <g id="xtick_9">
     <g id="line2d_9">
      <g>
       <use xlink:href="#mc532b34972" x="159.587643" y="167.382867" style="stroke: #000000; stroke-width: 0.6"/>
      </g>
     </g>
    </g>
    <g id="xtick_10">
     <g id="line2d_10">
      <g>
       <use xlink:href="#mc532b34972" x="181.991762" y="167.382867" style="stroke: #000000; stroke-width: 0.6"/>
      </g>
     </g>
    </g>
    <g id="xtick_11">
     <g id="line2d_11">
      <g>
       <use xlink:href="#mc532b34972" x="204.395881" y="167.382867" style="stroke: #000000; stroke-width: 0.6"/>
      </g>
     </g>
    </g>
    <g id="xtick_12">
     <g id="line2d_12">
      <g>
       <use xlink:href="#mc532b34972" x="249.204119" y="167.382867" style="stroke: #000000; stroke-width: 0.6"/>
      </g>
     </g>
    </g>
    <g id="xtick_13">
     <g id="line2d_13">
      <g>
       <use xlink:href="#mc532b34972" x="271.608238" y="167.382867" style="stroke: #000000; stroke-width: 0.6"/>
      </g>
     </g>
    </g>
    <g id="xtick_14">
     <g id="line2d_14">
      <g>
       <use xlink:href="#mc532b34972" x="294.012357" y="167.382867" style="stroke: #000000; stroke-width: 0.6"/>
      </g>
     </g>
    </g>
    <g id="xtick_15">
     <g id="line2d_15">
      <g>
       <use xlink:href="#mc532b34972" x="316.416476" y="167.382867" style="stroke: #000000; stroke-width: 0.6"/>
      </g>
     </g>
    </g>
    <g id="xtick_16">
     <g id="line2d_16">
      <g>
       <use xlink:href="#mc532b34972" x="361.224713" y="167.382867" style="stroke: #000000; stroke-width: 0.6"/>
      </g>
     </g>
    </g>
    <g id="xtick_17">
     <g id="line2d_17">
      <g>
       <use xlink:href="#mc532b34972" x="383.628832" y="167.382867" style="stroke: #000000; stroke-width: 0.6"/>
      </g>
     </g>
    </g>
    <g id="xtick_18">
     <g id="line2d_18">
      <g>
       <use xlink:href="#mc532b34972" x="406.032951" y="167.382867" style="stroke: #000000; stroke-width: 0.6"/>
      </g>
     </g>
    </g>
    <g id="xtick_19">
     <g id="line2d_19">
      <g>
       <use xlink:href="#mc532b34972" x="428.43707" y="167.382867" style="stroke: #000000; stroke-width: 0.6"/>
      </g>
     </g>
    </g>
   </g>
   <g id="matplotlib.axis_2">
    <g id="ytick_1">
     <g id="line2d_20">
      <defs>
       <path id="mf965cc7b82" d="M 0 0 
L -3.5 0 
" style="stroke: #000000; stroke-width: 0.8"/>
      </defs>
      <g>
       <use xlink:href="#mf965cc7b82" x="226.8" y="323.685831" style="stroke: #000000; stroke-width: 0.8"/>
      </g>
     </g>
     <g id="text_3">
      <!-- −6 -->
      <g transform="translate(205.057812 327.48505)scale(0.1 -0.1)">
       <defs>
        <path id="DejaVuSans-36" d="M 2113 2584 
Q 1688 2584 1439 2293 
Q 1191 2003 1191 1497 
Q 1191 994 1439 701 
Q 1688 409 2113 409 
Q 2538 409 2786 701 
Q 3034 994 3034 1497 
Q 3034 2003 2786 2293 
Q 2538 2584 2113 2584 
z
M 3366 4563 
L 3366 3988 
Q 3128 4100 2886 4159 
Q 2644 4219 2406 4219 
Q 1781 4219 1451 3797 
Q 1122 3375 1075 2522 
Q 1259 2794 1537 2939 
Q 1816 3084 2150 3084 
Q 2853 3084 3261 2657 
Q 3669 2231 3669 1497 
Q 3669 778 3244 343 
Q 2819 -91 2113 -91 
Q 1303 -91 875 529 
Q 447 1150 447 2328 
Q 447 3434 972 4092 
Q 1497 4750 2381 4750 
Q 2619 4750 2861 4703 
Q 3103 4656 3366 4563 
z
" transform="scale(0.015625)"/>
       </defs>
       <use xlink:href="#DejaVuSans-2212"/>
       <use xlink:href="#DejaVuSans-36" x="83.789062"/>
      </g>
     </g>
    </g>
    <g id="ytick_2">
     <g id="line2d_21">
      <g>
       <use xlink:href="#mf965cc7b82" x="226.8" y="271.584843" style="stroke: #000000; stroke-width: 0.8"/>
      </g>
     </g>
     <g id="text_4">
      <!-- −4 -->
      <g transform="translate(205.057812 275.384062)scale(0.1 -0.1)">
       <defs>
        <path id="DejaVuSans-34" d="M 2419 4116 
L 825 1625 
L 2419 1625 
L 2419 4116 
z
M 2253 4666 
L 3047 4666 
L 3047 1625 
L 3713 1625 
L 3713 1100 
L 3047 1100 
L 3047 0 
L 2419 0 
L 2419 1100 
L 313 1100 
L 313 1709 
L 2253 4666 
z
" transform="scale(0.015625)"/>
       </defs>
       <use xlink:href="#DejaVuSans-2212"/>
       <use xlink:href="#DejaVuSans-34" x="83.789062"/>
      </g>
     </g>
    </g>
    <g id="ytick_3">
     <g id="line2d_22">
      <g>
       <use xlink:href="#mf965cc7b82" x="226.8" y="219.483855" style="stroke: #000000; stroke-width: 0.8"/>
      </g>
     </g>
     <g id="text_5">
      <!-- −2 -->
      <g transform="translate(205.057812 223.283074)scale(0.1 -0.1)">
       <defs>
        <path id="DejaVuSans-32" d="M 1228 531 
L 3431 531 
L 3431 0 
L 469 0 
L 469 531 
Q 828 903 1448 1529 
Q 2069 2156 2228 2338 
Q 2531 2678 2651 2914 
Q 2772 3150 2772 3378 
Q 2772 3750 2511 3984 
Q 2250 4219 1831 4219 
Q 1534 4219 1204 4116 
Q 875 4013 500 3803 
L 500 4441 
Q 881 4594 1212 4672 
Q 1544 4750 1819 4750 
Q 2544 4750 2975 4387 
Q 3406 4025 3406 3419 
Q 3406 3131 3298 2873 
Q 3191 2616 2906 2266 
Q 2828 2175 2409 1742 
Q 1991 1309 1228 531 
z
" transform="scale(0.015625)"/>
       </defs>
       <use xlink:href="#DejaVuSans-2212"/>
       <use xlink:href="#DejaVuSans-32" x="83.789062"/>
      </g>
     </g>
    </g>
    <g id="ytick_4">
     <g id="line2d_23">
      <g>
       <use xlink:href="#mf965cc7b82" x="226.8" y="167.382867" style="stroke: #000000; stroke-width: 0.8"/>
      </g>
     </g>
    </g>
    <g id="ytick_5">
     <g id="line2d_24">
      <g>
       <use xlink:href="#mf965cc7b82" x="226.8" y="115.281879" style="stroke: #000000; stroke-width: 0.8"/>
      </g>
     </g>
     <g id="text_6">
      <!-- 2 -->
      <g transform="translate(213.4375 119.081097)scale(0.1 -0.1)">
       <use xlink:href="#DejaVuSans-32"/>
      </g>
     </g>
    </g>
    <g id="ytick_6">
     <g id="line2d_25">
      <g>
       <use xlink:href="#mf965cc7b82" x="226.8" y="63.180891" style="stroke: #000000; stroke-width: 0.8"/>
      </g>
     </g>
     <g id="text_7">
      <!-- 4 -->
      <g transform="translate(213.4375 66.980109)scale(0.1 -0.1)">
       <use xlink:href="#DejaVuSans-34"/>
      </g>
     </g>
    </g>
    <g id="ytick_7">
     <g id="line2d_26">
      <g>
       <use xlink:href="#mf965cc7b82" x="226.8" y="11.079903" style="stroke: #000000; stroke-width: 0.8"/>
      </g>
     </g>
     <g id="text_8">
      <!-- 6 -->
      <g transform="translate(213.4375 14.879121)scale(0.1 -0.1)">
       <use xlink:href="#DejaVuSans-36"/>
      </g>
     </g>
    </g>
    <g id="ytick_8">
     <g id="line2d_27">
      <defs>
       <path id="mcbee5c5d4b" d="M 0 0 
L -2 0 
" style="stroke: #000000; stroke-width: 0.6"/>
      </defs>
      <g>
       <use xlink:href="#mcbee5c5d4b" x="226.8" y="310.660584" style="stroke: #000000; stroke-width: 0.6"/>
      </g>
     </g>
    </g>
    <g id="ytick_9">
     <g id="line2d_28">
      <g>
       <use xlink:href="#mcbee5c5d4b" x="226.8" y="297.635337" style="stroke: #000000; stroke-width: 0.6"/>
      </g>
     </g>
    </g>
    <g id="ytick_10">
     <g id="line2d_29">
      <g>
       <use xlink:href="#mcbee5c5d4b" x="226.8" y="284.61009" style="stroke: #000000; stroke-width: 0.6"/>
      </g>
     </g>
    </g>
    <g id="ytick_11">
     <g id="line2d_30">
      <g>
       <use xlink:href="#mcbee5c5d4b" x="226.8" y="258.559596" style="stroke: #000000; stroke-width: 0.6"/>
      </g>
     </g>
    </g>
    <g id="ytick_12">
     <g id="line2d_31">
      <g>
       <use xlink:href="#mcbee5c5d4b" x="226.8" y="245.534349" style="stroke: #000000; stroke-width: 0.6"/>
      </g>
     </g>
    </g>
    <g id="ytick_13">
     <g id="line2d_32">
      <g>
       <use xlink:href="#mcbee5c5d4b" x="226.8" y="232.509102" style="stroke: #000000; stroke-width: 0.6"/>
      </g>
     </g>
    </g>
    <g id="ytick_14">
     <g id="line2d_33">
      <g>
       <use xlink:href="#mcbee5c5d4b" x="226.8" y="206.458608" style="stroke: #000000; stroke-width: 0.6"/>
      </g>
     </g>
    </g>
    <g id="ytick_15">
     <g id="line2d_34">
      <g>
       <use xlink:href="#mcbee5c5d4b" x="226.8" y="193.433361" style="stroke: #000000; stroke-width: 0.6"/>
      </g>
     </g>
    </g>
    <g id="ytick_16">
     <g id="line2d_35">
      <g>
       <use xlink:href="#mcbee5c5d4b" x="226.8" y="180.408114" style="stroke: #000000; stroke-width: 0.6"/>
      </g>
     </g>
    </g>
    <g id="ytick_17">
     <g id="line2d_36">
      <g>
       <use xlink:href="#mcbee5c5d4b" x="226.8" y="154.35762" style="stroke: #000000; stroke-width: 0.6"/>
      </g>
     </g>
    </g>
    <g id="ytick_18">
     <g id="line2d_37">
      <g>
       <use xlink:href="#mcbee5c5d4b" x="226.8" y="141.332373" style="stroke: #000000; stroke-width: 0.6"/>
      </g>
     </g>
    </g>
    <g id="ytick_19">
     <g id="line2d_38">
      <g>
       <use xlink:href="#mcbee5c5d4b" x="226.8" y="128.307126" style="stroke: #000000; stroke-width: 0.6"/>
      </g>
     </g>
    </g>
    <g id="ytick_20">
     <g id="line2d_39">
      <g>
       <use xlink:href="#mcbee5c5d4b" x="226.8" y="102.256632" style="stroke: #000000; stroke-width: 0.6"/>
      </g>
     </g>
    </g>
    <g id="ytick_21">
     <g id="line2d_40">
      <g>
       <use xlink:href="#mcbee5c5d4b" x="226.8" y="89.231385" style="stroke: #000000; stroke-width: 0.6"/>
      </g>
     </g>
    </g>
    <g id="ytick_22">
     <g id="line2d_41">
      <g>
       <use xlink:href="#mcbee5c5d4b" x="226.8" y="76.206138" style="stroke: #000000; stroke-width: 0.6"/>
      </g>
     </g>
    </g>
    <g id="ytick_23">
     <g id="line2d_42">
      <g>
       <use xlink:href="#mcbee5c5d4b" x="226.8" y="50.155644" style="stroke: #000000; stroke-width: 0.6"/>
      </g>
     </g>
    </g>
    <g id="ytick_24">
     <g id="line2d_43">
      <g>
       <use xlink:href="#mcbee5c5d4b" x="226.8" y="37.130397" style="stroke: #000000; stroke-width: 0.6"/>
      </g>
     </g>
    </g>
    <g id="ytick_25">
     <g id="line2d_44">
      <g>
       <use xlink:href="#mcbee5c5d4b" x="226.8" y="24.10515" style="stroke: #000000; stroke-width: 0.6"/>
      </g>
     </g>
    </g>
   </g>
   <g id="line2d_45">
    <path d="M 15.646154 193.433361 
L 17.50237 159.187352 
L 22.115348 71.443444 
L 23.597 48.193739 
L 24.749397 33.525636 
L 25.695043 24.204965 
L 26.483082 18.530336 
L 27.113513 15.455254 
L 27.482132 14.283348 
L 27.904155 13.521394 
L 28.115166 13.375116 
L 28.309606 13.379793 
L 28.698486 13.792136 
L 29.087366 14.74306 
L 29.670686 17.177374 
L 30.364197 21.628501 
L 31.057709 27.729895 
L 31.982391 38.314715 
L 32.907073 51.494412 
L 34.137732 72.56113 
L 35.656756 102.955192 
L 37.326207 139.879435 
L 40.970726 220.568382 
L 42.454849 248.712139 
L 43.639748 267.69853 
L 44.721228 281.829346 
L 45.655965 291.358336 
L 46.374406 296.917646 
L 47.092848 300.92031 
L 47.631678 302.902706 
L 48.081573 303.896077 
L 48.487 304.283651 
L 48.757285 304.279326 
L 49.126238 303.940848 
L 49.593858 302.973819 
L 50.061478 301.425613 
L 50.762908 298.0679 
L 51.453503 293.629369 
L 52.316746 286.652435 
L 53.17999 278.283286 
L 54.575324 262.373307 
L 56.482306 237.377695 
L 62.632931 153.568645 
L 64.564438 130.95809 
L 66.420405 111.737325 
L 68.316924 94.673673 
L 69.754046 83.500067 
L 71.110523 74.420454 
L 72.225062 68.128439 
L 73.421607 62.695701 
L 74.14289 60.162349 
L 74.826046 58.332855 
L 75.471073 57.157274 
L 76.116101 56.55964 
L 76.438615 56.490654 
L 76.761129 56.581877 
L 77.083643 56.838485 
L 77.593905 57.594649 
L 78.104167 58.796867 
L 78.784516 61.124861 
L 79.464866 64.316359 
L 80.201444 68.781611 
L 80.993996 74.790871 
L 81.984364 84.080148 
L 83.172806 97.815204 
L 84.437759 115.387415 
L 85.779221 136.9869 
L 87.577643 169.656353 
L 93.081048 272.94905 
L 94.284135 290.745003 
L 95.421455 304.348805 
L 96.369222 312.875697 
L 97.127435 317.663833 
L 97.594432 319.661787 
L 98.061429 320.911311 
L 98.464008 321.376891 
L 98.665297 321.395126 
L 98.866586 321.26957 
L 99.269164 320.585839 
L 99.671742 319.324906 
L 100.275609 316.356278 
L 100.879477 312.112166 
L 101.725903 304.080079 
L 102.655104 292.610874 
L 103.816604 274.740947 
L 105.210404 248.946951 
L 106.808064 215.161778 
L 112.039185 100.697006 
L 113.514688 74.810565 
L 114.566614 59.578864 
L 115.615532 47.422643 
L 116.467276 39.918436 
L 117.276501 34.808074 
L 117.923882 32.141323 
L 118.409417 30.96213 
L 118.733107 30.560938 
L 119.056797 30.462617 
L 119.380336 30.661738 
L 119.703875 31.152157 
L 120.189183 32.419004 
L 120.836261 35.059014 
L 121.483339 38.72174 
L 122.290198 44.603404 
L 123.257831 53.362443 
L 124.631824 68.425705 
L 126.331181 90.100394 
L 129.914017 140.115207 
L 132.56996 175.598269 
L 134.732993 201.408501 
L 136.759873 222.590453 
L 138.504268 238.438863 
L 140.324365 252.595386 
L 141.769352 261.995804 
L 143.084156 268.96507 
L 144.012765 272.855651 
L 144.960453 275.830166 
L 145.617683 277.239755 
L 146.274912 278.065247 
L 146.603527 278.245162 
L 146.932142 278.262449 
L 147.443647 277.952775 
L 147.992319 277.144527 
L 148.540991 275.819974 
L 149.089663 273.956655 
L 149.821225 270.599547 
L 150.600281 265.887375 
L 151.495377 258.982673 
L 152.459019 249.743013 
L 153.583269 236.621167 
L 154.86635 218.716047 
L 156.408245 193.557847 
L 158.219952 160.180532 
L 162.636138 75.731279 
L 164.11315 51.847321 
L 165.285171 36.219236 
L 166.222788 26.333561 
L 167.080386 19.598224 
L 167.697928 16.218093 
L 168.161083 14.526994 
L 168.624239 13.578006 
L 168.93301 13.363723 
L 169.24178 13.487074 
L 169.577352 14.005691 
L 170.032391 15.349626 
L 170.580096 17.941612 
L 171.264728 22.658696 
L 171.949359 28.973667 
L 172.834152 39.389334 
L 173.86641 54.500785 
L 175.103427 76.24948 
L 176.692668 108.668675 
L 180.112911 185.692927 
L 182.241716 230.556531 
L 183.586013 254.873154 
L 184.76516 272.706902 
L 185.82917 285.577699 
L 186.717696 293.808902 
L 187.458135 298.861635 
L 188.098944 301.898891 
L 188.591665 303.3969 
L 188.920145 303.996229 
L 189.17714 304.245394 
L 189.434134 304.304198 
L 189.691129 304.17531 
L 189.948123 303.861703 
L 190.462112 302.693689 
L 191.14867 300.05336 
L 191.838944 296.229044 
L 192.701788 289.942203 
L 193.7372 280.456027 
L 194.840303 268.416827 
L 196.517686 247.3169 
L 197.827368 229.397069 
L 202.456274 165.546937 
L 204.528919 140.062826 
L 206.520024 118.384399 
L 208.402056 100.527971 
L 209.786876 89.032684 
L 211.151197 79.112757 
L 212.527842 70.625638 
L 213.675045 64.858378 
L 214.578532 61.260271 
L 215.477259 58.607224 
L 216.01128 57.510661 
L 216.629957 56.724462 
L 217.141755 56.49191 
L 217.546675 56.590844 
L 217.951595 56.950877 
L 218.356515 57.582022 
L 218.799514 58.594464 
L 219.521132 60.993839 
L 220.242751 64.362662 
L 220.964369 68.738836 
L 221.926526 76.186146 
L 222.895409 85.572075 
L 224.114921 100.042426 
L 225.439674 118.928771 
L 226.997865 144.808398 
L 228.805815 178.464101 
L 233.173781 261.686935 
L 234.533578 283.444123 
L 235.665791 298.499116 
L 236.609302 308.4496 
L 237.364111 314.496029 
L 238.09904 318.62045 
L 238.673773 320.575985 
L 239.075101 321.262044 
L 239.342652 321.404613 
L 239.610204 321.293544 
L 239.877756 320.92789 
L 240.279083 319.901291 
L 240.680411 318.301902 
L 241.242035 315.109323 
L 241.990867 309.152877 
L 242.7397 301.322315 
L 243.67574 289.059822 
L 244.709286 272.632923 
L 245.818525 252.134308 
L 247.507459 216.704549 
L 252.830637 100.272719 
L 254.27349 74.975868 
L 255.318685 59.803592 
L 256.285122 48.441058 
L 257.251558 39.805346 
L 258.052219 34.775099 
L 258.714614 32.0743 
L 259.156211 31.001282 
L 259.597807 30.500669 
L 259.896259 30.480771 
L 260.194711 30.712826 
L 260.642389 31.5226 
L 261.090067 32.869768 
L 261.68697 35.465461 
L 262.280364 38.900821 
L 263.16519 45.474764 
L 264.15372 54.632004 
L 265.142249 65.387563 
L 266.681781 84.529501 
L 269.288948 120.517652 
L 272.811233 168.834463 
L 274.732446 192.591031 
L 276.51811 212.396474 
L 278.438818 231.13057 
L 280.021977 244.559906 
L 281.437934 254.989588 
L 282.940404 264.295357 
L 284.122492 270.185746 
L 285.068163 273.865051 
L 285.777416 275.951267 
L 286.53637 277.480363 
L 287.010404 278.03779 
L 287.452503 278.264513 
L 287.894601 278.194459 
L 288.3367 277.814259 
L 288.778799 277.110869 
L 289.441947 275.422579 
L 290.105095 272.939956 
L 290.881883 268.97622 
L 291.758377 263.085429 
L 292.634871 255.654229 
L 293.807403 243.29364 
L 294.907863 229.239582 
L 296.228415 209.474328 
L 297.875 181.100682 
L 300.123658 138.079848 
L 303.29586 77.650995 
L 304.875288 51.951777 
L 305.981495 37.090604 
L 306.929673 26.911798 
L 307.701269 20.596932 
L 308.472865 16.192805 
L 308.954075 14.46013 
L 309.435285 13.529299 
L 309.756091 13.360875 
L 309.992949 13.47053 
L 310.348234 14.009235 
L 310.70352 14.99758 
L 311.177234 17.013055 
L 311.887806 21.515683 
L 312.598377 27.751881 
L 313.545806 38.637458 
L 314.641742 54.598852 
L 315.943952 77.607821 
L 317.63037 112.323011 
L 323.654716 242.681142 
L 324.900279 263.558284 
L 325.938248 277.968113 
L 326.90076 288.641304 
L 327.721747 295.590368 
L 328.405903 299.832256 
L 328.929706 302.125552 
L 329.316679 303.291951 
L 329.782865 304.109054 
L 330.015959 304.280005 
L 330.249052 304.294921 
L 330.482145 304.155847 
L 330.948331 303.424919 
L 331.409747 302.123915 
L 332.094714 299.181962 
L 332.779682 295.107565 
L 333.692972 288.076397 
L 334.834584 277.062976 
L 336.136464 262.094661 
L 337.845452 239.779483 
L 344.38239 150.974284 
L 346.29613 128.840833 
L 348.070996 110.655993 
L 349.925404 94.093743 
L 351.589739 81.384666 
L 353.033743 72.123018 
L 354.229061 65.842478 
L 355.424379 60.996674 
L 356.310101 58.457123 
L 357.017202 57.146694 
L 357.370753 56.748713 
L 357.724303 56.531409 
L 358.254629 56.559356 
L 358.608179 56.823921 
L 359.138505 57.606424 
L 359.66765 58.867618 
L 360.196794 60.628931 
L 360.990511 64.248053 
L 361.90716 69.944949 
L 362.885275 77.873006 
L 363.86339 87.730678 
L 365.113895 103.08959 
L 366.496133 123.423954 
L 367.930263 147.711314 
L 369.917523 185.114391 
L 373.750386 258.342321 
L 375.151596 281.205388 
L 376.323653 297.161179 
L 377.262176 307.361681 
L 378.012993 313.652123 
L 378.765785 318.153241 
L 379.268961 320.103835 
L 379.646344 320.994098 
L 380.023726 321.385593 
L 380.275315 321.366986 
L 380.613584 320.987467 
L 381.038535 319.933123 
L 381.463486 318.236543 
L 382.100912 314.497691 
L 382.738339 309.352825 
L 383.58824 300.387209 
L 384.619726 286.484789 
L 385.681358 269.08919 
L 387.167642 240.447771 
L 388.825834 204.462668 
L 393.127406 109.492769 
L 394.591675 82.3783 
L 395.832493 63.24403 
L 396.797574 51.199143 
L 397.724452 42.157137 
L 398.41961 37.057703 
L 399.114768 33.416566 
L 399.578207 31.796448 
L 400.041645 30.814474 
L 400.505084 30.459862 
L 400.787902 30.545735 
L 401.070719 30.856138 
L 401.560815 31.912844 
L 402.050911 33.605514 
L 402.786054 37.273628 
L 403.521198 42.199057 
L 404.50139 50.512095 
L 405.601346 61.861377 
L 406.952533 78.073374 
L 408.626301 100.434695 
L 414.125312 175.811846 
L 416.027109 198.655073 
L 417.86725 218.334335 
L 419.587988 234.519952 
L 421.289418 248.404032 
L 422.779995 258.761794 
L 424.080687 266.288738 
L 425.152181 271.295894 
L 425.988203 274.35908 
L 426.759763 276.456738 
L 427.402403 277.619844 
L 427.830829 278.078803 
L 428.259255 278.270281 
L 428.687682 278.181982 
L 429.116108 277.80175 
L 429.544534 277.11773 
L 429.972961 276.118521 
L 430.634611 273.931318 
L 431.296262 270.931013 
L 432.123325 265.99224 
L 433.078596 258.595057 
L 433.99666 249.751683 
L 435.040645 237.650124 
L 436.31517 220.062531 
L 437.589696 199.696125 
L 437.953846 193.433361 
L 437.953846 193.433361 
" clip-path="url(#p0eacfd6f0e)" style="fill: none; stroke: #0000ff; stroke-linecap: square"/>
   </g>
   <g id="patch_3">
    <path d="M 226.8 327.565487 
L 226.8 7.2 
" style="fill: none; stroke: #000000; stroke-width: 0.8; stroke-linejoin: miter; stroke-linecap: square"/>
   </g>
   <g id="patch_4">
    <path d="M 7.2 167.382867 
L 446.4 167.382867 
" style="fill: none; stroke: #000000; stroke-width: 0.8; stroke-linejoin: miter; stroke-linecap: square"/>
   </g>
  </g>
 </g>
 <defs>
  <clipPath id="p0eacfd6f0e">
   <rect x="7.2" y="7.2" width="439.2" height="320.365487"/>
  </clipPath>
 </defs>
</svg>
