<?xml version="1.0" encoding="utf-8" standalone="no"?>
<!DOCTYPE svg PUBLIC "-//W3C//DTD SVG 1.1//EN"
  "http://www.w3.org/Graphics/SVG/1.1/DTD/svg11.dtd">
<svg xmlns:xlink="http://www.w3.org/1999/xlink" width="451.130907pt" height="338.4pt" viewBox="0 0 451.130907 338.4" xmlns="http://www.w3.org/2000/svg" version="1.1">
 <metadata>
  <rdf:RDF xmlns:dc="http://purl.org/dc/elements/1.1/" xmlns:cc="http://creativecommons.org/ns#" xmlns:rdf="http://www.w3.org/1999/02/22-rdf-syntax-ns#">
   <cc:Work>
    <dc:type rdf:resource="http://purl.org/dc/dcmitype/StillImage"/>
    <dc:date>2023-10-12T22:55:33.814227</dc:date>
    <dc:format>image/svg+xml</dc:format>
    <dc:creator>
     <cc:Agent>
      <dc:title>Matplotlib v3.6.2, https://matplotlib.org/</dc:title>
     </cc:Agent>
    </dc:creator>
   </cc:Work>
  </rdf:RDF>
 </metadata>
 <defs>
  <style type="text/css">*{stroke-linejoin: round; stroke-linecap: butt}</style>
 </defs>
 <g id="figure_1">
  <g id="patch_1">
   <path d="M 0 338.4 
L 451.130907 338.4 
L 451.130907 0 
L 0 0 
z
" style="fill: #ffffff"/>
  </g>
  <g id="axes_1">
   <g id="patch_2">
    <path d="M 22.430183 331.2 
L 443.930907 331.2 
L 443.930907 7.2 
L 22.430183 7.2 
z
" style="fill: #ffffff"/>
   </g>
   <g id="matplotlib.axis_1">
    <g id="xtick_1">
     <g id="line2d_1">
      <defs>
       <path id="m4200af1773" d="M 0 0 
L 0 3.5 
" style="stroke: #000000; stroke-width: 0.8"/>
      </defs>
      <g>
       <use xlink:href="#m4200af1773" x="38.482813" y="90.935726" style="stroke: #000000; stroke-width: 0.8"/>
      </g>
     </g>
    </g>
    <g id="xtick_2">
     <g id="line2d_2">
      <g>
       <use xlink:href="#m4200af1773" x="117.951275" y="90.935726" style="stroke: #000000; stroke-width: 0.8"/>
      </g>
     </g>
     <g id="text_1">
      <!-- 10 -->
      <g transform="translate(111.588775 105.534164) scale(0.1 -0.1)">
       <defs>
        <path id="DejaVuSans-31" d="M 794 531 
L 1825 531 
L 1825 4091 
L 703 3866 
L 703 4441 
L 1819 4666 
L 2450 4666 
L 2450 531 
L 3481 531 
L 3481 0 
L 794 0 
L 794 531 
z
" transform="scale(0.015625)"/>
        <path id="DejaVuSans-30" d="M 2034 4250 
Q 1547 4250 1301 3770 
Q 1056 3291 1056 2328 
Q 1056 1369 1301 889 
Q 1547 409 2034 409 
Q 2525 409 2770 889 
Q 3016 1369 3016 2328 
Q 3016 3291 2770 3770 
Q 2525 4250 2034 4250 
z
M 2034 4750 
Q 2819 4750 3233 4129 
Q 3647 3509 3647 2328 
Q 3647 1150 3233 529 
Q 2819 -91 2034 -91 
Q 1250 -91 836 529 
Q 422 1150 422 2328 
Q 422 3509 836 4129 
Q 1250 4750 2034 4750 
z
" transform="scale(0.015625)"/>
       </defs>
       <use xlink:href="#DejaVuSans-31"/>
       <use xlink:href="#DejaVuSans-30" x="63.623047"/>
      </g>
     </g>
    </g>
    <g id="xtick_3">
     <g id="line2d_3">
      <g>
       <use xlink:href="#m4200af1773" x="197.419737" y="90.935726" style="stroke: #000000; stroke-width: 0.8"/>
      </g>
     </g>
     <g id="text_2">
      <!-- 20 -->
      <g transform="translate(191.057237 105.534164) scale(0.1 -0.1)">
       <defs>
        <path id="DejaVuSans-32" d="M 1228 531 
L 3431 531 
L 3431 0 
L 469 0 
L 469 531 
Q 828 903 1448 1529 
Q 2069 2156 2228 2338 
Q 2531 2678 2651 2914 
Q 2772 3150 2772 3378 
Q 2772 3750 2511 3984 
Q 2250 4219 1831 4219 
Q 1534 4219 1204 4116 
Q 875 4013 500 3803 
L 500 4441 
Q 881 4594 1212 4672 
Q 1544 4750 1819 4750 
Q 2544 4750 2975 4387 
Q 3406 4025 3406 3419 
Q 3406 3131 3298 2873 
Q 3191 2616 2906 2266 
Q 2828 2175 2409 1742 
Q 1991 1309 1228 531 
z
" transform="scale(0.015625)"/>
       </defs>
       <use xlink:href="#DejaVuSans-32"/>
       <use xlink:href="#DejaVuSans-30" x="63.623047"/>
      </g>
     </g>
    </g>
    <g id="xtick_4">
     <g id="line2d_4">
      <g>
       <use xlink:href="#m4200af1773" x="276.888199" y="90.935726" style="stroke: #000000; stroke-width: 0.8"/>
      </g>
     </g>
     <g id="text_3">
      <!-- 30 -->
      <g transform="translate(270.525699 105.534164) scale(0.1 -0.1)">
       <defs>
        <path id="DejaVuSans-33" d="M 2597 2516 
Q 3050 2419 3304 2112 
Q 3559 1806 3559 1356 
Q 3559 666 3084 287 
Q 2609 -91 1734 -91 
Q 1441 -91 1130 -33 
Q 819 25 488 141 
L 488 750 
Q 750 597 1062 519 
Q 1375 441 1716 441 
Q 2309 441 2620 675 
Q 2931 909 2931 1356 
Q 2931 1769 2642 2001 
Q 2353 2234 1838 2234 
L 1294 2234 
L 1294 2753 
L 1863 2753 
Q 2328 2753 2575 2939 
Q 2822 3125 2822 3475 
Q 2822 3834 2567 4026 
Q 2313 4219 1838 4219 
Q 1578 4219 1281 4162 
Q 984 4106 628 3988 
L 628 4550 
Q 988 4650 1302 4700 
Q 1616 4750 1894 4750 
Q 2613 4750 3031 4423 
Q 3450 4097 3450 3541 
Q 3450 3153 3228 2886 
Q 3006 2619 2597 2516 
z
" transform="scale(0.015625)"/>
       </defs>
       <use xlink:href="#DejaVuSans-33"/>
       <use xlink:href="#DejaVuSans-30" x="63.623047"/>
      </g>
     </g>
    </g>
    <g id="xtick_5">
     <g id="line2d_5">
      <g>
       <use xlink:href="#m4200af1773" x="356.356662" y="90.935726" style="stroke: #000000; stroke-width: 0.8"/>
      </g>
     </g>
     <g id="text_4">
      <!-- 40 -->
      <g transform="translate(349.994162 105.534164) scale(0.1 -0.1)">
       <defs>
        <path id="DejaVuSans-34" d="M 2419 4116 
L 825 1625 
L 2419 1625 
L 2419 4116 
z
M 2253 4666 
L 3047 4666 
L 3047 1625 
L 3713 1625 
L 3713 1100 
L 3047 1100 
L 3047 0 
L 2419 0 
L 2419 1100 
L 313 1100 
L 313 1709 
L 2253 4666 
z
" transform="scale(0.015625)"/>
       </defs>
       <use xlink:href="#DejaVuSans-34"/>
       <use xlink:href="#DejaVuSans-30" x="63.623047"/>
      </g>
     </g>
    </g>
    <g id="xtick_6">
     <g id="line2d_6">
      <g>
       <use xlink:href="#m4200af1773" x="435.825124" y="90.935726" style="stroke: #000000; stroke-width: 0.8"/>
      </g>
     </g>
     <g id="text_5">
      <!-- 50 -->
      <g transform="translate(429.462624 105.534164) scale(0.1 -0.1)">
       <defs>
        <path id="DejaVuSans-35" d="M 691 4666 
L 3169 4666 
L 3169 4134 
L 1269 4134 
L 1269 2991 
Q 1406 3038 1543 3061 
Q 1681 3084 1819 3084 
Q 2600 3084 3056 2656 
Q 3513 2228 3513 1497 
Q 3513 744 3044 326 
Q 2575 -91 1722 -91 
Q 1428 -91 1123 -41 
Q 819 9 494 109 
L 494 744 
Q 775 591 1075 516 
Q 1375 441 1709 441 
Q 2250 441 2565 725 
Q 2881 1009 2881 1497 
Q 2881 1984 2565 2268 
Q 2250 2553 1709 2553 
Q 1456 2553 1204 2497 
Q 953 2441 691 2322 
L 691 4666 
z
" transform="scale(0.015625)"/>
       </defs>
       <use xlink:href="#DejaVuSans-35"/>
       <use xlink:href="#DejaVuSans-30" x="63.623047"/>
      </g>
     </g>
    </g>
    <g id="xtick_7">
     <g id="line2d_7">
      <defs>
       <path id="m886ea92158" d="M 0 0 
L 0 2 
" style="stroke: #000000; stroke-width: 0.6"/>
      </defs>
      <g>
       <use xlink:href="#m886ea92158" x="22.58912" y="90.935726" style="stroke: #000000; stroke-width: 0.6"/>
      </g>
     </g>
    </g>
    <g id="xtick_8">
     <g id="line2d_8">
      <g>
       <use xlink:href="#m886ea92158" x="54.376505" y="90.935726" style="stroke: #000000; stroke-width: 0.6"/>
      </g>
     </g>
    </g>
    <g id="xtick_9">
     <g id="line2d_9">
      <g>
       <use xlink:href="#m886ea92158" x="70.270197" y="90.935726" style="stroke: #000000; stroke-width: 0.6"/>
      </g>
     </g>
    </g>
    <g id="xtick_10">
     <g id="line2d_10">
      <g>
       <use xlink:href="#m886ea92158" x="86.16389" y="90.935726" style="stroke: #000000; stroke-width: 0.6"/>
      </g>
     </g>
    </g>
    <g id="xtick_11">
     <g id="line2d_11">
      <g>
       <use xlink:href="#m886ea92158" x="102.057582" y="90.935726" style="stroke: #000000; stroke-width: 0.6"/>
      </g>
     </g>
    </g>
    <g id="xtick_12">
     <g id="line2d_12">
      <g>
       <use xlink:href="#m886ea92158" x="133.844967" y="90.935726" style="stroke: #000000; stroke-width: 0.6"/>
      </g>
     </g>
    </g>
    <g id="xtick_13">
     <g id="line2d_13">
      <g>
       <use xlink:href="#m886ea92158" x="149.73866" y="90.935726" style="stroke: #000000; stroke-width: 0.6"/>
      </g>
     </g>
    </g>
    <g id="xtick_14">
     <g id="line2d_14">
      <g>
       <use xlink:href="#m886ea92158" x="165.632352" y="90.935726" style="stroke: #000000; stroke-width: 0.6"/>
      </g>
     </g>
    </g>
    <g id="xtick_15">
     <g id="line2d_15">
      <g>
       <use xlink:href="#m886ea92158" x="181.526045" y="90.935726" style="stroke: #000000; stroke-width: 0.6"/>
      </g>
     </g>
    </g>
    <g id="xtick_16">
     <g id="line2d_16">
      <g>
       <use xlink:href="#m886ea92158" x="213.31343" y="90.935726" style="stroke: #000000; stroke-width: 0.6"/>
      </g>
     </g>
    </g>
    <g id="xtick_17">
     <g id="line2d_17">
      <g>
       <use xlink:href="#m886ea92158" x="229.207122" y="90.935726" style="stroke: #000000; stroke-width: 0.6"/>
      </g>
     </g>
    </g>
    <g id="xtick_18">
     <g id="line2d_18">
      <g>
       <use xlink:href="#m886ea92158" x="245.100814" y="90.935726" style="stroke: #000000; stroke-width: 0.6"/>
      </g>
     </g>
    </g>
    <g id="xtick_19">
     <g id="line2d_19">
      <g>
       <use xlink:href="#m886ea92158" x="260.994507" y="90.935726" style="stroke: #000000; stroke-width: 0.6"/>
      </g>
     </g>
    </g>
    <g id="xtick_20">
     <g id="line2d_20">
      <g>
       <use xlink:href="#m886ea92158" x="292.781892" y="90.935726" style="stroke: #000000; stroke-width: 0.6"/>
      </g>
     </g>
    </g>
    <g id="xtick_21">
     <g id="line2d_21">
      <g>
       <use xlink:href="#m886ea92158" x="308.675584" y="90.935726" style="stroke: #000000; stroke-width: 0.6"/>
      </g>
     </g>
    </g>
    <g id="xtick_22">
     <g id="line2d_22">
      <g>
       <use xlink:href="#m886ea92158" x="324.569277" y="90.935726" style="stroke: #000000; stroke-width: 0.6"/>
      </g>
     </g>
    </g>
    <g id="xtick_23">
     <g id="line2d_23">
      <g>
       <use xlink:href="#m886ea92158" x="340.462969" y="90.935726" style="stroke: #000000; stroke-width: 0.6"/>
      </g>
     </g>
    </g>
    <g id="xtick_24">
     <g id="line2d_24">
      <g>
       <use xlink:href="#m886ea92158" x="372.250354" y="90.935726" style="stroke: #000000; stroke-width: 0.6"/>
      </g>
     </g>
    </g>
    <g id="xtick_25">
     <g id="line2d_25">
      <g>
       <use xlink:href="#m886ea92158" x="388.144047" y="90.935726" style="stroke: #000000; stroke-width: 0.6"/>
      </g>
     </g>
    </g>
    <g id="xtick_26">
     <g id="line2d_26">
      <g>
       <use xlink:href="#m886ea92158" x="404.037739" y="90.935726" style="stroke: #000000; stroke-width: 0.6"/>
      </g>
     </g>
    </g>
    <g id="xtick_27">
     <g id="line2d_27">
      <g>
       <use xlink:href="#m886ea92158" x="419.931431" y="90.935726" style="stroke: #000000; stroke-width: 0.6"/>
      </g>
     </g>
    </g>
   </g>
   <g id="matplotlib.axis_2">
    <g id="ytick_1">
     <g id="line2d_28">
      <defs>
       <path id="mfb684eccb2" d="M 0 0 
L -3.5 0 
" style="stroke: #000000; stroke-width: 0.8"/>
      </defs>
      <g>
       <use xlink:href="#mfb684eccb2" x="38.482813" y="291.229061" style="stroke: #000000; stroke-width: 0.8"/>
      </g>
     </g>
     <g id="text_6">
      <!-- −1.5 -->
      <g transform="translate(7.2 295.028279) scale(0.1 -0.1)">
       <defs>
        <path id="DejaVuSans-2212" d="M 678 2272 
L 4684 2272 
L 4684 1741 
L 678 1741 
L 678 2272 
z
" transform="scale(0.015625)"/>
        <path id="DejaVuSans-2e" d="M 684 794 
L 1344 794 
L 1344 0 
L 684 0 
L 684 794 
z
" transform="scale(0.015625)"/>
       </defs>
       <use xlink:href="#DejaVuSans-2212"/>
       <use xlink:href="#DejaVuSans-31" x="83.789062"/>
       <use xlink:href="#DejaVuSans-2e" x="147.412109"/>
       <use xlink:href="#DejaVuSans-35" x="179.199219"/>
      </g>
     </g>
    </g>
    <g id="ytick_2">
     <g id="line2d_29">
      <g>
       <use xlink:href="#mfb684eccb2" x="38.482813" y="224.464616" style="stroke: #000000; stroke-width: 0.8"/>
      </g>
     </g>
     <g id="text_7">
      <!-- −1.0 -->
      <g transform="translate(7.2 228.263835) scale(0.1 -0.1)">
       <use xlink:href="#DejaVuSans-2212"/>
       <use xlink:href="#DejaVuSans-31" x="83.789062"/>
       <use xlink:href="#DejaVuSans-2e" x="147.412109"/>
       <use xlink:href="#DejaVuSans-30" x="179.199219"/>
      </g>
     </g>
    </g>
    <g id="ytick_3">
     <g id="line2d_30">
      <g>
       <use xlink:href="#mfb684eccb2" x="38.482813" y="157.700171" style="stroke: #000000; stroke-width: 0.8"/>
      </g>
     </g>
     <g id="text_8">
      <!-- −0.5 -->
      <g transform="translate(7.2 161.49939) scale(0.1 -0.1)">
       <use xlink:href="#DejaVuSans-2212"/>
       <use xlink:href="#DejaVuSans-30" x="83.789062"/>
       <use xlink:href="#DejaVuSans-2e" x="147.412109"/>
       <use xlink:href="#DejaVuSans-35" x="179.199219"/>
      </g>
     </g>
    </g>
    <g id="ytick_4">
     <g id="line2d_31">
      <g>
       <use xlink:href="#mfb684eccb2" x="38.482813" y="90.935726" style="stroke: #000000; stroke-width: 0.8"/>
      </g>
     </g>
    </g>
    <g id="ytick_5">
     <g id="line2d_32">
      <g>
       <use xlink:href="#mfb684eccb2" x="38.482813" y="24.171281" style="stroke: #000000; stroke-width: 0.8"/>
      </g>
     </g>
     <g id="text_9">
      <!-- 0.5 -->
      <g transform="translate(15.579688 27.9705) scale(0.1 -0.1)">
       <use xlink:href="#DejaVuSans-30"/>
       <use xlink:href="#DejaVuSans-2e" x="63.623047"/>
       <use xlink:href="#DejaVuSans-35" x="95.410156"/>
      </g>
     </g>
    </g>
    <g id="ytick_6">
     <g id="line2d_33">
      <defs>
       <path id="ma521f86f5e" d="M 0 0 
L -2 0 
" style="stroke: #000000; stroke-width: 0.6"/>
      </defs>
      <g>
       <use xlink:href="#ma521f86f5e" x="38.482813" y="317.934839" style="stroke: #000000; stroke-width: 0.6"/>
      </g>
     </g>
    </g>
    <g id="ytick_7">
     <g id="line2d_34">
      <g>
       <use xlink:href="#ma521f86f5e" x="38.482813" y="304.58195" style="stroke: #000000; stroke-width: 0.6"/>
      </g>
     </g>
    </g>
    <g id="ytick_8">
     <g id="line2d_35">
      <g>
       <use xlink:href="#ma521f86f5e" x="38.482813" y="277.876172" style="stroke: #000000; stroke-width: 0.6"/>
      </g>
     </g>
    </g>
    <g id="ytick_9">
     <g id="line2d_36">
      <g>
       <use xlink:href="#ma521f86f5e" x="38.482813" y="264.523283" style="stroke: #000000; stroke-width: 0.6"/>
      </g>
     </g>
    </g>
    <g id="ytick_10">
     <g id="line2d_37">
      <g>
       <use xlink:href="#ma521f86f5e" x="38.482813" y="251.170394" style="stroke: #000000; stroke-width: 0.6"/>
      </g>
     </g>
    </g>
    <g id="ytick_11">
     <g id="line2d_38">
      <g>
       <use xlink:href="#ma521f86f5e" x="38.482813" y="237.817505" style="stroke: #000000; stroke-width: 0.6"/>
      </g>
     </g>
    </g>
    <g id="ytick_12">
     <g id="line2d_39">
      <g>
       <use xlink:href="#ma521f86f5e" x="38.482813" y="211.111727" style="stroke: #000000; stroke-width: 0.6"/>
      </g>
     </g>
    </g>
    <g id="ytick_13">
     <g id="line2d_40">
      <g>
       <use xlink:href="#ma521f86f5e" x="38.482813" y="197.758838" style="stroke: #000000; stroke-width: 0.6"/>
      </g>
     </g>
    </g>
    <g id="ytick_14">
     <g id="line2d_41">
      <g>
       <use xlink:href="#ma521f86f5e" x="38.482813" y="184.405949" style="stroke: #000000; stroke-width: 0.6"/>
      </g>
     </g>
    </g>
    <g id="ytick_15">
     <g id="line2d_42">
      <g>
       <use xlink:href="#ma521f86f5e" x="38.482813" y="171.05306" style="stroke: #000000; stroke-width: 0.6"/>
      </g>
     </g>
    </g>
    <g id="ytick_16">
     <g id="line2d_43">
      <g>
       <use xlink:href="#ma521f86f5e" x="38.482813" y="144.347282" style="stroke: #000000; stroke-width: 0.6"/>
      </g>
     </g>
    </g>
    <g id="ytick_17">
     <g id="line2d_44">
      <g>
       <use xlink:href="#ma521f86f5e" x="38.482813" y="130.994393" style="stroke: #000000; stroke-width: 0.6"/>
      </g>
     </g>
    </g>
    <g id="ytick_18">
     <g id="line2d_45">
      <g>
       <use xlink:href="#ma521f86f5e" x="38.482813" y="117.641504" style="stroke: #000000; stroke-width: 0.6"/>
      </g>
     </g>
    </g>
    <g id="ytick_19">
     <g id="line2d_46">
      <g>
       <use xlink:href="#ma521f86f5e" x="38.482813" y="104.288615" style="stroke: #000000; stroke-width: 0.6"/>
      </g>
     </g>
    </g>
    <g id="ytick_20">
     <g id="line2d_47">
      <g>
       <use xlink:href="#ma521f86f5e" x="38.482813" y="77.582837" style="stroke: #000000; stroke-width: 0.6"/>
      </g>
     </g>
    </g>
    <g id="ytick_21">
     <g id="line2d_48">
      <g>
       <use xlink:href="#ma521f86f5e" x="38.482813" y="64.229948" style="stroke: #000000; stroke-width: 0.6"/>
      </g>
     </g>
    </g>
    <g id="ytick_22">
     <g id="line2d_49">
      <g>
       <use xlink:href="#ma521f86f5e" x="38.482813" y="50.877059" style="stroke: #000000; stroke-width: 0.6"/>
      </g>
     </g>
    </g>
    <g id="ytick_23">
     <g id="line2d_50">
      <g>
       <use xlink:href="#ma521f86f5e" x="38.482813" y="37.52417" style="stroke: #000000; stroke-width: 0.6"/>
      </g>
     </g>
    </g>
    <g id="ytick_24">
     <g id="line2d_51">
      <g>
       <use xlink:href="#ma521f86f5e" x="38.482813" y="10.818392" style="stroke: #000000; stroke-width: 0.6"/>
      </g>
     </g>
    </g>
   </g>
   <g id="line2d_52">
    <path d="M 30.535966 149.695192 
L 31.724154 142.736221 
L 34.107383 126.319896 
L 36.927336 103.941389 
L 42.314522 59.670581 
L 43.882302 48.140467 
L 45.450081 37.847981 
L 46.667265 30.897672 
L 48.154765 23.823253 
L 49.642265 18.468237 
L 50.660051 15.859358 
L 51.677838 14.137733 
L 52.198687 13.604491 
L 53.778787 13.430769 
L 55.358887 15.394819 
L 57.079474 19.845786 
L 58.244621 24.125606 
L 59.409769 29.32764 
L 61.311003 39.522053 
L 62.749375 48.364999 
L 68.086537 85.137852 
L 71.041894 104.585189 
L 72.27335 111.798387 
L 73.504805 118.28929 
L 75.458018 126.832319 
L 76.384063 130.044314 
L 77.659675 133.51704 
L 78.935286 135.845353 
L 80.392363 137.07909 
L 81.84944 136.804565 
L 83.338618 135.023606 
L 84.888004 131.672918 
L 86.971609 125.05301 
L 88.883473 117.25448 
L 90.732365 108.603578 
L 96.755115 78.70767 
L 98.494952 71.192497 
L 99.783042 66.339569 
L 101.963534 59.832224 
L 103.857295 56.177139 
L 105.06847 54.890147 
L 106.279645 54.442743 
L 107.589532 54.89815 
L 109.055585 56.527964 
L 111.311636 61.161804 
L 112.836925 65.562235 
L 114.362214 70.785239 
L 117.488503 83.189863 
L 120.854124 97.233418 
L 123.222192 106.261741 
L 124.728243 111.228525 
L 126.234294 115.395025 
L 127.72581 118.602867 
L 129.217325 120.801436 
L 131.28006 122.075804 
L 132.023059 122.02395 
L 133.462198 121.165132 
L 135.86929 117.614795 
L 137.490206 113.898049 
L 139.111121 109.30343 
L 140.740142 104.003793 
L 148.435451 76.907442 
L 150.909214 70.168074 
L 153.370311 65.557736 
L 155.842232 63.419313 
L 157.51966 63.47656 
L 159.197089 64.738036 
L 160.00228 65.752167 
L 162.216034 69.782505 
L 164.322978 75.053593 
L 167.168274 83.691043 
L 170.520906 94.697587 
L 173.968671 105.033692 
L 175.226854 108.183783 
L 177.523344 112.71073 
L 179.95567 115.472906 
L 181.996919 116.01759 
L 182.363583 115.940666 
L 184.211778 114.759199 
L 186.059972 112.321683 
L 186.744934 111.126551 
L 188.765997 106.803757 
L 190.429481 102.515622 
L 196.534285 84.503928 
L 199.02553 77.827568 
L 200.625838 74.225863 
L 202.301917 71.212313 
L 203.977996 69.097079 
L 205.369036 68.085055 
L 207.326274 67.85192 
L 208.811435 68.602292 
L 210.296596 70.118864 
L 211.022816 71.122519 
L 214.026081 76.855206 
L 215.626383 80.738618 
L 222.295066 98.946507 
L 225.223692 105.730186 
L 226.807309 108.580384 
L 228.390926 110.712497 
L 229.850032 111.973788 
L 232.425059 112.451478 
L 234.198716 111.476851 
L 235.725201 109.830746 
L 238.466141 105.231187 
L 240.132227 101.605367 
L 247.878119 81.988376 
L 250.864361 75.847578 
L 253.002253 72.749662 
L 255.573341 70.798509 
L 256.857526 70.606749 
L 259.640073 71.988234 
L 261.34018 73.971294 
L 263.501948 77.566227 
L 265.787389 82.385449 
L 271.453876 96.170565 
L 274.616388 103.02949 
L 277.89505 108.053187 
L 279.335102 109.368037 
L 281.829121 110.192541 
L 283.925237 109.430161 
L 284.678346 108.841031 
L 287.01759 106.034249 
L 288.443419 103.681895 
L 291.091394 98.33515 
L 297.385043 83.847938 
L 298.950267 80.637336 
L 302.064643 75.589298 
L 303.68863 73.86416 
L 304.825391 73.081076 
L 307.139441 72.628096 
L 310.083846 74.263624 
L 312.504941 77.300666 
L 313.232692 78.46898 
L 316.793604 85.43133 
L 321.747839 96.423803 
L 322.961661 98.926018 
L 327.034073 105.597641 
L 329.376305 107.768425 
L 330.954401 108.412196 
L 332.532497 108.367937 
L 334.018177 107.702003 
L 335.166592 106.788348 
L 338.187737 102.900172 
L 339.53486 100.587663 
L 343.441218 92.652417 
L 346.082517 86.992591 
L 348.136027 82.892317 
L 349.749781 80.050167 
L 352.531157 76.287371 
L 353.614635 75.291402 
L 355.254845 74.345496 
L 356.895054 74.106455 
L 358.232307 74.440113 
L 360.232419 75.796911 
L 363.513756 79.995993 
L 364.713684 82.026644 
L 367.82227 88.065884 
L 370.087855 92.758989 
L 373.129171 98.712295 
L 375.804511 103.00386 
L 378.294722 105.763483 
L 379.986581 106.81657 
L 381.859829 107.141693 
L 384.910836 105.769152 
L 387.427124 103.009389 
L 388.807885 100.972248 
L 390.997278 97.168646 
L 399.258245 81.502886 
L 401.206758 78.737391 
L 404.037084 76.075591 
L 405.96664 75.327234 
L 407.913159 75.501214 
L 409.424354 76.271797 
L 410.474351 77.118436 
L 412.48467 79.387001 
L 416.565097 86.003033 
L 422.273104 96.80933 
L 423.825865 99.429654 
L 426.632379 103.261965 
L 427.899531 104.50783 
L 428.719495 105.130279 
L 431.564734 106.084878 
L 433.010502 105.831172 
L 435.825124 103.956372 
L 435.825124 103.956372 
" clip-path="url(#p42c8d4cd6f)" style="fill: none; stroke: #0000ff; stroke-linecap: square"/>
   </g>
   <g id="line2d_53">
    <path d="M 39.165484 324.969231 
L 39.524526 270.029627 
L 40.003247 227.273276 
L 40.60165 193.2374 
L 41.318418 165.05668 
L 42.032555 143.903198 
L 42.706308 127.648184 
L 44.053813 101.65819 
L 45.450213 80.555846 
L 46.895509 62.994546 
L 48.37487 48.595096 
L 49.131583 42.468572 
L 50.436475 33.734142 
L 51.180513 29.748118 
L 51.924552 26.459032 
L 53.41263 21.900058 
L 54.699538 20.036514 
L 55.988809 19.995029 
L 57.278079 21.661586 
L 58.79639 25.626241 
L 59.7839 29.252142 
L 60.77141 33.611206 
L 61.954627 39.68048 
L 63.137844 46.525954 
L 65.050758 58.818968 
L 70.387325 95.595522 
L 72.034129 106.009687 
L 73.603855 114.898503 
L 74.919738 121.366551 
L 76.394687 127.377938 
L 77.869635 131.945267 
L 79.136869 134.644112 
L 80.404103 136.178358 
L 81.39894 136.564583 
L 82.463973 136.192953 
L 83.529006 135.034766 
L 84.816732 132.639136 
L 86.104459 129.239362 
L 88.097471 122.263945 
L 89.042986 118.349151 
L 91.25316 108.102225 
L 96.448498 82.111842 
L 97.44384 77.492779 
L 99.350217 69.4944 
L 101.077062 63.492137 
L 102.803907 58.921413 
L 103.691077 57.188136 
L 105.809282 54.843402 
L 107.373437 54.766181 
L 109.376789 56.670708 
L 111.262857 60.366099 
L 112.62068 64.030089 
L 113.978503 68.401843 
L 115.335995 73.343028 
L 117.679981 82.77219 
L 121.191966 97.419619 
L 124.219608 108.673674 
L 126.737126 115.887147 
L 128.540822 119.455064 
L 129.60315 120.853445 
L 131.158329 121.913155 
L 132.713508 121.784613 
L 134.759027 119.853006 
L 135.866417 118.023381 
L 138.284928 112.356274 
L 140.516544 105.508955 
L 141.983707 100.43556 
L 147.659832 80.096989 
L 149.619502 74.076895 
L 151.95626 68.380231 
L 153.987611 65.066311 
L 155.881861 63.525851 
L 158.339615 63.851505 
L 159.935599 65.435596 
L 161.531583 68.016303 
L 163.291697 71.878533 
L 165.496835 77.916476 
L 167.467913 84.076395 
L 171.29605 96.606134 
L 173.486885 103.215199 
L 175.81668 109.108445 
L 177.544515 112.443981 
L 178.694961 114.091183 
L 180.284661 115.547341 
L 181.87436 116.011896 
L 184.183492 114.914461 
L 184.746896 114.338473 
L 186.282948 112.195341 
L 187.818999 109.287205 
L 188.761008 107.173957 
L 190.477516 102.797165 
L 198.9508 78.387736 
L 201.412383 72.989968 
L 204.132022 69.105139 
L 206.477896 67.813987 
L 207.185308 67.818487 
L 209.048846 68.697839 
L 210.889133 70.744763 
L 212.729434 73.841646 
L 214.569735 77.813361 
L 216.918316 83.800703 
L 222.882336 100.106856 
L 225.05472 105.116565 
L 227.957324 110.035353 
L 229.78318 111.835407 
L 231.873673 112.531289 
L 233.387772 112.10603 
L 235.598141 110.133689 
L 238.429165 105.532611 
L 240.00126 102.171326 
L 243.395466 93.712457 
L 247.920248 82.159115 
L 250.115586 77.433076 
L 252.810373 73.120057 
L 254.167981 71.710873 
L 255.863542 70.749442 
L 257.559104 70.707099 
L 259.62403 71.885953 
L 260.274991 72.525839 
L 263.318486 77.031162 
L 265.174929 80.788122 
L 269.194856 90.385464 
L 272.831886 99.111493 
L 275.798462 104.964006 
L 277.57553 107.555054 
L 278.936876 108.97434 
L 280.091021 109.760078 
L 282.626973 110.076713 
L 284.989654 108.636347 
L 286.602374 106.759451 
L 289.209376 102.427889 
L 292.669477 94.963438 
L 296.356233 86.336527 
L 299.859454 79.120878 
L 301.448246 76.552767 
L 303.16206 74.442614 
L 306.003467 72.680851 
L 306.534318 72.607171 
L 308.152658 72.886142 
L 309.770998 73.907014 
L 312.526224 77.205718 
L 314.842535 81.233748 
L 317.020888 85.741927 
L 320.982453 94.586082 
L 324.65866 101.93746 
L 326.995296 105.444566 
L 328.71399 107.226925 
L 330.432683 108.242098 
L 332.606349 108.364801 
L 334.174571 107.647325 
L 336.184917 105.79414 
L 338.266115 102.898007 
L 339.314257 101.124274 
L 342.42869 94.982992 
L 346.346682 86.60352 
L 348.156486 82.99985 
L 351.05711 78.188695 
L 352.334083 76.585522 
L 355.053636 74.459724 
L 356.901359 74.106061 
L 359.184503 74.916332 
L 360.488981 75.973394 
L 362.38231 78.203581 
L 364.27305 81.133444 
L 366.165656 84.600564 
L 370.240309 92.925431 
L 373.730188 99.650491 
L 377.369896 104.821734 
L 378.512326 105.880353 
L 380.484817 106.966921 
L 381.896844 107.14043 
L 383.990165 106.462578 
L 385.906048 104.907252 
L 387.821932 102.554663 
L 389.674366 99.653228 
L 392.25583 94.890674 
L 396.793556 85.933717 
L 398.797058 82.35969 
L 400.337637 79.98216 
L 402.916599 76.977785 
L 405.540844 75.433864 
L 407.343353 75.34462 
L 409.871288 76.554576 
L 411.429276 78.026966 
L 413.354145 80.511091 
L 416.735506 86.203484 
L 421.428278 95.16343 
L 424.090542 99.748592 
L 425.342287 101.583088 
L 427.208951 103.807131 
L 429.023386 105.283703 
L 431.982023 106.066263 
L 433.885402 105.468825 
L 435.825124 104.011894 
L 435.825124 104.011894 
" clip-path="url(#p42c8d4cd6f)" style="fill: none; stroke: #ff0000; stroke-linecap: square"/>
   </g>
   <g id="patch_3">
    <path d="M 38.482813 331.2 
L 38.482813 7.2 
" style="fill: none; stroke: #000000; stroke-width: 0.8; stroke-linejoin: miter; stroke-linecap: square"/>
   </g>
   <g id="patch_4">
    <path d="M 22.430183 90.935726 
L 443.930907 90.935726 
" style="fill: none; stroke: #000000; stroke-width: 0.8; stroke-linejoin: miter; stroke-linecap: square"/>
   </g>
   <g id="legend_1">
    <g id="patch_5">
     <path d="M 345.030907 51.298438 
L 440.930907 51.298438 
L 440.930907 14.2 
L 345.030907 14.2 
z
" style="fill: #4c4c4c; opacity: 0.5; stroke: #4c4c4c; stroke-linejoin: miter"/>
    </g>
    <g id="patch_6">
     <path d="M 343.030907 49.298438 
L 438.930907 49.298438 
L 438.930907 12.2 
L 343.030907 12.2 
z
" style="fill: #ffffff; stroke: #cccccc; stroke-linejoin: miter"/>
    </g>
    <g id="line2d_54">
     <path d="M 352.030907 22.298438 
L 346.530907 22.298438 
" style="fill: none; stroke: #0000ff; stroke-linecap: square"/>
    </g>
    <g id="text_10">
     <!-- $J_{1}(x)$ -->
     <g transform="translate(354.530907 25.798438) scale(0.1 -0.1)">
      <defs>
       <path id="Cmmi10-4a" d="M 697 384 
Q 759 206 928 115 
Q 1097 25 1294 25 
Q 1494 25 1680 164 
Q 1866 303 1995 512 
Q 2125 722 2175 928 
L 2931 3956 
Q 2938 3981 2939 3993 
Q 2941 4006 2944 4019 
Q 2944 4088 2894 4103 
Q 2725 4147 2209 4147 
Q 2144 4147 2144 4231 
Q 2156 4281 2164 4309 
Q 2172 4338 2192 4355 
Q 2213 4372 2253 4372 
L 3988 4372 
Q 4050 4372 4050 4288 
Q 4025 4147 3969 4147 
Q 3744 4147 3628 4112 
Q 3513 4078 3469 3928 
L 2713 903 
Q 2641 606 2420 367 
Q 2200 128 1897 -6 
Q 1594 -141 1288 -141 
Q 950 -141 695 46 
Q 441 234 441 556 
Q 441 769 556 922 
Q 672 1075 884 1075 
Q 1006 1075 1089 1000 
Q 1172 925 1172 806 
Q 1172 634 1044 506 
Q 916 378 744 378 
Q 709 378 697 384 
z
" transform="scale(0.015625)"/>
       <path id="Cmr10-31" d="M 594 0 
L 594 225 
Q 1394 225 1394 428 
L 1394 3788 
Q 1063 3628 556 3628 
L 556 3853 
Q 1341 3853 1741 4263 
L 1831 4263 
Q 1853 4263 1873 4245 
Q 1894 4228 1894 4206 
L 1894 428 
Q 1894 225 2694 225 
L 2694 0 
L 594 0 
z
" transform="scale(0.015625)"/>
       <path id="Cmr10-28" d="M 1984 -1588 
Q 1628 -1306 1370 -942 
Q 1113 -578 948 -165 
Q 784 247 703 697 
Q 622 1147 622 1600 
Q 622 2059 703 2509 
Q 784 2959 951 3375 
Q 1119 3791 1378 4153 
Q 1638 4516 1984 4788 
Q 1984 4800 2016 4800 
L 2075 4800 
Q 2094 4800 2109 4783 
Q 2125 4766 2125 4744 
Q 2125 4716 2113 4703 
Q 1800 4397 1592 4047 
Q 1384 3697 1257 3301 
Q 1131 2906 1075 2482 
Q 1019 2059 1019 1600 
Q 1019 -434 2106 -1491 
Q 2125 -1509 2125 -1544 
Q 2125 -1559 2108 -1579 
Q 2091 -1600 2075 -1600 
L 2016 -1600 
Q 1984 -1600 1984 -1588 
z
" transform="scale(0.015625)"/>
       <path id="Cmmi10-78" d="M 500 184 
Q 613 97 819 97 
Q 1019 97 1172 289 
Q 1325 481 1381 709 
L 1672 1844 
Q 1741 2153 1741 2266 
Q 1741 2425 1652 2544 
Q 1563 2663 1403 2663 
Q 1200 2663 1022 2536 
Q 844 2409 722 2214 
Q 600 2019 550 1819 
Q 538 1778 500 1778 
L 422 1778 
Q 372 1778 372 1838 
L 372 1856 
Q 434 2094 584 2320 
Q 734 2547 951 2687 
Q 1169 2828 1416 2828 
Q 1650 2828 1839 2703 
Q 2028 2578 2106 2363 
Q 2216 2559 2386 2693 
Q 2556 2828 2759 2828 
Q 2897 2828 3040 2779 
Q 3184 2731 3275 2631 
Q 3366 2531 3366 2381 
Q 3366 2219 3261 2101 
Q 3156 1984 2994 1984 
Q 2891 1984 2822 2050 
Q 2753 2116 2753 2216 
Q 2753 2350 2845 2451 
Q 2938 2553 3066 2572 
Q 2950 2663 2747 2663 
Q 2541 2663 2389 2472 
Q 2238 2281 2175 2047 
L 1894 916 
Q 1825 659 1825 494 
Q 1825 331 1917 214 
Q 2009 97 2163 97 
Q 2463 97 2698 361 
Q 2934 625 3009 941 
Q 3022 978 3059 978 
L 3138 978 
Q 3163 978 3178 961 
Q 3194 944 3194 922 
Q 3194 916 3188 903 
Q 3097 522 2806 225 
Q 2516 -72 2150 -72 
Q 1916 -72 1727 54 
Q 1538 181 1459 397 
Q 1359 209 1182 68 
Q 1006 -72 806 -72 
Q 669 -72 523 -23 
Q 378 25 287 125 
Q 197 225 197 378 
Q 197 528 301 651 
Q 406 775 563 775 
Q 669 775 741 711 
Q 813 647 813 544 
Q 813 409 723 309 
Q 634 209 500 184 
z
" transform="scale(0.015625)"/>
       <path id="Cmr10-29" d="M 416 -1600 
Q 359 -1600 359 -1544 
Q 359 -1516 372 -1503 
Q 1466 -434 1466 1600 
Q 1466 3634 384 4691 
Q 359 4706 359 4744 
Q 359 4766 376 4783 
Q 394 4800 416 4800 
L 475 4800 
Q 494 4800 506 4788 
Q 966 4425 1272 3906 
Q 1578 3388 1720 2800 
Q 1863 2213 1863 1600 
Q 1863 1147 1786 708 
Q 1709 269 1542 -157 
Q 1375 -584 1119 -945 
Q 863 -1306 506 -1588 
Q 494 -1600 475 -1600 
L 416 -1600 
z
" transform="scale(0.015625)"/>
      </defs>
      <use xlink:href="#Cmmi10-4a"/>
      <use xlink:href="#Cmr10-31" transform="translate(55.419922 -17.00625) scale(0.7)"/>
      <use xlink:href="#Cmr10-28" transform="translate(96.797266 0)"/>
      <use xlink:href="#Cmmi10-78" transform="translate(135.615625 0)"/>
      <use xlink:href="#Cmr10-29" transform="translate(192.695703 0)"/>
     </g>
    </g>
    <g id="line2d_55">
     <path d="M 352.030907 37.198438 
L 346.530907 37.198438 
" style="fill: none; stroke: #ff0000; stroke-linecap: square"/>
    </g>
    <g id="text_11">
     <!-- $\sqrt{\frac{2}{\pi x}}\cos(x - 3\pi/4)$ -->
     <g transform="translate(354.530907 40.698438) scale(0.1 -0.1)">
      <defs>
       <path id="Cmex10-71" d="M 2713 -11263 
L 1259 -6188 
L 819 -6700 
L 703 -6578 
L 1619 -5503 
L 2981 -10266 
L 6284 178 
Q 6306 256 6400 256 
Q 6453 256 6490 218 
Q 6528 181 6528 128 
L 6528 103 
L 2963 -11188 
Q 2925 -11263 2853 -11263 
L 2713 -11263 
z
" transform="scale(0.015625)"/>
       <path id="Cmr10-32" d="M 319 0 
L 319 172 
Q 319 188 331 206 
L 1325 1306 
Q 1550 1550 1690 1715 
Q 1831 1881 1968 2097 
Q 2106 2313 2186 2536 
Q 2266 2759 2266 3009 
Q 2266 3272 2169 3511 
Q 2072 3750 1880 3894 
Q 1688 4038 1416 4038 
Q 1138 4038 916 3870 
Q 694 3703 603 3438 
Q 628 3444 672 3444 
Q 816 3444 917 3347 
Q 1019 3250 1019 3097 
Q 1019 2950 917 2848 
Q 816 2747 672 2747 
Q 522 2747 420 2851 
Q 319 2956 319 3097 
Q 319 3338 409 3548 
Q 500 3759 670 3923 
Q 841 4088 1055 4175 
Q 1269 4263 1509 4263 
Q 1875 4263 2190 4108 
Q 2506 3953 2690 3670 
Q 2875 3388 2875 3009 
Q 2875 2731 2753 2481 
Q 2631 2231 2440 2026 
Q 2250 1822 1953 1562 
Q 1656 1303 1563 1216 
L 838 519 
L 1453 519 
Q 1906 519 2211 526 
Q 2516 534 2534 550 
Q 2609 631 2688 1141 
L 2875 1141 
L 2694 0 
L 319 0 
z
" transform="scale(0.015625)"/>
       <path id="Cmmi10-bc" d="M 647 109 
Q 647 144 672 213 
Q 850 584 1004 942 
Q 1159 1300 1282 1639 
Q 1406 1978 1509 2363 
L 1100 2363 
Q 866 2363 662 2216 
Q 459 2069 325 1844 
Q 313 1819 288 1819 
L 213 1819 
Q 153 1819 153 1881 
Q 153 1894 166 1919 
Q 375 2275 614 2517 
Q 853 2759 1153 2759 
L 3475 2759 
Q 3541 2759 3587 2715 
Q 3634 2672 3634 2597 
Q 3634 2503 3567 2433 
Q 3500 2363 3406 2363 
L 2591 2363 
Q 2488 1859 2478 1381 
Q 2478 766 2694 269 
Q 2713 231 2713 191 
Q 2713 122 2672 62 
Q 2631 3 2567 -34 
Q 2503 -72 2431 -72 
Q 2263 -72 2200 203 
Q 2138 478 2138 738 
Q 2138 1103 2200 1442 
Q 2263 1781 2400 2363 
L 1703 2363 
Q 1197 313 1094 103 
Q 1003 -72 844 -72 
Q 766 -72 706 -20 
Q 647 31 647 109 
z
" transform="scale(0.015625)"/>
       <path id="Cmr10-63" d="M 1594 -72 
Q 1206 -72 890 129 
Q 575 331 394 667 
Q 213 1003 213 1381 
Q 213 1759 392 2106 
Q 572 2453 889 2661 
Q 1206 2869 1594 2869 
Q 1969 2869 2276 2722 
Q 2584 2575 2584 2241 
Q 2584 2116 2495 2023 
Q 2406 1931 2278 1931 
Q 2150 1931 2061 2023 
Q 1972 2116 1972 2241 
Q 1972 2353 2044 2436 
Q 2116 2519 2222 2541 
Q 2000 2681 1600 2681 
Q 1294 2681 1106 2478 
Q 919 2275 844 1975 
Q 769 1675 769 1381 
Q 769 1072 861 783 
Q 953 494 1158 305 
Q 1363 116 1672 116 
Q 1975 116 2187 302 
Q 2400 488 2478 788 
Q 2478 825 2528 825 
L 2606 825 
Q 2625 825 2640 808 
Q 2656 791 2656 769 
L 2656 750 
Q 2559 372 2271 150 
Q 1984 -72 1594 -72 
z
" transform="scale(0.015625)"/>
       <path id="Cmr10-6f" d="M 1600 -72 
Q 1216 -72 887 123 
Q 559 319 368 647 
Q 178 975 178 1363 
Q 178 1656 283 1928 
Q 388 2200 583 2414 
Q 778 2628 1037 2748 
Q 1297 2869 1600 2869 
Q 1994 2869 2317 2661 
Q 2641 2453 2828 2104 
Q 3016 1756 3016 1363 
Q 3016 978 2825 648 
Q 2634 319 2307 123 
Q 1981 -72 1600 -72 
z
M 1600 116 
Q 2113 116 2284 487 
Q 2456 859 2456 1434 
Q 2456 1756 2422 1967 
Q 2388 2178 2272 2350 
Q 2200 2456 2089 2536 
Q 1978 2616 1854 2658 
Q 1731 2700 1600 2700 
Q 1400 2700 1220 2609 
Q 1041 2519 922 2350 
Q 803 2169 770 1951 
Q 738 1734 738 1434 
Q 738 1075 800 789 
Q 863 503 1052 309 
Q 1241 116 1600 116 
z
" transform="scale(0.015625)"/>
       <path id="Cmr10-73" d="M 213 -19 
L 213 1025 
Q 213 1075 269 1075 
L 347 1075 
Q 384 1075 397 1025 
Q 575 97 1259 97 
Q 1563 97 1767 234 
Q 1972 372 1972 659 
Q 1972 866 1812 1011 
Q 1653 1156 1434 1209 
L 1006 1294 
Q 791 1341 614 1437 
Q 438 1534 325 1695 
Q 213 1856 213 2069 
Q 213 2350 361 2529 
Q 509 2709 746 2789 
Q 984 2869 1259 2869 
Q 1588 2869 1831 2694 
L 2016 2853 
Q 2016 2869 2047 2869 
L 2094 2869 
Q 2113 2869 2128 2851 
Q 2144 2834 2144 2816 
L 2144 1978 
Q 2144 1919 2094 1919 
L 2016 1919 
Q 1959 1919 1959 1978 
Q 1959 2313 1773 2516 
Q 1588 2719 1253 2719 
Q 966 2719 755 2612 
Q 544 2506 544 2247 
Q 544 2069 695 1955 
Q 847 1841 1050 1791 
L 1484 1709 
Q 1703 1659 1892 1540 
Q 2081 1422 2192 1240 
Q 2303 1059 2303 831 
Q 2303 600 2223 429 
Q 2144 259 2001 146 
Q 1859 34 1665 -19 
Q 1472 -72 1259 -72 
Q 859 -72 575 197 
L 341 -56 
Q 341 -72 306 -72 
L 269 -72 
Q 213 -72 213 -19 
z
" transform="scale(0.015625)"/>
       <path id="Cmsy10-a1" d="M 653 1472 
Q 600 1472 565 1512 
Q 531 1553 531 1600 
Q 531 1647 565 1687 
Q 600 1728 653 1728 
L 4325 1728 
Q 4375 1728 4408 1687 
Q 4441 1647 4441 1600 
Q 4441 1553 4408 1512 
Q 4375 1472 4325 1472 
L 653 1472 
z
" transform="scale(0.015625)"/>
       <path id="Cmr10-33" d="M 609 494 
Q 759 275 1012 169 
Q 1266 63 1556 63 
Q 1928 63 2084 380 
Q 2241 697 2241 1100 
Q 2241 1281 2208 1462 
Q 2175 1644 2097 1800 
Q 2019 1956 1883 2050 
Q 1747 2144 1550 2144 
L 1125 2144 
Q 1069 2144 1069 2203 
L 1069 2259 
Q 1069 2309 1125 2309 
L 1478 2338 
Q 1703 2338 1851 2506 
Q 2000 2675 2069 2917 
Q 2138 3159 2138 3378 
Q 2138 3684 1994 3881 
Q 1850 4078 1556 4078 
Q 1313 4078 1091 3986 
Q 869 3894 738 3706 
Q 750 3709 759 3711 
Q 769 3713 781 3713 
Q 925 3713 1022 3613 
Q 1119 3513 1119 3372 
Q 1119 3234 1022 3134 
Q 925 3034 781 3034 
Q 641 3034 541 3134 
Q 441 3234 441 3372 
Q 441 3647 606 3850 
Q 772 4053 1033 4158 
Q 1294 4263 1556 4263 
Q 1750 4263 1965 4205 
Q 2181 4147 2356 4039 
Q 2531 3931 2642 3762 
Q 2753 3594 2753 3378 
Q 2753 3109 2633 2881 
Q 2513 2653 2303 2487 
Q 2094 2322 1844 2241 
Q 2122 2188 2372 2031 
Q 2622 1875 2773 1631 
Q 2925 1388 2925 1106 
Q 2925 753 2731 467 
Q 2538 181 2222 20 
Q 1906 -141 1556 -141 
Q 1256 -141 954 -26 
Q 653 88 461 316 
Q 269 544 269 863 
Q 269 1022 375 1128 
Q 481 1234 641 1234 
Q 744 1234 830 1186 
Q 916 1138 964 1050 
Q 1013 963 1013 863 
Q 1013 706 903 600 
Q 794 494 641 494 
L 609 494 
z
" transform="scale(0.015625)"/>
       <path id="Cmmi10-3d" d="M 359 -1472 
Q 359 -1453 366 -1447 
L 2591 4722 
Q 2603 4759 2634 4779 
Q 2666 4800 2706 4800 
Q 2763 4800 2798 4765 
Q 2834 4731 2834 4672 
L 2834 4647 
L 609 -1522 
Q 572 -1600 488 -1600 
Q 434 -1600 396 -1562 
Q 359 -1525 359 -1472 
z
" transform="scale(0.015625)"/>
       <path id="Cmr10-34" d="M 178 1056 
L 178 1281 
L 2156 4231 
Q 2178 4263 2222 4263 
L 2316 4263 
Q 2388 4263 2388 4191 
L 2388 1281 
L 3016 1281 
L 3016 1056 
L 2388 1056 
L 2388 428 
Q 2388 297 2575 261 
Q 2763 225 3009 225 
L 3009 0 
L 1247 0 
L 1247 225 
Q 1494 225 1681 261 
Q 1869 297 1869 428 
L 1869 1056 
L 178 1056 
z
M 391 1281 
L 1906 1281 
L 1906 3547 
L 391 1281 
z
" transform="scale(0.015625)"/>
      </defs>
      <use xlink:href="#Cmex10-71" transform="translate(0 112.859375) scale(0.782542)"/>
      <use xlink:href="#Cmr10-32" transform="translate(112.75 38.123437) scale(0.7)"/>
      <use xlink:href="#Cmmi10-bc" transform="translate(90.75 -24.057813) scale(0.7)"/>
      <use xlink:href="#Cmmi10-78" transform="translate(130.637695 -24.057813) scale(0.7)"/>
      <use xlink:href="#Cmr10-63" transform="translate(195.59375 0.625)"/>
      <use xlink:href="#Cmr10-6f" transform="translate(239.978516 0.625)"/>
      <use xlink:href="#Cmr10-73" transform="translate(289.978516 0.625)"/>
      <use xlink:href="#Cmr10-28" transform="translate(329.382812 0.625)"/>
      <use xlink:href="#Cmmi10-78" transform="translate(368.201172 0.625)"/>
      <use xlink:href="#Cmsy10-a1" transform="translate(442.839844 0.625)"/>
      <use xlink:href="#Cmr10-33" transform="translate(538.083984 0.625)"/>
      <use xlink:href="#Cmmi10-bc" transform="translate(588.083984 0.625)"/>
      <use xlink:href="#Cmmi10-3d" transform="translate(645.066406 0.625)"/>
      <use xlink:href="#Cmr10-34" transform="translate(695.066406 0.625)"/>
      <use xlink:href="#Cmr10-29" transform="translate(745.066406 0.625)"/>
      <path d="M 78.25 109.5 
L 78.25 115.75 
L 195.59375 115.75 
L 195.59375 109.5 
L 78.25 109.5 
z
"/>
      <path d="M 90.75 13.123437 
L 90.75 19.373437 
L 170.59375 19.373437 
L 170.59375 13.123437 
L 90.75 13.123437 
z
"/>
     </g>
    </g>
   </g>
  </g>
 </g>
 <defs>
  <clipPath id="p42c8d4cd6f">
   <rect x="22.430183" y="7.2" width="421.500724" height="324"/>
  </clipPath>
 </defs>
</svg>
