<?xml version="1.0" encoding="utf-8" standalone="no"?>
<!DOCTYPE svg PUBLIC "-//W3C//DTD SVG 1.1//EN"
  "http://www.w3.org/Graphics/SVG/1.1/DTD/svg11.dtd">
<svg xmlns:xlink="http://www.w3.org/1999/xlink" width="451.130907pt" height="337.691371pt" viewBox="0 0 451.130907 337.691371" xmlns="http://www.w3.org/2000/svg" version="1.1">
 <metadata>
  <rdf:RDF xmlns:dc="http://purl.org/dc/elements/1.1/" xmlns:cc="http://creativecommons.org/ns#" xmlns:rdf="http://www.w3.org/1999/02/22-rdf-syntax-ns#">
   <cc:Work>
    <dc:type rdf:resource="http://purl.org/dc/dcmitype/StillImage"/>
    <dc:date>2022-11-01T14:21:01.178243</dc:date>
    <dc:format>image/svg+xml</dc:format>
    <dc:creator>
     <cc:Agent>
      <dc:title>Matplotlib v3.5.1, https://matplotlib.org/</dc:title>
     </cc:Agent>
    </dc:creator>
   </cc:Work>
  </rdf:RDF>
 </metadata>
 <defs>
  <style type="text/css">*{stroke-linejoin: round; stroke-linecap: butt}</style>
 </defs>
 <g id="figure_1">
  <g id="patch_1">
   <path d="M 0 337.691371 
L 451.130907 337.691371 
L 451.130907 0 
L 0 0 
z
" style="fill: #ffffff"/>
  </g>
  <g id="axes_1">
   <g id="patch_2">
    <path d="M 22.430183 327.381072 
L 443.930907 327.381072 
L 443.930907 7.2 
L 22.430183 7.2 
z
" style="fill: #ffffff"/>
   </g>
   <g id="matplotlib.axis_1">
    <g id="xtick_1">
     <g id="line2d_1">
      <defs>
       <path id="m0f0bdfdf22" d="M 0 0 
L 0 3.5 
" style="stroke: #000000; stroke-width: 0.8"/>
      </defs>
      <g>
       <use xlink:href="#m0f0bdfdf22" x="38.482813" y="83.503711" style="stroke: #000000; stroke-width: 0.8"/>
      </g>
     </g>
    </g>
    <g id="xtick_2">
     <g id="line2d_2">
      <g>
       <use xlink:href="#m0f0bdfdf22" x="117.951275" y="83.503711" style="stroke: #000000; stroke-width: 0.8"/>
      </g>
     </g>
     <g id="text_1">
      <!-- 10 -->
      <g transform="translate(111.588775 98.102149)scale(0.1 -0.1)">
       <defs>
        <path id="DejaVuSans-31" d="M 794 531 
L 1825 531 
L 1825 4091 
L 703 3866 
L 703 4441 
L 1819 4666 
L 2450 4666 
L 2450 531 
L 3481 531 
L 3481 0 
L 794 0 
L 794 531 
z
" transform="scale(0.015625)"/>
        <path id="DejaVuSans-30" d="M 2034 4250 
Q 1547 4250 1301 3770 
Q 1056 3291 1056 2328 
Q 1056 1369 1301 889 
Q 1547 409 2034 409 
Q 2525 409 2770 889 
Q 3016 1369 3016 2328 
Q 3016 3291 2770 3770 
Q 2525 4250 2034 4250 
z
M 2034 4750 
Q 2819 4750 3233 4129 
Q 3647 3509 3647 2328 
Q 3647 1150 3233 529 
Q 2819 -91 2034 -91 
Q 1250 -91 836 529 
Q 422 1150 422 2328 
Q 422 3509 836 4129 
Q 1250 4750 2034 4750 
z
" transform="scale(0.015625)"/>
       </defs>
       <use xlink:href="#DejaVuSans-31"/>
       <use xlink:href="#DejaVuSans-30" x="63.623047"/>
      </g>
     </g>
    </g>
    <g id="xtick_3">
     <g id="line2d_3">
      <g>
       <use xlink:href="#m0f0bdfdf22" x="197.419737" y="83.503711" style="stroke: #000000; stroke-width: 0.8"/>
      </g>
     </g>
     <g id="text_2">
      <!-- 20 -->
      <g transform="translate(191.057237 98.102149)scale(0.1 -0.1)">
       <defs>
        <path id="DejaVuSans-32" d="M 1228 531 
L 3431 531 
L 3431 0 
L 469 0 
L 469 531 
Q 828 903 1448 1529 
Q 2069 2156 2228 2338 
Q 2531 2678 2651 2914 
Q 2772 3150 2772 3378 
Q 2772 3750 2511 3984 
Q 2250 4219 1831 4219 
Q 1534 4219 1204 4116 
Q 875 4013 500 3803 
L 500 4441 
Q 881 4594 1212 4672 
Q 1544 4750 1819 4750 
Q 2544 4750 2975 4387 
Q 3406 4025 3406 3419 
Q 3406 3131 3298 2873 
Q 3191 2616 2906 2266 
Q 2828 2175 2409 1742 
Q 1991 1309 1228 531 
z
" transform="scale(0.015625)"/>
       </defs>
       <use xlink:href="#DejaVuSans-32"/>
       <use xlink:href="#DejaVuSans-30" x="63.623047"/>
      </g>
     </g>
    </g>
    <g id="xtick_4">
     <g id="line2d_4">
      <g>
       <use xlink:href="#m0f0bdfdf22" x="276.888199" y="83.503711" style="stroke: #000000; stroke-width: 0.8"/>
      </g>
     </g>
     <g id="text_3">
      <!-- 30 -->
      <g transform="translate(270.525699 98.102149)scale(0.1 -0.1)">
       <defs>
        <path id="DejaVuSans-33" d="M 2597 2516 
Q 3050 2419 3304 2112 
Q 3559 1806 3559 1356 
Q 3559 666 3084 287 
Q 2609 -91 1734 -91 
Q 1441 -91 1130 -33 
Q 819 25 488 141 
L 488 750 
Q 750 597 1062 519 
Q 1375 441 1716 441 
Q 2309 441 2620 675 
Q 2931 909 2931 1356 
Q 2931 1769 2642 2001 
Q 2353 2234 1838 2234 
L 1294 2234 
L 1294 2753 
L 1863 2753 
Q 2328 2753 2575 2939 
Q 2822 3125 2822 3475 
Q 2822 3834 2567 4026 
Q 2313 4219 1838 4219 
Q 1578 4219 1281 4162 
Q 984 4106 628 3988 
L 628 4550 
Q 988 4650 1302 4700 
Q 1616 4750 1894 4750 
Q 2613 4750 3031 4423 
Q 3450 4097 3450 3541 
Q 3450 3153 3228 2886 
Q 3006 2619 2597 2516 
z
" transform="scale(0.015625)"/>
       </defs>
       <use xlink:href="#DejaVuSans-33"/>
       <use xlink:href="#DejaVuSans-30" x="63.623047"/>
      </g>
     </g>
    </g>
    <g id="xtick_5">
     <g id="line2d_5">
      <g>
       <use xlink:href="#m0f0bdfdf22" x="356.356662" y="83.503711" style="stroke: #000000; stroke-width: 0.8"/>
      </g>
     </g>
     <g id="text_4">
      <!-- 40 -->
      <g transform="translate(349.994162 98.102149)scale(0.1 -0.1)">
       <defs>
        <path id="DejaVuSans-34" d="M 2419 4116 
L 825 1625 
L 2419 1625 
L 2419 4116 
z
M 2253 4666 
L 3047 4666 
L 3047 1625 
L 3713 1625 
L 3713 1100 
L 3047 1100 
L 3047 0 
L 2419 0 
L 2419 1100 
L 313 1100 
L 313 1709 
L 2253 4666 
z
" transform="scale(0.015625)"/>
       </defs>
       <use xlink:href="#DejaVuSans-34"/>
       <use xlink:href="#DejaVuSans-30" x="63.623047"/>
      </g>
     </g>
    </g>
    <g id="xtick_6">
     <g id="line2d_6">
      <g>
       <use xlink:href="#m0f0bdfdf22" x="435.825124" y="83.503711" style="stroke: #000000; stroke-width: 0.8"/>
      </g>
     </g>
     <g id="text_5">
      <!-- 50 -->
      <g transform="translate(429.462624 98.102149)scale(0.1 -0.1)">
       <defs>
        <path id="DejaVuSans-35" d="M 691 4666 
L 3169 4666 
L 3169 4134 
L 1269 4134 
L 1269 2991 
Q 1406 3038 1543 3061 
Q 1681 3084 1819 3084 
Q 2600 3084 3056 2656 
Q 3513 2228 3513 1497 
Q 3513 744 3044 326 
Q 2575 -91 1722 -91 
Q 1428 -91 1123 -41 
Q 819 9 494 109 
L 494 744 
Q 775 591 1075 516 
Q 1375 441 1709 441 
Q 2250 441 2565 725 
Q 2881 1009 2881 1497 
Q 2881 1984 2565 2268 
Q 2250 2553 1709 2553 
Q 1456 2553 1204 2497 
Q 953 2441 691 2322 
L 691 4666 
z
" transform="scale(0.015625)"/>
       </defs>
       <use xlink:href="#DejaVuSans-35"/>
       <use xlink:href="#DejaVuSans-30" x="63.623047"/>
      </g>
     </g>
    </g>
    <g id="xtick_7">
     <g id="line2d_7">
      <defs>
       <path id="m0d55935824" d="M 0 0 
L 0 2 
" style="stroke: #000000; stroke-width: 0.6"/>
      </defs>
      <g>
       <use xlink:href="#m0d55935824" x="22.58912" y="83.503711" style="stroke: #000000; stroke-width: 0.6"/>
      </g>
     </g>
    </g>
    <g id="xtick_8">
     <g id="line2d_8">
      <g>
       <use xlink:href="#m0d55935824" x="54.376505" y="83.503711" style="stroke: #000000; stroke-width: 0.6"/>
      </g>
     </g>
    </g>
    <g id="xtick_9">
     <g id="line2d_9">
      <g>
       <use xlink:href="#m0d55935824" x="70.270197" y="83.503711" style="stroke: #000000; stroke-width: 0.6"/>
      </g>
     </g>
    </g>
    <g id="xtick_10">
     <g id="line2d_10">
      <g>
       <use xlink:href="#m0d55935824" x="86.16389" y="83.503711" style="stroke: #000000; stroke-width: 0.6"/>
      </g>
     </g>
    </g>
    <g id="xtick_11">
     <g id="line2d_11">
      <g>
       <use xlink:href="#m0d55935824" x="102.057582" y="83.503711" style="stroke: #000000; stroke-width: 0.6"/>
      </g>
     </g>
    </g>
    <g id="xtick_12">
     <g id="line2d_12">
      <g>
       <use xlink:href="#m0d55935824" x="133.844967" y="83.503711" style="stroke: #000000; stroke-width: 0.6"/>
      </g>
     </g>
    </g>
    <g id="xtick_13">
     <g id="line2d_13">
      <g>
       <use xlink:href="#m0d55935824" x="149.73866" y="83.503711" style="stroke: #000000; stroke-width: 0.6"/>
      </g>
     </g>
    </g>
    <g id="xtick_14">
     <g id="line2d_14">
      <g>
       <use xlink:href="#m0d55935824" x="165.632352" y="83.503711" style="stroke: #000000; stroke-width: 0.6"/>
      </g>
     </g>
    </g>
    <g id="xtick_15">
     <g id="line2d_15">
      <g>
       <use xlink:href="#m0d55935824" x="181.526045" y="83.503711" style="stroke: #000000; stroke-width: 0.6"/>
      </g>
     </g>
    </g>
    <g id="xtick_16">
     <g id="line2d_16">
      <g>
       <use xlink:href="#m0d55935824" x="213.31343" y="83.503711" style="stroke: #000000; stroke-width: 0.6"/>
      </g>
     </g>
    </g>
    <g id="xtick_17">
     <g id="line2d_17">
      <g>
       <use xlink:href="#m0d55935824" x="229.207122" y="83.503711" style="stroke: #000000; stroke-width: 0.6"/>
      </g>
     </g>
    </g>
    <g id="xtick_18">
     <g id="line2d_18">
      <g>
       <use xlink:href="#m0d55935824" x="245.100814" y="83.503711" style="stroke: #000000; stroke-width: 0.6"/>
      </g>
     </g>
    </g>
    <g id="xtick_19">
     <g id="line2d_19">
      <g>
       <use xlink:href="#m0d55935824" x="260.994507" y="83.503711" style="stroke: #000000; stroke-width: 0.6"/>
      </g>
     </g>
    </g>
    <g id="xtick_20">
     <g id="line2d_20">
      <g>
       <use xlink:href="#m0d55935824" x="292.781892" y="83.503711" style="stroke: #000000; stroke-width: 0.6"/>
      </g>
     </g>
    </g>
    <g id="xtick_21">
     <g id="line2d_21">
      <g>
       <use xlink:href="#m0d55935824" x="308.675584" y="83.503711" style="stroke: #000000; stroke-width: 0.6"/>
      </g>
     </g>
    </g>
    <g id="xtick_22">
     <g id="line2d_22">
      <g>
       <use xlink:href="#m0d55935824" x="324.569277" y="83.503711" style="stroke: #000000; stroke-width: 0.6"/>
      </g>
     </g>
    </g>
    <g id="xtick_23">
     <g id="line2d_23">
      <g>
       <use xlink:href="#m0d55935824" x="340.462969" y="83.503711" style="stroke: #000000; stroke-width: 0.6"/>
      </g>
     </g>
    </g>
    <g id="xtick_24">
     <g id="line2d_24">
      <g>
       <use xlink:href="#m0d55935824" x="372.250354" y="83.503711" style="stroke: #000000; stroke-width: 0.6"/>
      </g>
     </g>
    </g>
    <g id="xtick_25">
     <g id="line2d_25">
      <g>
       <use xlink:href="#m0d55935824" x="388.144047" y="83.503711" style="stroke: #000000; stroke-width: 0.6"/>
      </g>
     </g>
    </g>
    <g id="xtick_26">
     <g id="line2d_26">
      <g>
       <use xlink:href="#m0d55935824" x="404.037739" y="83.503711" style="stroke: #000000; stroke-width: 0.6"/>
      </g>
     </g>
    </g>
    <g id="xtick_27">
     <g id="line2d_27">
      <g>
       <use xlink:href="#m0d55935824" x="419.931431" y="83.503711" style="stroke: #000000; stroke-width: 0.6"/>
      </g>
     </g>
    </g>
   </g>
   <g id="matplotlib.axis_2">
    <g id="ytick_1">
     <g id="line2d_28">
      <defs>
       <path id="mbd80aa4e6a" d="M 0 0 
L -3.5 0 
" style="stroke: #000000; stroke-width: 0.8"/>
      </defs>
      <g>
       <use xlink:href="#mbd80aa4e6a" x="38.482813" y="324.612464" style="stroke: #000000; stroke-width: 0.8"/>
      </g>
     </g>
     <g id="text_6">
      <!-- −2.0 -->
      <g transform="translate(7.2 328.411683)scale(0.1 -0.1)">
       <defs>
        <path id="DejaVuSans-2212" d="M 678 2272 
L 4684 2272 
L 4684 1741 
L 678 1741 
L 678 2272 
z
" transform="scale(0.015625)"/>
        <path id="DejaVuSans-2e" d="M 684 794 
L 1344 794 
L 1344 0 
L 684 0 
L 684 794 
z
" transform="scale(0.015625)"/>
       </defs>
       <use xlink:href="#DejaVuSans-2212"/>
       <use xlink:href="#DejaVuSans-32" x="83.789062"/>
       <use xlink:href="#DejaVuSans-2e" x="147.412109"/>
       <use xlink:href="#DejaVuSans-30" x="179.199219"/>
      </g>
     </g>
    </g>
    <g id="ytick_2">
     <g id="line2d_29">
      <g>
       <use xlink:href="#mbd80aa4e6a" x="38.482813" y="264.335276" style="stroke: #000000; stroke-width: 0.8"/>
      </g>
     </g>
     <g id="text_7">
      <!-- −1.5 -->
      <g transform="translate(7.2 268.134495)scale(0.1 -0.1)">
       <use xlink:href="#DejaVuSans-2212"/>
       <use xlink:href="#DejaVuSans-31" x="83.789062"/>
       <use xlink:href="#DejaVuSans-2e" x="147.412109"/>
       <use xlink:href="#DejaVuSans-35" x="179.199219"/>
      </g>
     </g>
    </g>
    <g id="ytick_3">
     <g id="line2d_30">
      <g>
       <use xlink:href="#mbd80aa4e6a" x="38.482813" y="204.058088" style="stroke: #000000; stroke-width: 0.8"/>
      </g>
     </g>
     <g id="text_8">
      <!-- −1.0 -->
      <g transform="translate(7.2 207.857306)scale(0.1 -0.1)">
       <use xlink:href="#DejaVuSans-2212"/>
       <use xlink:href="#DejaVuSans-31" x="83.789062"/>
       <use xlink:href="#DejaVuSans-2e" x="147.412109"/>
       <use xlink:href="#DejaVuSans-30" x="179.199219"/>
      </g>
     </g>
    </g>
    <g id="ytick_4">
     <g id="line2d_31">
      <g>
       <use xlink:href="#mbd80aa4e6a" x="38.482813" y="143.780899" style="stroke: #000000; stroke-width: 0.8"/>
      </g>
     </g>
     <g id="text_9">
      <!-- −0.5 -->
      <g transform="translate(7.2 147.580118)scale(0.1 -0.1)">
       <use xlink:href="#DejaVuSans-2212"/>
       <use xlink:href="#DejaVuSans-30" x="83.789062"/>
       <use xlink:href="#DejaVuSans-2e" x="147.412109"/>
       <use xlink:href="#DejaVuSans-35" x="179.199219"/>
      </g>
     </g>
    </g>
    <g id="ytick_5">
     <g id="line2d_32">
      <g>
       <use xlink:href="#mbd80aa4e6a" x="38.482813" y="83.503711" style="stroke: #000000; stroke-width: 0.8"/>
      </g>
     </g>
    </g>
    <g id="ytick_6">
     <g id="line2d_33">
      <g>
       <use xlink:href="#mbd80aa4e6a" x="38.482813" y="23.226523" style="stroke: #000000; stroke-width: 0.8"/>
      </g>
     </g>
     <g id="text_10">
      <!-- 0.5 -->
      <g transform="translate(15.579688 27.025742)scale(0.1 -0.1)">
       <use xlink:href="#DejaVuSans-30"/>
       <use xlink:href="#DejaVuSans-2e" x="63.623047"/>
       <use xlink:href="#DejaVuSans-35" x="95.410156"/>
      </g>
     </g>
    </g>
    <g id="ytick_7">
     <g id="line2d_34">
      <defs>
       <path id="md6179d70c7" d="M 0 0 
L -2 0 
" style="stroke: #000000; stroke-width: 0.6"/>
      </defs>
      <g>
       <use xlink:href="#md6179d70c7" x="38.482813" y="312.557027" style="stroke: #000000; stroke-width: 0.6"/>
      </g>
     </g>
    </g>
    <g id="ytick_8">
     <g id="line2d_35">
      <g>
       <use xlink:href="#md6179d70c7" x="38.482813" y="300.501589" style="stroke: #000000; stroke-width: 0.6"/>
      </g>
     </g>
    </g>
    <g id="ytick_9">
     <g id="line2d_36">
      <g>
       <use xlink:href="#md6179d70c7" x="38.482813" y="288.446151" style="stroke: #000000; stroke-width: 0.6"/>
      </g>
     </g>
    </g>
    <g id="ytick_10">
     <g id="line2d_37">
      <g>
       <use xlink:href="#md6179d70c7" x="38.482813" y="276.390714" style="stroke: #000000; stroke-width: 0.6"/>
      </g>
     </g>
    </g>
    <g id="ytick_11">
     <g id="line2d_38">
      <g>
       <use xlink:href="#md6179d70c7" x="38.482813" y="252.279838" style="stroke: #000000; stroke-width: 0.6"/>
      </g>
     </g>
    </g>
    <g id="ytick_12">
     <g id="line2d_39">
      <g>
       <use xlink:href="#md6179d70c7" x="38.482813" y="240.224401" style="stroke: #000000; stroke-width: 0.6"/>
      </g>
     </g>
    </g>
    <g id="ytick_13">
     <g id="line2d_40">
      <g>
       <use xlink:href="#md6179d70c7" x="38.482813" y="228.168963" style="stroke: #000000; stroke-width: 0.6"/>
      </g>
     </g>
    </g>
    <g id="ytick_14">
     <g id="line2d_41">
      <g>
       <use xlink:href="#md6179d70c7" x="38.482813" y="216.113525" style="stroke: #000000; stroke-width: 0.6"/>
      </g>
     </g>
    </g>
    <g id="ytick_15">
     <g id="line2d_42">
      <g>
       <use xlink:href="#md6179d70c7" x="38.482813" y="192.00265" style="stroke: #000000; stroke-width: 0.6"/>
      </g>
     </g>
    </g>
    <g id="ytick_16">
     <g id="line2d_43">
      <g>
       <use xlink:href="#md6179d70c7" x="38.482813" y="179.947212" style="stroke: #000000; stroke-width: 0.6"/>
      </g>
     </g>
    </g>
    <g id="ytick_17">
     <g id="line2d_44">
      <g>
       <use xlink:href="#md6179d70c7" x="38.482813" y="167.891775" style="stroke: #000000; stroke-width: 0.6"/>
      </g>
     </g>
    </g>
    <g id="ytick_18">
     <g id="line2d_45">
      <g>
       <use xlink:href="#md6179d70c7" x="38.482813" y="155.836337" style="stroke: #000000; stroke-width: 0.6"/>
      </g>
     </g>
    </g>
    <g id="ytick_19">
     <g id="line2d_46">
      <g>
       <use xlink:href="#md6179d70c7" x="38.482813" y="131.725462" style="stroke: #000000; stroke-width: 0.6"/>
      </g>
     </g>
    </g>
    <g id="ytick_20">
     <g id="line2d_47">
      <g>
       <use xlink:href="#md6179d70c7" x="38.482813" y="119.670024" style="stroke: #000000; stroke-width: 0.6"/>
      </g>
     </g>
    </g>
    <g id="ytick_21">
     <g id="line2d_48">
      <g>
       <use xlink:href="#md6179d70c7" x="38.482813" y="107.614586" style="stroke: #000000; stroke-width: 0.6"/>
      </g>
     </g>
    </g>
    <g id="ytick_22">
     <g id="line2d_49">
      <g>
       <use xlink:href="#md6179d70c7" x="38.482813" y="95.559149" style="stroke: #000000; stroke-width: 0.6"/>
      </g>
     </g>
    </g>
    <g id="ytick_23">
     <g id="line2d_50">
      <g>
       <use xlink:href="#md6179d70c7" x="38.482813" y="71.448273" style="stroke: #000000; stroke-width: 0.6"/>
      </g>
     </g>
    </g>
    <g id="ytick_24">
     <g id="line2d_51">
      <g>
       <use xlink:href="#md6179d70c7" x="38.482813" y="59.392836" style="stroke: #000000; stroke-width: 0.6"/>
      </g>
     </g>
    </g>
    <g id="ytick_25">
     <g id="line2d_52">
      <g>
       <use xlink:href="#md6179d70c7" x="38.482813" y="47.337398" style="stroke: #000000; stroke-width: 0.6"/>
      </g>
     </g>
    </g>
    <g id="ytick_26">
     <g id="line2d_53">
      <g>
       <use xlink:href="#md6179d70c7" x="38.482813" y="35.28196" style="stroke: #000000; stroke-width: 0.6"/>
      </g>
     </g>
    </g>
    <g id="ytick_27">
     <g id="line2d_54">
      <g>
       <use xlink:href="#md6179d70c7" x="38.482813" y="11.171085" style="stroke: #000000; stroke-width: 0.6"/>
      </g>
     </g>
    </g>
   </g>
   <g id="line2d_55">
    <path d="M 30.535966 136.553735 
L 31.742539 130.167364 
L 33.42377 119.965382 
L 35.105002 108.550286 
L 43.273404 48.792671 
L 44.504423 41.030087 
L 46.399465 30.602901 
L 48.260315 22.516538 
L 49.279455 19.107021 
L 50.298595 16.467926 
L 51.703246 14.139465 
L 53.107897 13.357328 
L 54.158681 13.782135 
L 55.204671 15.046851 
L 56.250661 17.123906 
L 57.540819 20.74629 
L 58.830978 25.450293 
L 60.627621 33.579411 
L 62.317932 42.598007 
L 65.204629 60.019329 
L 69.239831 85.369867 
L 70.308019 91.683703 
L 72.753059 104.705582 
L 73.928293 110.045059 
L 75.103526 114.668892 
L 76.539667 119.248831 
L 77.8946 122.413192 
L 79.249532 124.406167 
L 80.584936 125.208139 
L 81.920339 124.869555 
L 83.8847 122.392271 
L 85.011658 119.98588 
L 86.138617 116.934454 
L 88.418037 109.093027 
L 89.687027 103.966642 
L 96.483147 73.598409 
L 98.236926 66.627203 
L 99.361745 62.662573 
L 100.795982 58.309567 
L 102.230218 54.851645 
L 103.613219 52.447579 
L 104.950798 51.040268 
L 106.190042 50.560528 
L 107.429287 50.870853 
L 108.826159 52.140798 
L 110.223031 54.330653 
L 111.051117 56.030423 
L 113.659096 63.056338 
L 116.62572 73.283219 
L 119.699084 84.898896 
L 122.701682 95.648675 
L 125.672723 104.276431 
L 128.035831 108.972397 
L 130.307471 111.309879 
L 132.20533 111.522612 
L 133.847811 110.438376 
L 135.623162 108.020742 
L 137.582589 104.018153 
L 139.811369 98.09402 
L 141.863417 91.749957 
L 145.737462 79.006139 
L 148.829296 69.762516 
L 149.916586 66.993104 
L 151.637451 63.306204 
L 153.358317 60.606672 
L 154.737417 59.231348 
L 157.082351 58.59284 
L 159.024472 59.685695 
L 160.474093 61.409176 
L 162.864863 65.752 
L 164.751343 70.256235 
L 168.050374 79.561757 
L 172.376638 92.147774 
L 174.783295 98.117046 
L 176.418931 101.39083 
L 178.054568 103.877869 
L 179.137229 105.043695 
L 180.577545 105.964286 
L 182.017862 106.145784 
L 183.357538 105.652108 
L 184.573326 104.66775 
L 186.198084 102.604973 
L 187.822843 99.775712 
L 189.718765 95.673286 
L 193.487479 85.908155 
L 197.177913 76.051243 
L 201.034447 67.684922 
L 203.187018 64.581518 
L 204.61039 63.294058 
L 206.033762 62.659973 
L 207.406166 62.681116 
L 208.923481 63.420036 
L 210.440797 64.877539 
L 211.537868 66.34665 
L 213.998566 70.734893 
L 216.540055 76.460668 
L 222.230014 90.584534 
L 223.83286 94.141668 
L 226.834906 99.47324 
L 227.868218 100.800045 
L 230.564819 102.821774 
L 231.170765 102.973818 
L 232.794531 102.823545 
L 234.418296 101.875395 
L 236.663982 99.339825 
L 238.728942 95.92608 
L 241.321551 90.550465 
L 248.443745 74.256483 
L 250.370761 70.679693 
L 252.586159 67.539661 
L 254.244163 66.003017 
L 256.790591 65.147224 
L 258.839239 65.816005 
L 260.536519 67.250346 
L 262.500412 69.80711 
L 265.968156 76.158564 
L 271.964498 89.313169 
L 275.029691 95.118012 
L 277.538878 98.583245 
L 278.152296 99.208971 
L 279.70839 100.364032 
L 281.264484 100.870023 
L 283.676075 100.344655 
L 284.877349 99.504535 
L 288.127759 95.514894 
L 289.401137 93.380212 
L 291.944375 88.455873 
L 297.31553 77.240367 
L 298.92605 74.248232 
L 300.518636 71.678203 
L 302.240464 69.45015 
L 303.962292 67.891035 
L 305.648418 67.078342 
L 306.683107 66.944779 
L 309.334498 67.870799 
L 311.970311 70.482132 
L 314.641623 74.541275 
L 316.862094 78.668293 
L 322.680237 90.207785 
L 324.027514 92.556911 
L 325.88496 95.340802 
L 328.250709 97.916564 
L 330.13718 99.057955 
L 331.17469 99.31393 
L 334.279547 98.480065 
L 336.716455 96.240343 
L 338.641182 93.633554 
L 339.690458 91.959977 
L 341.98244 87.857844 
L 347.255827 77.780311 
L 350.529563 72.579211 
L 352.190369 70.613826 
L 354.538255 68.82142 
L 356.185279 68.323735 
L 357.497022 68.392577 
L 359.291252 69.147164 
L 361.569593 71.136525 
L 364.449988 75.040777 
L 366.289795 78.128343 
L 372.667242 89.758791 
L 373.891624 91.733493 
L 376.153014 94.819692 
L 377.893998 96.574029 
L 379.634981 97.696516 
L 380.195009 97.914111 
L 383.127878 97.873877 
L 385.032878 96.803794 
L 387.765774 93.98086 
L 389.281078 91.870666 
L 391.28627 88.641629 
L 397.962679 76.948081 
L 398.982052 75.387566 
L 401.090093 72.622546 
L 404.181634 70.008684 
L 405.860422 69.427612 
L 407.443288 69.453782 
L 410.085848 70.720304 
L 411.1038 71.5913 
L 412.670255 73.301414 
L 415.7656 77.739549 
L 423.598796 90.843126 
L 426.083858 94.054654 
L 427.125365 95.105582 
L 430.36053 97.027148 
L 431.695503 97.178688 
L 434.220985 96.419226 
L 435.825124 95.259189 
L 435.825124 95.259189 
" clip-path="url(#p8372b07252)" style="fill: none; stroke: #0000ff; stroke-linecap: square"/>
   </g>
   <g id="line2d_56">
    <path d="M 39.042094 321.223744 
L 39.433658 255.25739 
L 39.955742 209.667593 
L 40.608348 175.583305 
L 41.36689 148.970816 
L 42.076264 130.290045 
L 43.022096 110.556081 
L 43.932243 95.061119 
L 45.509859 73.407981 
L 47.087476 56.417786 
L 48.363635 45.364789 
L 50.249936 32.863111 
L 51.37521 27.424326 
L 52.500485 23.415106 
L 53.669318 20.70455 
L 54.838152 19.412117 
L 56.206342 19.604966 
L 57.574532 21.512002 
L 58.083532 22.628842 
L 59.087381 25.431636 
L 60.091231 28.971037 
L 62.780569 41.477685 
L 65.610298 57.935356 
L 70.027399 85.552848 
L 71.591503 94.672305 
L 73.795564 106.042897 
L 75.490864 113.226708 
L 76.572355 116.972815 
L 77.653847 120.010368 
L 78.759424 122.348597 
L 79.865002 123.890191 
L 80.453752 124.383042 
L 81.753849 124.667729 
L 83.053947 123.870009 
L 84.366312 122.019149 
L 85.678676 119.19492 
L 86.891468 115.805656 
L 88.10426 111.76363 
L 90.12041 103.888969 
L 97.362426 71.699185 
L 100.04697 61.816271 
L 102.057269 56.214371 
L 104.117414 52.423645 
L 105.633725 51.005443 
L 106.938316 50.741118 
L 108.242907 51.35153 
L 110.30233 54.00967 
L 111.358185 56.113447 
L 112.741627 59.539766 
L 114.125069 63.618545 
L 116.132631 70.423961 
L 122.269474 93.19281 
L 125.263985 102.477673 
L 127.084037 106.751106 
L 128.904089 109.738251 
L 130.602685 111.252438 
L 132.484651 111.439111 
L 133.793732 110.65318 
L 135.102813 109.149179 
L 135.841387 108.001843 
L 138.360331 102.654096 
L 141.16941 94.660775 
L 144.749408 82.96706 
L 147.761915 73.414917 
L 149.600701 68.330802 
L 151.439488 64.131225 
L 153.345416 60.931664 
L 155.260341 59.059288 
L 155.88156 58.757263 
L 158.134677 58.936694 
L 160.464998 61.158918 
L 162.434953 64.490681 
L 166.075795 73.331925 
L 171.549295 89.346693 
L 174.534819 97.14111 
L 176.767015 101.677164 
L 178.95133 104.680466 
L 181.19923 106.075816 
L 183.769681 105.466534 
L 186.04045 103.051328 
L 186.935091 101.661758 
L 189.48275 96.570153 
L 191.021223 92.857501 
L 196.991588 76.909554 
L 199.189078 71.644371 
L 200.837143 68.310927 
L 202.97943 65.012625 
L 205.279855 62.999082 
L 207.374937 62.661853 
L 209.059565 63.434382 
L 210.744192 65.09294 
L 212.373209 67.462208 
L 213.14175 68.811805 
L 216.982378 77.218489 
L 221.216757 87.841585 
L 224.41353 95.062096 
L 225.664617 97.409478 
L 228.242467 101.064843 
L 230.800334 102.846127 
L 231.27649 102.958682 
L 232.88534 102.821871 
L 234.494191 101.900677 
L 236.598038 99.589313 
L 238.064065 97.320758 
L 239.638913 94.384564 
L 241.900758 89.499054 
L 247.232862 77.065736 
L 248.685678 74.001125 
L 250.355588 70.899998 
L 252.369787 67.936729 
L 254.373332 65.998328 
L 257.066791 65.165799 
L 258.093377 65.400786 
L 259.714617 66.378602 
L 261.335857 68.056744 
L 263.650781 71.514157 
L 265.129415 74.252531 
L 268.898646 82.341515 
L 271.209092 87.480257 
L 273.220621 91.656805 
L 274.496304 94.03421 
L 276.959918 97.779159 
L 278.809784 99.689939 
L 280.185723 100.541311 
L 282.281862 100.849737 
L 285.083095 99.403308 
L 287.531745 96.547293 
L 289.809846 92.810055 
L 290.942099 90.661893 
L 297.008849 78.029715 
L 299.633294 73.205028 
L 300.692813 71.559689 
L 302.7208 69.039609 
L 305.019529 67.340455 
L 307.865917 67.113708 
L 309.585305 67.990943 
L 311.516166 69.82533 
L 313.912381 73.180138 
L 317.339561 79.444295 
L 321.984019 88.749077 
L 323.30648 91.180886 
L 326.155698 95.585087 
L 327.794962 97.433862 
L 329.611246 98.78007 
L 331.490177 99.330143 
L 333.232417 99.052617 
L 335.321032 97.74811 
L 337.086574 95.886497 
L 340.678292 90.392375 
L 344.155145 83.812343 
L 348.113243 76.412778 
L 350.461936 72.775888 
L 352.141882 70.744831 
L 353.484559 69.533264 
L 355.600843 68.448792 
L 358.55143 68.715421 
L 360.949393 70.419347 
L 361.57759 71.067516 
L 365.285714 76.279595 
L 368.96291 82.910489 
L 372.324058 89.052068 
L 374.174933 92.0555 
L 376.900535 95.570526 
L 378.869352 97.237995 
L 380.797329 98.051621 
L 383.093766 97.905883 
L 384.574292 97.176005 
L 387.596925 94.276657 
L 389.380369 91.821342 
L 390.527501 90.019988 
L 397.266113 78.191303 
L 399.179791 75.196427 
L 401.307853 72.45261 
L 403.766679 70.289725 
L 404.594297 69.839879 
L 407.065538 69.392628 
L 409.418839 70.224345 
L 411.236214 71.659395 
L 412.902476 73.512049 
L 414.888547 76.271715 
L 417.695924 80.865809 
L 421.552016 87.526911 
L 423.405414 90.465113 
L 424.696013 92.289319 
L 426.575365 94.510684 
L 428.454717 96.11013 
L 429.53404 96.712678 
L 431.395148 97.173651 
L 434.68942 96.169612 
L 435.825124 95.309316 
L 435.825124 95.309316 
" clip-path="url(#p8372b07252)" style="fill: none; stroke: #ff0000; stroke-linecap: square"/>
   </g>
   <g id="patch_3">
    <path d="M 38.482813 327.381072 
L 38.482813 7.2 
" style="fill: none; stroke: #000000; stroke-width: 0.8; stroke-linejoin: miter; stroke-linecap: square"/>
   </g>
   <g id="patch_4">
    <path d="M 22.430183 83.503711 
L 443.930907 83.503711 
" style="fill: none; stroke: #000000; stroke-width: 0.8; stroke-linejoin: miter; stroke-linecap: square"/>
   </g>
   <g id="legend_1">
    <g id="patch_5">
     <path d="M 345.030907 51.298437 
L 440.930907 51.298437 
L 440.930907 14.2 
L 345.030907 14.2 
z
" style="fill: #4c4c4c; opacity: 0.5; stroke: #4c4c4c; stroke-linejoin: miter"/>
    </g>
    <g id="patch_6">
     <path d="M 343.030907 49.298437 
L 438.930907 49.298437 
L 438.930907 12.2 
L 343.030907 12.2 
z
" style="fill: #ffffff; stroke: #cccccc; stroke-linejoin: miter"/>
    </g>
    <g id="line2d_57">
     <path d="M 352.030907 22.298437 
L 346.530907 22.298437 
" style="fill: none; stroke: #0000ff; stroke-linecap: square"/>
    </g>
    <g id="text_11">
     <!-- $J_{1}(x)$ -->
     <g transform="translate(354.530907 25.798437)scale(0.1 -0.1)">
      <defs>
       <path id="Cmmi10-4a" d="M 697 384 
Q 759 206 928 115 
Q 1097 25 1294 25 
Q 1494 25 1680 164 
Q 1866 303 1995 512 
Q 2125 722 2175 928 
L 2931 3956 
Q 2938 3981 2939 3993 
Q 2941 4006 2944 4019 
Q 2944 4088 2894 4103 
Q 2725 4147 2209 4147 
Q 2144 4147 2144 4231 
Q 2156 4281 2164 4309 
Q 2172 4338 2192 4355 
Q 2213 4372 2253 4372 
L 3988 4372 
Q 4050 4372 4050 4288 
Q 4025 4147 3969 4147 
Q 3744 4147 3628 4112 
Q 3513 4078 3469 3928 
L 2713 903 
Q 2641 606 2420 367 
Q 2200 128 1897 -6 
Q 1594 -141 1288 -141 
Q 950 -141 695 46 
Q 441 234 441 556 
Q 441 769 556 922 
Q 672 1075 884 1075 
Q 1006 1075 1089 1000 
Q 1172 925 1172 806 
Q 1172 634 1044 506 
Q 916 378 744 378 
Q 709 378 697 384 
z
" transform="scale(0.015625)"/>
       <path id="Cmr10-31" d="M 594 0 
L 594 225 
Q 1394 225 1394 428 
L 1394 3788 
Q 1063 3628 556 3628 
L 556 3853 
Q 1341 3853 1741 4263 
L 1831 4263 
Q 1853 4263 1873 4245 
Q 1894 4228 1894 4206 
L 1894 428 
Q 1894 225 2694 225 
L 2694 0 
L 594 0 
z
" transform="scale(0.015625)"/>
       <path id="Cmr10-28" d="M 1984 -1588 
Q 1628 -1306 1370 -942 
Q 1113 -578 948 -165 
Q 784 247 703 697 
Q 622 1147 622 1600 
Q 622 2059 703 2509 
Q 784 2959 951 3375 
Q 1119 3791 1378 4153 
Q 1638 4516 1984 4788 
Q 1984 4800 2016 4800 
L 2075 4800 
Q 2094 4800 2109 4783 
Q 2125 4766 2125 4744 
Q 2125 4716 2113 4703 
Q 1800 4397 1592 4047 
Q 1384 3697 1257 3301 
Q 1131 2906 1075 2482 
Q 1019 2059 1019 1600 
Q 1019 -434 2106 -1491 
Q 2125 -1509 2125 -1544 
Q 2125 -1559 2108 -1579 
Q 2091 -1600 2075 -1600 
L 2016 -1600 
Q 1984 -1600 1984 -1588 
z
" transform="scale(0.015625)"/>
       <path id="Cmmi10-78" d="M 500 184 
Q 613 97 819 97 
Q 1019 97 1172 289 
Q 1325 481 1381 709 
L 1672 1844 
Q 1741 2153 1741 2266 
Q 1741 2425 1652 2544 
Q 1563 2663 1403 2663 
Q 1200 2663 1022 2536 
Q 844 2409 722 2214 
Q 600 2019 550 1819 
Q 538 1778 500 1778 
L 422 1778 
Q 372 1778 372 1838 
L 372 1856 
Q 434 2094 584 2320 
Q 734 2547 951 2687 
Q 1169 2828 1416 2828 
Q 1650 2828 1839 2703 
Q 2028 2578 2106 2363 
Q 2216 2559 2386 2693 
Q 2556 2828 2759 2828 
Q 2897 2828 3040 2779 
Q 3184 2731 3275 2631 
Q 3366 2531 3366 2381 
Q 3366 2219 3261 2101 
Q 3156 1984 2994 1984 
Q 2891 1984 2822 2050 
Q 2753 2116 2753 2216 
Q 2753 2350 2845 2451 
Q 2938 2553 3066 2572 
Q 2950 2663 2747 2663 
Q 2541 2663 2389 2472 
Q 2238 2281 2175 2047 
L 1894 916 
Q 1825 659 1825 494 
Q 1825 331 1917 214 
Q 2009 97 2163 97 
Q 2463 97 2698 361 
Q 2934 625 3009 941 
Q 3022 978 3059 978 
L 3138 978 
Q 3163 978 3178 961 
Q 3194 944 3194 922 
Q 3194 916 3188 903 
Q 3097 522 2806 225 
Q 2516 -72 2150 -72 
Q 1916 -72 1727 54 
Q 1538 181 1459 397 
Q 1359 209 1182 68 
Q 1006 -72 806 -72 
Q 669 -72 523 -23 
Q 378 25 287 125 
Q 197 225 197 378 
Q 197 528 301 651 
Q 406 775 563 775 
Q 669 775 741 711 
Q 813 647 813 544 
Q 813 409 723 309 
Q 634 209 500 184 
z
" transform="scale(0.015625)"/>
       <path id="Cmr10-29" d="M 416 -1600 
Q 359 -1600 359 -1544 
Q 359 -1516 372 -1503 
Q 1466 -434 1466 1600 
Q 1466 3634 384 4691 
Q 359 4706 359 4744 
Q 359 4766 376 4783 
Q 394 4800 416 4800 
L 475 4800 
Q 494 4800 506 4788 
Q 966 4425 1272 3906 
Q 1578 3388 1720 2800 
Q 1863 2213 1863 1600 
Q 1863 1147 1786 708 
Q 1709 269 1542 -157 
Q 1375 -584 1119 -945 
Q 863 -1306 506 -1588 
Q 494 -1600 475 -1600 
L 416 -1600 
z
" transform="scale(0.015625)"/>
      </defs>
      <use xlink:href="#Cmmi10-4a"/>
      <use xlink:href="#Cmr10-31" transform="translate(55.419922 -17.00625)scale(0.7)"/>
      <use xlink:href="#Cmr10-28" transform="translate(96.797266 0)"/>
      <use xlink:href="#Cmmi10-78" transform="translate(135.615625 0)"/>
      <use xlink:href="#Cmr10-29" transform="translate(192.695703 0)"/>
     </g>
    </g>
    <g id="line2d_58">
     <path d="M 352.030907 37.198437 
L 346.530907 37.198437 
" style="fill: none; stroke: #ff0000; stroke-linecap: square"/>
    </g>
    <g id="text_12">
     <!-- $\sqrt{\frac{2}{\pi x}}\cos(x - 3\pi/4)$ -->
     <g transform="translate(354.530907 40.698437)scale(0.1 -0.1)">
      <defs>
       <path id="Cmex10-71" d="M 2713 -11263 
L 1259 -6188 
L 819 -6700 
L 703 -6578 
L 1619 -5503 
L 2981 -10266 
L 6284 178 
Q 6306 256 6400 256 
Q 6453 256 6490 218 
Q 6528 181 6528 128 
L 6528 103 
L 2963 -11188 
Q 2925 -11263 2853 -11263 
L 2713 -11263 
z
" transform="scale(0.015625)"/>
       <path id="Cmr10-32" d="M 319 0 
L 319 172 
Q 319 188 331 206 
L 1325 1306 
Q 1550 1550 1690 1715 
Q 1831 1881 1968 2097 
Q 2106 2313 2186 2536 
Q 2266 2759 2266 3009 
Q 2266 3272 2169 3511 
Q 2072 3750 1880 3894 
Q 1688 4038 1416 4038 
Q 1138 4038 916 3870 
Q 694 3703 603 3438 
Q 628 3444 672 3444 
Q 816 3444 917 3347 
Q 1019 3250 1019 3097 
Q 1019 2950 917 2848 
Q 816 2747 672 2747 
Q 522 2747 420 2851 
Q 319 2956 319 3097 
Q 319 3338 409 3548 
Q 500 3759 670 3923 
Q 841 4088 1055 4175 
Q 1269 4263 1509 4263 
Q 1875 4263 2190 4108 
Q 2506 3953 2690 3670 
Q 2875 3388 2875 3009 
Q 2875 2731 2753 2481 
Q 2631 2231 2440 2026 
Q 2250 1822 1953 1562 
Q 1656 1303 1563 1216 
L 838 519 
L 1453 519 
Q 1906 519 2211 526 
Q 2516 534 2534 550 
Q 2609 631 2688 1141 
L 2875 1141 
L 2694 0 
L 319 0 
z
" transform="scale(0.015625)"/>
       <path id="Cmmi10-bc" d="M 647 109 
Q 647 144 672 213 
Q 850 584 1004 942 
Q 1159 1300 1282 1639 
Q 1406 1978 1509 2363 
L 1100 2363 
Q 866 2363 662 2216 
Q 459 2069 325 1844 
Q 313 1819 288 1819 
L 213 1819 
Q 153 1819 153 1881 
Q 153 1894 166 1919 
Q 375 2275 614 2517 
Q 853 2759 1153 2759 
L 3475 2759 
Q 3541 2759 3587 2715 
Q 3634 2672 3634 2597 
Q 3634 2503 3567 2433 
Q 3500 2363 3406 2363 
L 2591 2363 
Q 2488 1859 2478 1381 
Q 2478 766 2694 269 
Q 2713 231 2713 191 
Q 2713 122 2672 62 
Q 2631 3 2567 -34 
Q 2503 -72 2431 -72 
Q 2263 -72 2200 203 
Q 2138 478 2138 738 
Q 2138 1103 2200 1442 
Q 2263 1781 2400 2363 
L 1703 2363 
Q 1197 313 1094 103 
Q 1003 -72 844 -72 
Q 766 -72 706 -20 
Q 647 31 647 109 
z
" transform="scale(0.015625)"/>
       <path id="Cmr10-63" d="M 1594 -72 
Q 1206 -72 890 129 
Q 575 331 394 667 
Q 213 1003 213 1381 
Q 213 1759 392 2106 
Q 572 2453 889 2661 
Q 1206 2869 1594 2869 
Q 1969 2869 2276 2722 
Q 2584 2575 2584 2241 
Q 2584 2116 2495 2023 
Q 2406 1931 2278 1931 
Q 2150 1931 2061 2023 
Q 1972 2116 1972 2241 
Q 1972 2353 2044 2436 
Q 2116 2519 2222 2541 
Q 2000 2681 1600 2681 
Q 1294 2681 1106 2478 
Q 919 2275 844 1975 
Q 769 1675 769 1381 
Q 769 1072 861 783 
Q 953 494 1158 305 
Q 1363 116 1672 116 
Q 1975 116 2187 302 
Q 2400 488 2478 788 
Q 2478 825 2528 825 
L 2606 825 
Q 2625 825 2640 808 
Q 2656 791 2656 769 
L 2656 750 
Q 2559 372 2271 150 
Q 1984 -72 1594 -72 
z
" transform="scale(0.015625)"/>
       <path id="Cmr10-6f" d="M 1600 -72 
Q 1216 -72 887 123 
Q 559 319 368 647 
Q 178 975 178 1363 
Q 178 1656 283 1928 
Q 388 2200 583 2414 
Q 778 2628 1037 2748 
Q 1297 2869 1600 2869 
Q 1994 2869 2317 2661 
Q 2641 2453 2828 2104 
Q 3016 1756 3016 1363 
Q 3016 978 2825 648 
Q 2634 319 2307 123 
Q 1981 -72 1600 -72 
z
M 1600 116 
Q 2113 116 2284 487 
Q 2456 859 2456 1434 
Q 2456 1756 2422 1967 
Q 2388 2178 2272 2350 
Q 2200 2456 2089 2536 
Q 1978 2616 1854 2658 
Q 1731 2700 1600 2700 
Q 1400 2700 1220 2609 
Q 1041 2519 922 2350 
Q 803 2169 770 1951 
Q 738 1734 738 1434 
Q 738 1075 800 789 
Q 863 503 1052 309 
Q 1241 116 1600 116 
z
" transform="scale(0.015625)"/>
       <path id="Cmr10-73" d="M 213 -19 
L 213 1025 
Q 213 1075 269 1075 
L 347 1075 
Q 384 1075 397 1025 
Q 575 97 1259 97 
Q 1563 97 1767 234 
Q 1972 372 1972 659 
Q 1972 866 1812 1011 
Q 1653 1156 1434 1209 
L 1006 1294 
Q 791 1341 614 1437 
Q 438 1534 325 1695 
Q 213 1856 213 2069 
Q 213 2350 361 2529 
Q 509 2709 746 2789 
Q 984 2869 1259 2869 
Q 1588 2869 1831 2694 
L 2016 2853 
Q 2016 2869 2047 2869 
L 2094 2869 
Q 2113 2869 2128 2851 
Q 2144 2834 2144 2816 
L 2144 1978 
Q 2144 1919 2094 1919 
L 2016 1919 
Q 1959 1919 1959 1978 
Q 1959 2313 1773 2516 
Q 1588 2719 1253 2719 
Q 966 2719 755 2612 
Q 544 2506 544 2247 
Q 544 2069 695 1955 
Q 847 1841 1050 1791 
L 1484 1709 
Q 1703 1659 1892 1540 
Q 2081 1422 2192 1240 
Q 2303 1059 2303 831 
Q 2303 600 2223 429 
Q 2144 259 2001 146 
Q 1859 34 1665 -19 
Q 1472 -72 1259 -72 
Q 859 -72 575 197 
L 341 -56 
Q 341 -72 306 -72 
L 269 -72 
Q 213 -72 213 -19 
z
" transform="scale(0.015625)"/>
       <path id="Cmsy10-a1" d="M 653 1472 
Q 600 1472 565 1512 
Q 531 1553 531 1600 
Q 531 1647 565 1687 
Q 600 1728 653 1728 
L 4325 1728 
Q 4375 1728 4408 1687 
Q 4441 1647 4441 1600 
Q 4441 1553 4408 1512 
Q 4375 1472 4325 1472 
L 653 1472 
z
" transform="scale(0.015625)"/>
       <path id="Cmr10-33" d="M 609 494 
Q 759 275 1012 169 
Q 1266 63 1556 63 
Q 1928 63 2084 380 
Q 2241 697 2241 1100 
Q 2241 1281 2208 1462 
Q 2175 1644 2097 1800 
Q 2019 1956 1883 2050 
Q 1747 2144 1550 2144 
L 1125 2144 
Q 1069 2144 1069 2203 
L 1069 2259 
Q 1069 2309 1125 2309 
L 1478 2338 
Q 1703 2338 1851 2506 
Q 2000 2675 2069 2917 
Q 2138 3159 2138 3378 
Q 2138 3684 1994 3881 
Q 1850 4078 1556 4078 
Q 1313 4078 1091 3986 
Q 869 3894 738 3706 
Q 750 3709 759 3711 
Q 769 3713 781 3713 
Q 925 3713 1022 3613 
Q 1119 3513 1119 3372 
Q 1119 3234 1022 3134 
Q 925 3034 781 3034 
Q 641 3034 541 3134 
Q 441 3234 441 3372 
Q 441 3647 606 3850 
Q 772 4053 1033 4158 
Q 1294 4263 1556 4263 
Q 1750 4263 1965 4205 
Q 2181 4147 2356 4039 
Q 2531 3931 2642 3762 
Q 2753 3594 2753 3378 
Q 2753 3109 2633 2881 
Q 2513 2653 2303 2487 
Q 2094 2322 1844 2241 
Q 2122 2188 2372 2031 
Q 2622 1875 2773 1631 
Q 2925 1388 2925 1106 
Q 2925 753 2731 467 
Q 2538 181 2222 20 
Q 1906 -141 1556 -141 
Q 1256 -141 954 -26 
Q 653 88 461 316 
Q 269 544 269 863 
Q 269 1022 375 1128 
Q 481 1234 641 1234 
Q 744 1234 830 1186 
Q 916 1138 964 1050 
Q 1013 963 1013 863 
Q 1013 706 903 600 
Q 794 494 641 494 
L 609 494 
z
" transform="scale(0.015625)"/>
       <path id="Cmmi10-3d" d="M 359 -1472 
Q 359 -1453 366 -1447 
L 2591 4722 
Q 2603 4759 2634 4779 
Q 2666 4800 2706 4800 
Q 2763 4800 2798 4765 
Q 2834 4731 2834 4672 
L 2834 4647 
L 609 -1522 
Q 572 -1600 488 -1600 
Q 434 -1600 396 -1562 
Q 359 -1525 359 -1472 
z
" transform="scale(0.015625)"/>
       <path id="Cmr10-34" d="M 178 1056 
L 178 1281 
L 2156 4231 
Q 2178 4263 2222 4263 
L 2316 4263 
Q 2388 4263 2388 4191 
L 2388 1281 
L 3016 1281 
L 3016 1056 
L 2388 1056 
L 2388 428 
Q 2388 297 2575 261 
Q 2763 225 3009 225 
L 3009 0 
L 1247 0 
L 1247 225 
Q 1494 225 1681 261 
Q 1869 297 1869 428 
L 1869 1056 
L 178 1056 
z
M 391 1281 
L 1906 1281 
L 1906 3547 
L 391 1281 
z
" transform="scale(0.015625)"/>
      </defs>
      <use xlink:href="#Cmex10-71" transform="translate(0 112.859375)scale(0.782542)"/>
      <use xlink:href="#Cmr10-32" transform="translate(112.75 38.123437)scale(0.7)"/>
      <use xlink:href="#Cmmi10-bc" transform="translate(90.75 -24.057813)scale(0.7)"/>
      <use xlink:href="#Cmmi10-78" transform="translate(130.637695 -24.057813)scale(0.7)"/>
      <use xlink:href="#Cmr10-63" transform="translate(195.59375 0.625)"/>
      <use xlink:href="#Cmr10-6f" transform="translate(239.978516 0.625)"/>
      <use xlink:href="#Cmr10-73" transform="translate(289.978516 0.625)"/>
      <use xlink:href="#Cmr10-28" transform="translate(329.382812 0.625)"/>
      <use xlink:href="#Cmmi10-78" transform="translate(368.201172 0.625)"/>
      <use xlink:href="#Cmsy10-a1" transform="translate(442.839844 0.625)"/>
      <use xlink:href="#Cmr10-33" transform="translate(538.083984 0.625)"/>
      <use xlink:href="#Cmmi10-bc" transform="translate(588.083984 0.625)"/>
      <use xlink:href="#Cmmi10-3d" transform="translate(645.066406 0.625)"/>
      <use xlink:href="#Cmr10-34" transform="translate(695.066406 0.625)"/>
      <use xlink:href="#Cmr10-29" transform="translate(745.066406 0.625)"/>
      <path d="M 78.25 109.5 
L 78.25 115.75 
L 195.59375 115.75 
L 195.59375 109.5 
L 78.25 109.5 
z
"/>
      <path d="M 90.75 13.123437 
L 90.75 19.373437 
L 170.59375 19.373437 
L 170.59375 13.123437 
L 90.75 13.123437 
z
"/>
     </g>
    </g>
   </g>
  </g>
 </g>
 <defs>
  <clipPath id="p8372b07252">
   <rect x="22.430183" y="7.2" width="421.500724" height="320.181072"/>
  </clipPath>
 </defs>
</svg>
