<?xml version="1.0" encoding="utf-8" standalone="no"?>
<!DOCTYPE svg PUBLIC "-//W3C//DTD SVG 1.1//EN"
  "http://www.w3.org/Graphics/SVG/1.1/DTD/svg11.dtd">
<!-- Created with matplotlib (http://matplotlib.org/) -->
<svg height="419pt" version="1.1" viewBox="0 0 564 419" width="564pt" xmlns="http://www.w3.org/2000/svg" xmlns:xlink="http://www.w3.org/1999/xlink">
 <defs>
  <style type="text/css">
*{stroke-linecap:butt;stroke-linejoin:round;stroke-miterlimit:100000;}
  </style>
 </defs>
 <g id="figure_1">
  <g id="patch_1">
   <path d="M 0 419.848004 
L 564.48 419.848004 
L 564.48 0 
L 0 0 
z
" style="fill:#ffffff;"/>
  </g>
  <g id="axes_1">
   <g id="patch_2">
    <path d="M 7.2 412.648004 
L 557.28 412.648004 
L 557.28 7.2 
L 7.2 7.2 
z
" style="fill:#ffffff;"/>
   </g>
   <g id="line2d_1">
    <path clip-path="url(#p002523f7c4)" d="M 17.778462 242.894578 
L 19.889288 203.703264 
L 26.036345 85.840417 
L 27.697588 59.639554 
L 28.954229 43.131538 
L 30.120161 30.877769 
L 31.107348 23.079218 
L 31.900213 18.654002 
L 32.42879 16.652693 
L 32.957366 15.429686 
L 33.221655 15.113982 
L 33.485943 14.997077 
L 33.750231 15.079854 
L 34.01452 15.362937 
L 34.543096 16.531228 
L 35.041179 18.366315 
L 35.689287 21.814352 
L 36.492753 27.729236 
L 37.29622 35.411185 
L 38.26038 46.858077 
L 39.385232 63.072358 
L 40.653125 84.640325 
L 42.171792 114.281349 
L 44.100507 156.180299 
L 49.790269 283.215449 
L 51.489646 315.206418 
L 52.965323 338.717982 
L 54.25218 355.44533 
L 55.281665 366.081123 
L 56.255828 373.805912 
L 57.121795 378.734703 
L 57.731615 381.112114 
L 58.341435 382.595299 
L 58.747982 383.09433 
L 59.154529 383.208068 
L 59.561076 382.943263 
L 59.967623 382.307649 
L 60.390224 381.263189 
L 61.024126 378.98655 
L 61.658029 375.894024 
L 62.503232 370.578812 
L 63.56494 362.137199 
L 64.64747 351.746971 
L 66.132805 335.067052 
L 67.886677 312.676702 
L 70.268655 279.577009 
L 75.101461 212.095488 
L 77.553298 181.104655 
L 79.881825 154.723059 
L 82.050262 132.989755 
L 84.073584 115.190534 
L 85.571553 103.580334 
L 87.069523 93.373691 
L 88.690839 84.053416 
L 89.704879 79.238189 
L 90.652081 75.524107 
L 91.485026 72.941177 
L 92.203713 71.268715 
L 92.922401 70.149255 
L 93.641089 69.619833 
L 94.265368 69.667854 
L 94.795239 70.098173 
L 95.32511 70.90157 
L 95.854981 72.092025 
L 96.649787 74.63221 
L 97.444594 78.113617 
L 98.2394 82.570873 
L 99.216584 89.427545 
L 100.374779 99.558752 
L 101.532975 111.870546 
L 102.980719 130.251505 
L 104.525691 153.289153 
L 106.216507 182.00636 
L 108.555483 226.120213 
L 113.662478 324.839641 
L 115.311496 352.190166 
L 116.698255 371.689179 
L 117.809414 384.468763 
L 118.698341 392.627119 
L 119.587269 398.794851 
L 120.218604 401.902214 
L 120.832259 403.873371 
L 121.241362 404.601234 
L 121.612336 404.850732 
L 121.94518 404.739958 
L 122.278024 404.311384 
L 122.77729 403.071552 
L 123.276557 401.116323 
L 123.942245 397.404171 
L 124.584687 392.64084 
L 125.536728 383.508195 
L 126.488768 372.010526 
L 127.678819 354.563648 
L 129.13837 329.063765 
L 130.936981 292.703348 
L 132.478647 258.594927 
L 137.34845 148.87443 
L 139.159563 113.264158 
L 140.653854 88.070928 
L 141.857686 71.078988 
L 143.061518 57.342969 
L 143.975338 49.204693 
L 144.911048 42.968427 
L 145.594217 39.761744 
L 146.277387 37.68346 
L 146.789764 36.855172 
L 147.131348 36.64518 
L 147.472933 36.704602 
L 147.835137 37.057119 
L 148.217962 37.747402 
L 148.792198 39.37878 
L 149.366434 41.700246 
L 150.132082 45.815008 
L 151.105178 52.606968 
L 151.902898 59.360907 
L 153.099477 71.245255 
L 154.387324 85.999694 
L 156.493541 113.296463 
L 160.995618 176.839954 
L 163.978881 217.21638 
L 166.547403 248.624658 
L 168.556832 270.601849 
L 170.748641 291.887074 
L 172.479362 306.707468 
L 174.406359 321.090164 
L 176.01586 331.269309 
L 177.088861 337.031925 
L 178.416455 342.895617 
L 179.479184 346.466442 
L 180.294089 348.455982 
L 180.837359 349.392942 
L 181.38063 349.999836 
L 181.732598 350.209233 
L 182.084567 350.268914 
L 182.436536 350.1745 
L 182.788505 349.921652 
L 183.492442 348.92366 
L 184.19638 347.242006 
L 185.019667 344.366913 
L 185.842955 340.471166 
L 186.666242 335.51856 
L 187.763958 327.225888 
L 188.911048 316.466766 
L 190.17762 302.11413 
L 191.653432 282.238175 
L 193.339971 255.740501 
L 195.166994 223.278465 
L 197.760192 172.978599 
L 201.590418 99.040399 
L 203.319508 69.913493 
L 204.616325 51.214505 
L 205.764512 37.464417 
L 206.844497 27.285785 
L 207.716068 21.201255 
L 208.413324 17.784715 
L 208.936267 16.098203 
L 209.433814 15.205211 
L 209.682588 15.021918 
L 209.931362 15.015253 
L 210.180136 15.185832 
L 210.677683 16.060184 
L 211.165185 17.606802 
L 211.642642 19.781322 
L 212.358827 24.255684 
L 213.075012 30.15883 
L 214.029925 40.177093 
L 215.141161 54.751598 
L 216.326315 73.441966 
L 217.51147 94.958463 
L 219.244085 130.441307 
L 221.128512 172.571029 
L 225.213665 264.886423 
L 227.079171 302.26685 
L 228.614204 328.762229 
L 229.929947 347.720362 
L 230.936097 359.622346 
L 231.985243 369.497674 
L 232.772103 375.160166 
L 233.558962 379.314777 
L 234.083535 381.249615 
L 234.617597 382.540324 
L 235.161148 383.160597 
L 235.615821 383.152116 
L 235.981616 382.803656 
L 236.347411 382.156863 
L 236.896104 380.641591 
L 237.444796 378.493906 
L 238.176386 374.69319 
L 238.985372 369.321431 
L 240.028851 360.74265 
L 241.281027 348.307854 
L 242.724907 331.607011 
L 244.43572 309.428594 
L 247.873611 261.081591 
L 251.64785 208.947343 
L 254.141375 177.764006 
L 256.365591 152.855851 
L 258.589257 130.833623 
L 260.593085 113.466729 
L 262.471073 99.374606 
L 263.998326 89.58038 
L 265.511067 81.515968 
L 266.63474 76.708839 
L 267.758413 73.034216 
L 268.4621 71.366203 
L 269.165788 70.225938 
L 269.645008 69.769217 
L 270.124229 69.584444 
L 270.60345 69.682701 
L 271.08267 70.07495 
L 271.561891 70.771921 
L 272.280722 72.411322 
L 272.999553 74.792575 
L 273.660881 77.664178 
L 274.652872 83.23921 
L 275.644862 90.380503 
L 276.644646 99.193336 
L 277.844386 111.913556 
L 279.085228 127.477519 
L 280.485072 147.806954 
L 282.063966 173.870036 
L 284.37346 216.585177 
L 290.586746 335.518725 
L 292.040802 358.49792 
L 293.387422 376.382816 
L 294.558126 388.756874 
L 295.459506 396.030096 
L 296.313482 400.975657 
L 296.819594 402.97496 
L 297.325706 404.262447 
L 297.831817 404.826958 
L 298.084873 404.835529 
L 298.337929 404.660702 
L 298.844041 403.75933 
L 299.350153 402.121985 
L 299.856264 399.751337 
L 300.590126 395.024846 
L 301.39147 388.156586 
L 302.216033 379.293604 
L 303.31545 364.803152 
L 304.689722 342.796335 
L 306.101206 316.36557 
L 307.973607 276.824509 
L 315.228996 117.658777 
L 316.771511 91.033809 
L 318.107631 71.821582 
L 319.252877 58.522476 
L 320.160549 50.178617 
L 321.075774 43.783187 
L 321.807955 40.13555 
L 322.35709 38.252462 
L 322.849243 37.178956 
L 323.158352 36.797827 
L 323.46746 36.639905 
L 323.776568 36.702331 
L 324.085676 36.981912 
L 324.394784 37.475131 
L 325.013 39.086895 
L 325.620013 41.452851 
L 326.530534 46.376714 
L 327.441054 52.828117 
L 328.658114 63.574546 
L 329.875173 76.395408 
L 331.396498 94.726596 
L 333.518962 123.195628 
L 340.758506 223.2504 
L 343.186821 252.414047 
L 345.317322 275.229113 
L 347.275566 293.861718 
L 349.105398 309.240222 
L 350.722372 321.147231 
L 352.233585 330.747483 
L 353.42751 337.18513 
L 354.608179 342.443215 
L 355.463851 345.493759 
L 356.319522 347.844185 
L 357.175194 349.435411 
L 357.745642 350.04396 
L 358.31609 350.268914 
L 358.886538 350.091589 
L 359.326762 349.668079 
L 359.746911 349.022608 
L 360.587208 346.996805 
L 361.21743 344.808966 
L 362.057728 340.963166 
L 363.041758 335.062529 
L 364.10318 326.958822 
L 365.164602 317.022727 
L 366.243927 305.046781 
L 367.694961 286.063356 
L 369.351996 260.651885 
L 370.904524 233.762359 
L 373.340531 187.375249 
L 378.024867 96.772281 
L 379.852543 66.447287 
L 381.242415 47.118791 
L 382.327675 34.804467 
L 383.291246 26.183659 
L 384.011438 21.273413 
L 384.731631 17.742945 
L 385.244594 16.096619 
L 385.790392 15.155286 
L 386.063291 15.001619 
L 386.33619 15.060737 
L 386.609089 15.333364 
L 387.154886 16.520571 
L 387.584736 18.057823 
L 388.229511 21.353426 
L 388.874286 25.822688 
L 389.733985 33.564212 
L 390.593685 43.265691 
L 391.68306 58.199463 
L 392.878776 77.669746 
L 394.143657 101.277577 
L 395.965051 139.444317 
L 396.702261 155.872848 
L 402.022512 275.395915 
L 403.653205 307.171219 
L 405.183556 332.824437 
L 406.546082 351.615997 
L 407.636103 363.623071 
L 408.453619 370.776287 
L 409.271135 376.309208 
L 410.075123 380.163327 
L 410.606607 381.852106 
L 411.179335 382.916531 
L 411.616146 383.209947 
L 412.052958 383.063293 
L 412.48977 382.485752 
L 412.926582 381.487771 
L 413.581799 379.228215 
L 414.237017 376.092903 
L 415.041074 371.120592 
L 416.035351 363.397789 
L 417.261226 351.763814 
L 418.895727 333.281607 
L 420.728576 309.629192 
L 422.561425 284.15712 
L 427.560531 214.170968 
L 429.965279 183.55547 
L 432.13667 158.602943 
L 433.937434 139.981901 
L 435.738198 123.255394 
L 437.793944 106.494108 
L 439.653088 93.575167 
L 441.027068 85.521181 
L 442.089314 80.261337 
L 443.15156 75.935533 
L 444.123612 72.878918 
L 445.095665 70.770459 
L 445.710981 69.966294 
L 446.326296 69.601239 
L 446.633954 69.590722 
L 446.941612 69.698774 
L 447.556928 70.282112 
L 448.302028 71.67105 
L 449.047127 73.843278 
L 449.792226 76.833396 
L 450.796753 82.211771 
L 451.834461 89.447002 
L 452.872169 98.426575 
L 453.909877 109.158558 
L 455.008326 122.397972 
L 456.288996 140.168596 
L 457.83379 164.652756 
L 459.553044 195.168102 
L 461.822971 238.964925 
L 465.981753 319.546348 
L 467.773298 349.816482 
L 469.185495 370.043962 
L 470.421166 384.431528 
L 471.369401 393.073183 
L 472.186458 398.701006 
L 472.799251 401.759444 
L 473.412043 403.78772 
L 473.820572 404.555953 
L 474.2291 404.850927 
L 474.618902 404.687837 
L 474.989976 404.127466 
L 475.361051 403.171332 
L 475.917663 400.996277 
L 476.474275 397.93767 
L 477.216424 392.50468 
L 478.020488 384.914903 
L 479.051365 372.70738 
L 480.098751 357.649393 
L 481.407984 335.472454 
L 482.979062 304.782461 
L 485.240564 255.264071 
L 490.065336 146.756553 
L 491.961375 109.893918 
L 493.536708 84.027068 
L 494.779588 67.263686 
L 495.847432 55.672143 
L 496.701706 48.353622 
L 497.491394 43.163502 
L 498.216495 39.735162 
L 498.835475 37.814778 
L 499.348334 36.916504 
L 499.604763 36.699511 
L 499.861193 36.635281 
L 500.117622 36.722113 
L 500.630481 37.341367 
L 501.201594 38.71268 
L 501.772707 40.776869 
L 502.629376 45.107113 
L 503.486044 50.818557 
L 504.62827 60.369408 
L 505.836453 72.558239 
L 507.429131 91.254141 
L 509.287342 115.736482 
L 517.852141 233.043793 
L 520.114698 259.328219 
L 522.106853 280.021534 
L 524.126711 298.635306 
L 525.671064 311.247897 
L 527.338838 323.233138 
L 528.934351 332.984288 
L 530.227269 339.517301 
L 531.43436 344.372107 
L 532.316846 347.076207 
L 533.199331 348.995985 
L 533.640574 349.640917 
L 534.319544 350.197815 
L 534.794999 350.258788 
L 535.270454 350.036429 
L 535.745909 349.520117 
L 536.343297 348.438808 
L 537.062617 346.471604 
L 537.781938 343.747812 
L 538.501258 340.239367 
L 539.56942 333.532699 
L 540.632173 325.038743 
L 541.900304 312.497809 
L 543.132577 297.83419 
L 544.570229 277.783832 
L 546.2714 250.375941 
L 546.701538 242.894578 
L 546.701538 242.894578 
" style="fill:none;stroke:#0000ff;stroke-linecap:square;"/>
   </g>
   <g id="patch_3">
    <path d="M 7.2 209.925336 
L 557.28 209.925336 
" style="fill:none;stroke:#000000;stroke-linecap:square;stroke-linejoin:miter;stroke-width:0.8;"/>
   </g>
   <g id="patch_4">
    <path d="M 282.24 412.648004 
L 282.24 7.2 
" style="fill:none;stroke:#000000;stroke-linecap:square;stroke-linejoin:miter;stroke-width:0.8;"/>
   </g>
   <g id="matplotlib.axis_1">
    <g id="xtick_1">
     <g id="line2d_2">
      <defs>
       <path d="M 0 0 
L 0 -4 
" id="mb4c21e1a6e" style="stroke:#000000;stroke-width:0.5;"/>
      </defs>
      <g>
       <use style="stroke:#000000;stroke-width:0.5;" x="141.938796321" xlink:href="#mb4c21e1a6e" y="209.925335895"/>
      </g>
     </g>
     <g id="text_1">
      <!-- -5 -->
      <defs>
       <path d="M 4.890625 31.390625 
L 31.203125 31.390625 
L 31.203125 23.390625 
L 4.890625 23.390625 
z
" id="BitstreamVeraSans-Roman-2d"/>
       <path d="M 10.796875 72.90625 
L 49.515625 72.90625 
L 49.515625 64.59375 
L 19.828125 64.59375 
L 19.828125 46.734375 
Q 21.96875 47.46875 24.109375 47.828125 
Q 26.265625 48.1875 28.421875 48.1875 
Q 40.625 48.1875 47.75 41.5 
Q 54.890625 34.8125 54.890625 23.390625 
Q 54.890625 11.625 47.5625 5.09375 
Q 40.234375 -1.421875 26.90625 -1.421875 
Q 22.3125 -1.421875 17.546875 -0.640625 
Q 12.796875 0.140625 7.71875 1.703125 
L 7.71875 11.625 
Q 12.109375 9.234375 16.796875 8.0625 
Q 21.484375 6.890625 26.703125 6.890625 
Q 35.15625 6.890625 40.078125 11.328125 
Q 45.015625 15.765625 45.015625 23.390625 
Q 45.015625 31 40.078125 35.4375 
Q 35.15625 39.890625 26.703125 39.890625 
Q 22.75 39.890625 18.8125 39.015625 
Q 14.890625 38.140625 10.796875 36.28125 
z
" id="BitstreamVeraSans-Roman-35"/>
      </defs>
      <g transform="translate(136.953640071 221.523773395)scale(0.1 -0.1)">
       <use xlink:href="#BitstreamVeraSans-Roman-2d"/>
       <use x="36.083984375" xlink:href="#BitstreamVeraSans-Roman-35"/>
      </g>
     </g>
    </g>
    <g id="xtick_2">
     <g id="line2d_3">
      <g>
       <use style="stroke:#000000;stroke-width:0.5;" x="282.24" xlink:href="#mb4c21e1a6e" y="209.925335895"/>
      </g>
     </g>
    </g>
    <g id="xtick_3">
     <g id="line2d_4">
      <g>
       <use style="stroke:#000000;stroke-width:0.5;" x="422.541203679" xlink:href="#mb4c21e1a6e" y="209.925335895"/>
      </g>
     </g>
     <g id="text_2">
      <!-- 5 -->
      <g transform="translate(419.359953679 221.523773395)scale(0.1 -0.1)">
       <use xlink:href="#BitstreamVeraSans-Roman-35"/>
      </g>
     </g>
    </g>
    <g id="xtick_4">
     <g id="line2d_5">
      <defs>
       <path d="M 0 0 
L 0 -2 
" id="mb357de0187" style="stroke:#000000;stroke-width:0.5;"/>
      </defs>
      <g>
       <use style="stroke:#000000;stroke-width:0.5;" x="29.697833377" xlink:href="#mb357de0187" y="209.925335895"/>
      </g>
     </g>
    </g>
    <g id="xtick_5">
     <g id="line2d_6">
      <g>
       <use style="stroke:#000000;stroke-width:0.5;" x="57.7580741128" xlink:href="#mb357de0187" y="209.925335895"/>
      </g>
     </g>
    </g>
    <g id="xtick_6">
     <g id="line2d_7">
      <g>
       <use style="stroke:#000000;stroke-width:0.5;" x="85.8183148487" xlink:href="#mb357de0187" y="209.925335895"/>
      </g>
     </g>
    </g>
    <g id="xtick_7">
     <g id="line2d_8">
      <g>
       <use style="stroke:#000000;stroke-width:0.5;" x="113.878555585" xlink:href="#mb357de0187" y="209.925335895"/>
      </g>
     </g>
    </g>
    <g id="xtick_8">
     <g id="line2d_9">
      <g>
       <use style="stroke:#000000;stroke-width:0.5;" x="169.999037056" xlink:href="#mb357de0187" y="209.925335895"/>
      </g>
     </g>
    </g>
    <g id="xtick_9">
     <g id="line2d_10">
      <g>
       <use style="stroke:#000000;stroke-width:0.5;" x="198.059277792" xlink:href="#mb357de0187" y="209.925335895"/>
      </g>
     </g>
    </g>
    <g id="xtick_10">
     <g id="line2d_11">
      <g>
       <use style="stroke:#000000;stroke-width:0.5;" x="226.119518528" xlink:href="#mb357de0187" y="209.925335895"/>
      </g>
     </g>
    </g>
    <g id="xtick_11">
     <g id="line2d_12">
      <g>
       <use style="stroke:#000000;stroke-width:0.5;" x="254.179759264" xlink:href="#mb357de0187" y="209.925335895"/>
      </g>
     </g>
    </g>
    <g id="xtick_12">
     <g id="line2d_13">
      <g>
       <use style="stroke:#000000;stroke-width:0.5;" x="310.300240736" xlink:href="#mb357de0187" y="209.925335895"/>
      </g>
     </g>
    </g>
    <g id="xtick_13">
     <g id="line2d_14">
      <g>
       <use style="stroke:#000000;stroke-width:0.5;" x="338.360481472" xlink:href="#mb357de0187" y="209.925335895"/>
      </g>
     </g>
    </g>
    <g id="xtick_14">
     <g id="line2d_15">
      <g>
       <use style="stroke:#000000;stroke-width:0.5;" x="366.420722208" xlink:href="#mb357de0187" y="209.925335895"/>
      </g>
     </g>
    </g>
    <g id="xtick_15">
     <g id="line2d_16">
      <g>
       <use style="stroke:#000000;stroke-width:0.5;" x="394.480962944" xlink:href="#mb357de0187" y="209.925335895"/>
      </g>
     </g>
    </g>
    <g id="xtick_16">
     <g id="line2d_17">
      <g>
       <use style="stroke:#000000;stroke-width:0.5;" x="450.601444415" xlink:href="#mb357de0187" y="209.925335895"/>
      </g>
     </g>
    </g>
    <g id="xtick_17">
     <g id="line2d_18">
      <g>
       <use style="stroke:#000000;stroke-width:0.5;" x="478.661685151" xlink:href="#mb357de0187" y="209.925335895"/>
      </g>
     </g>
    </g>
    <g id="xtick_18">
     <g id="line2d_19">
      <g>
       <use style="stroke:#000000;stroke-width:0.5;" x="506.721925887" xlink:href="#mb357de0187" y="209.925335895"/>
      </g>
     </g>
    </g>
    <g id="xtick_19">
     <g id="line2d_20">
      <g>
       <use style="stroke:#000000;stroke-width:0.5;" x="534.782166623" xlink:href="#mb357de0187" y="209.925335895"/>
      </g>
     </g>
    </g>
   </g>
   <g id="matplotlib.axis_2">
    <g id="ytick_1">
     <g id="line2d_21">
      <defs>
       <path d="M 0 0 
L 4 0 
" id="m2347912178" style="stroke:#000000;stroke-width:0.5;"/>
      </defs>
      <g>
       <use style="stroke:#000000;stroke-width:0.5;" x="282.24" xlink:href="#m2347912178" y="407.740786775"/>
      </g>
     </g>
     <g id="text_3">
      <!-- -6 -->
      <defs>
       <path d="M 33.015625 40.375 
Q 26.375 40.375 22.484375 35.828125 
Q 18.609375 31.296875 18.609375 23.390625 
Q 18.609375 15.53125 22.484375 10.953125 
Q 26.375 6.390625 33.015625 6.390625 
Q 39.65625 6.390625 43.53125 10.953125 
Q 47.40625 15.53125 47.40625 23.390625 
Q 47.40625 31.296875 43.53125 35.828125 
Q 39.65625 40.375 33.015625 40.375 
M 52.59375 71.296875 
L 52.59375 62.3125 
Q 48.875 64.0625 45.09375 64.984375 
Q 41.3125 65.921875 37.59375 65.921875 
Q 27.828125 65.921875 22.671875 59.328125 
Q 17.53125 52.734375 16.796875 39.40625 
Q 19.671875 43.65625 24.015625 45.921875 
Q 28.375 48.1875 33.59375 48.1875 
Q 44.578125 48.1875 50.953125 41.515625 
Q 57.328125 34.859375 57.328125 23.390625 
Q 57.328125 12.15625 50.6875 5.359375 
Q 44.046875 -1.421875 33.015625 -1.421875 
Q 20.359375 -1.421875 13.671875 8.265625 
Q 6.984375 17.96875 6.984375 36.375 
Q 6.984375 53.65625 15.1875 63.9375 
Q 23.390625 74.21875 37.203125 74.21875 
Q 40.921875 74.21875 44.703125 73.484375 
Q 48.484375 72.75 52.59375 71.296875 
" id="BitstreamVeraSans-Roman-36"/>
      </defs>
      <g transform="translate(268.2696875 410.500161775)scale(0.1 -0.1)">
       <use xlink:href="#BitstreamVeraSans-Roman-2d"/>
       <use x="36.083984375" xlink:href="#BitstreamVeraSans-Roman-36"/>
      </g>
     </g>
    </g>
    <g id="ytick_2">
     <g id="line2d_22">
      <g>
       <use style="stroke:#000000;stroke-width:0.5;" x="282.24" xlink:href="#m2347912178" y="341.802303148"/>
      </g>
     </g>
     <g id="text_4">
      <!-- -4 -->
      <defs>
       <path d="M 37.796875 64.3125 
L 12.890625 25.390625 
L 37.796875 25.390625 
z
M 35.203125 72.90625 
L 47.609375 72.90625 
L 47.609375 25.390625 
L 58.015625 25.390625 
L 58.015625 17.1875 
L 47.609375 17.1875 
L 47.609375 0 
L 37.796875 0 
L 37.796875 17.1875 
L 4.890625 17.1875 
L 4.890625 26.703125 
z
" id="BitstreamVeraSans-Roman-34"/>
      </defs>
      <g transform="translate(268.2696875 344.561678148)scale(0.1 -0.1)">
       <use xlink:href="#BitstreamVeraSans-Roman-2d"/>
       <use x="36.083984375" xlink:href="#BitstreamVeraSans-Roman-34"/>
      </g>
     </g>
    </g>
    <g id="ytick_3">
     <g id="line2d_23">
      <g>
       <use style="stroke:#000000;stroke-width:0.5;" x="282.24" xlink:href="#m2347912178" y="275.863819522"/>
      </g>
     </g>
     <g id="text_5">
      <!-- -2 -->
      <defs>
       <path d="M 19.1875 8.296875 
L 53.609375 8.296875 
L 53.609375 0 
L 7.328125 0 
L 7.328125 8.296875 
Q 12.9375 14.109375 22.625 23.890625 
Q 32.328125 33.6875 34.8125 36.53125 
Q 39.546875 41.84375 41.421875 45.53125 
Q 43.3125 49.21875 43.3125 52.78125 
Q 43.3125 58.59375 39.234375 62.25 
Q 35.15625 65.921875 28.609375 65.921875 
Q 23.96875 65.921875 18.8125 64.3125 
Q 13.671875 62.703125 7.8125 59.421875 
L 7.8125 69.390625 
Q 13.765625 71.78125 18.9375 73 
Q 24.125 74.21875 28.421875 74.21875 
Q 39.75 74.21875 46.484375 68.546875 
Q 53.21875 62.890625 53.21875 53.421875 
Q 53.21875 48.921875 51.53125 44.890625 
Q 49.859375 40.875 45.40625 35.40625 
Q 44.1875 33.984375 37.640625 27.21875 
Q 31.109375 20.453125 19.1875 8.296875 
" id="BitstreamVeraSans-Roman-32"/>
      </defs>
      <g transform="translate(268.2696875 278.623194522)scale(0.1 -0.1)">
       <use xlink:href="#BitstreamVeraSans-Roman-2d"/>
       <use x="36.083984375" xlink:href="#BitstreamVeraSans-Roman-32"/>
      </g>
     </g>
    </g>
    <g id="ytick_4">
     <g id="line2d_24">
      <g>
       <use style="stroke:#000000;stroke-width:0.5;" x="282.24" xlink:href="#m2347912178" y="209.925335895"/>
      </g>
     </g>
    </g>
    <g id="ytick_5">
     <g id="line2d_25">
      <g>
       <use style="stroke:#000000;stroke-width:0.5;" x="282.24" xlink:href="#m2347912178" y="143.986852268"/>
      </g>
     </g>
     <g id="text_6">
      <!-- 2 -->
      <g transform="translate(271.8775 146.746227268)scale(0.1 -0.1)">
       <use xlink:href="#BitstreamVeraSans-Roman-32"/>
      </g>
     </g>
    </g>
    <g id="ytick_6">
     <g id="line2d_26">
      <g>
       <use style="stroke:#000000;stroke-width:0.5;" x="282.24" xlink:href="#m2347912178" y="78.0483686417"/>
      </g>
     </g>
     <g id="text_7">
      <!-- 4 -->
      <g transform="translate(271.8775 80.8077436417)scale(0.1 -0.1)">
       <use xlink:href="#BitstreamVeraSans-Roman-34"/>
      </g>
     </g>
    </g>
    <g id="ytick_7">
     <g id="line2d_27">
      <g>
       <use style="stroke:#000000;stroke-width:0.5;" x="282.24" xlink:href="#m2347912178" y="12.1098850151"/>
      </g>
     </g>
     <g id="text_8">
      <!-- 6 -->
      <g transform="translate(271.8775 14.8692600151)scale(0.1 -0.1)">
       <use xlink:href="#BitstreamVeraSans-Roman-36"/>
      </g>
     </g>
    </g>
    <g id="ytick_8">
     <g id="line2d_28">
      <defs>
       <path d="M 0 0 
L 2 0 
" id="m5078cf863e" style="stroke:#000000;stroke-width:0.5;"/>
      </defs>
      <g>
       <use style="stroke:#000000;stroke-width:0.5;" x="282.24" xlink:href="#m5078cf863e" y="391.256165868"/>
      </g>
     </g>
    </g>
    <g id="ytick_9">
     <g id="line2d_29">
      <g>
       <use style="stroke:#000000;stroke-width:0.5;" x="282.24" xlink:href="#m5078cf863e" y="374.771544962"/>
      </g>
     </g>
    </g>
    <g id="ytick_10">
     <g id="line2d_30">
      <g>
       <use style="stroke:#000000;stroke-width:0.5;" x="282.24" xlink:href="#m5078cf863e" y="358.286924055"/>
      </g>
     </g>
    </g>
    <g id="ytick_11">
     <g id="line2d_31">
      <g>
       <use style="stroke:#000000;stroke-width:0.5;" x="282.24" xlink:href="#m5078cf863e" y="325.317682242"/>
      </g>
     </g>
    </g>
    <g id="ytick_12">
     <g id="line2d_32">
      <g>
       <use style="stroke:#000000;stroke-width:0.5;" x="282.24" xlink:href="#m5078cf863e" y="308.833061335"/>
      </g>
     </g>
    </g>
    <g id="ytick_13">
     <g id="line2d_33">
      <g>
       <use style="stroke:#000000;stroke-width:0.5;" x="282.24" xlink:href="#m5078cf863e" y="292.348440428"/>
      </g>
     </g>
    </g>
    <g id="ytick_14">
     <g id="line2d_34">
      <g>
       <use style="stroke:#000000;stroke-width:0.5;" x="282.24" xlink:href="#m5078cf863e" y="259.379198615"/>
      </g>
     </g>
    </g>
    <g id="ytick_15">
     <g id="line2d_35">
      <g>
       <use style="stroke:#000000;stroke-width:0.5;" x="282.24" xlink:href="#m5078cf863e" y="242.894577708"/>
      </g>
     </g>
    </g>
    <g id="ytick_16">
     <g id="line2d_36">
      <g>
       <use style="stroke:#000000;stroke-width:0.5;" x="282.24" xlink:href="#m5078cf863e" y="226.409956802"/>
      </g>
     </g>
    </g>
    <g id="ytick_17">
     <g id="line2d_37">
      <g>
       <use style="stroke:#000000;stroke-width:0.5;" x="282.24" xlink:href="#m5078cf863e" y="193.440714988"/>
      </g>
     </g>
    </g>
    <g id="ytick_18">
     <g id="line2d_38">
      <g>
       <use style="stroke:#000000;stroke-width:0.5;" x="282.24" xlink:href="#m5078cf863e" y="176.956094082"/>
      </g>
     </g>
    </g>
    <g id="ytick_19">
     <g id="line2d_39">
      <g>
       <use style="stroke:#000000;stroke-width:0.5;" x="282.24" xlink:href="#m5078cf863e" y="160.471473175"/>
      </g>
     </g>
    </g>
    <g id="ytick_20">
     <g id="line2d_40">
      <g>
       <use style="stroke:#000000;stroke-width:0.5;" x="282.24" xlink:href="#m5078cf863e" y="127.502231362"/>
      </g>
     </g>
    </g>
    <g id="ytick_21">
     <g id="line2d_41">
      <g>
       <use style="stroke:#000000;stroke-width:0.5;" x="282.24" xlink:href="#m5078cf863e" y="111.017610455"/>
      </g>
     </g>
    </g>
    <g id="ytick_22">
     <g id="line2d_42">
      <g>
       <use style="stroke:#000000;stroke-width:0.5;" x="282.24" xlink:href="#m5078cf863e" y="94.5329895483"/>
      </g>
     </g>
    </g>
    <g id="ytick_23">
     <g id="line2d_43">
      <g>
       <use style="stroke:#000000;stroke-width:0.5;" x="282.24" xlink:href="#m5078cf863e" y="61.563747735"/>
      </g>
     </g>
    </g>
    <g id="ytick_24">
     <g id="line2d_44">
      <g>
       <use style="stroke:#000000;stroke-width:0.5;" x="282.24" xlink:href="#m5078cf863e" y="45.0791268284"/>
      </g>
     </g>
    </g>
    <g id="ytick_25">
     <g id="line2d_45">
      <g>
       <use style="stroke:#000000;stroke-width:0.5;" x="282.24" xlink:href="#m5078cf863e" y="28.5945059217"/>
      </g>
     </g>
    </g>
   </g>
  </g>
 </g>
 <defs>
  <clipPath id="p002523f7c4">
   <rect height="405.448004219" width="550.08" x="7.2" y="7.2"/>
  </clipPath>
 </defs>
</svg>
