<?xml version="1.0" encoding="utf-8" standalone="no"?>
<!DOCTYPE svg PUBLIC "-//W3C//DTD SVG 1.1//EN"
  "http://www.w3.org/Graphics/SVG/1.1/DTD/svg11.dtd">
<svg xmlns:xlink="http://www.w3.org/1999/xlink" width="451.130907pt" height="337.810931pt" viewBox="0 0 451.130907 337.810931" xmlns="http://www.w3.org/2000/svg" version="1.1">
 <metadata>
  <rdf:RDF xmlns:dc="http://purl.org/dc/elements/1.1/" xmlns:cc="http://creativecommons.org/ns#" xmlns:rdf="http://www.w3.org/1999/02/22-rdf-syntax-ns#">
   <cc:Work>
    <dc:type rdf:resource="http://purl.org/dc/dcmitype/StillImage"/>
    <dc:date>2022-03-16T16:50:44.160976</dc:date>
    <dc:format>image/svg+xml</dc:format>
    <dc:creator>
     <cc:Agent>
      <dc:title>Matplotlib v3.5.1, https://matplotlib.org/</dc:title>
     </cc:Agent>
    </dc:creator>
   </cc:Work>
  </rdf:RDF>
 </metadata>
 <defs>
  <style type="text/css">*{stroke-linejoin: round; stroke-linecap: butt}</style>
 </defs>
 <g id="figure_1">
  <g id="patch_1">
   <path d="M 0 337.810931 
L 451.130907 337.810931 
L 451.130907 0 
L 0 0 
z
" style="fill: #ffffff"/>
  </g>
  <g id="axes_1">
   <g id="patch_2">
    <path d="M 22.430183 330.610931 
L 443.930907 330.610931 
L 443.930907 8.534417 
L 22.430183 8.534417 
z
" style="fill: #ffffff"/>
   </g>
   <g id="matplotlib.axis_1">
    <g id="xtick_1">
     <g id="line2d_1">
      <defs>
       <path id="m440cba44cd" d="M 0 0 
L 0 3.5 
" style="stroke: #000000; stroke-width: 0.8"/>
      </defs>
      <g>
       <use xlink:href="#m440cba44cd" x="38.482813" y="133.172722" style="stroke: #000000; stroke-width: 0.8"/>
      </g>
     </g>
    </g>
    <g id="xtick_2">
     <g id="line2d_2">
      <g>
       <use xlink:href="#m440cba44cd" x="117.951275" y="133.172722" style="stroke: #000000; stroke-width: 0.8"/>
      </g>
     </g>
     <g id="text_1">
      <!-- 10 -->
      <g transform="translate(111.588775 147.77116)scale(0.1 -0.1)">
       <defs>
        <path id="DejaVuSans-31" d="M 794 531 
L 1825 531 
L 1825 4091 
L 703 3866 
L 703 4441 
L 1819 4666 
L 2450 4666 
L 2450 531 
L 3481 531 
L 3481 0 
L 794 0 
L 794 531 
z
" transform="scale(0.015625)"/>
        <path id="DejaVuSans-30" d="M 2034 4250 
Q 1547 4250 1301 3770 
Q 1056 3291 1056 2328 
Q 1056 1369 1301 889 
Q 1547 409 2034 409 
Q 2525 409 2770 889 
Q 3016 1369 3016 2328 
Q 3016 3291 2770 3770 
Q 2525 4250 2034 4250 
z
M 2034 4750 
Q 2819 4750 3233 4129 
Q 3647 3509 3647 2328 
Q 3647 1150 3233 529 
Q 2819 -91 2034 -91 
Q 1250 -91 836 529 
Q 422 1150 422 2328 
Q 422 3509 836 4129 
Q 1250 4750 2034 4750 
z
" transform="scale(0.015625)"/>
       </defs>
       <use xlink:href="#DejaVuSans-31"/>
       <use xlink:href="#DejaVuSans-30" x="63.623047"/>
      </g>
     </g>
    </g>
    <g id="xtick_3">
     <g id="line2d_3">
      <g>
       <use xlink:href="#m440cba44cd" x="197.419737" y="133.172722" style="stroke: #000000; stroke-width: 0.8"/>
      </g>
     </g>
     <g id="text_2">
      <!-- 20 -->
      <g transform="translate(191.057237 147.77116)scale(0.1 -0.1)">
       <defs>
        <path id="DejaVuSans-32" d="M 1228 531 
L 3431 531 
L 3431 0 
L 469 0 
L 469 531 
Q 828 903 1448 1529 
Q 2069 2156 2228 2338 
Q 2531 2678 2651 2914 
Q 2772 3150 2772 3378 
Q 2772 3750 2511 3984 
Q 2250 4219 1831 4219 
Q 1534 4219 1204 4116 
Q 875 4013 500 3803 
L 500 4441 
Q 881 4594 1212 4672 
Q 1544 4750 1819 4750 
Q 2544 4750 2975 4387 
Q 3406 4025 3406 3419 
Q 3406 3131 3298 2873 
Q 3191 2616 2906 2266 
Q 2828 2175 2409 1742 
Q 1991 1309 1228 531 
z
" transform="scale(0.015625)"/>
       </defs>
       <use xlink:href="#DejaVuSans-32"/>
       <use xlink:href="#DejaVuSans-30" x="63.623047"/>
      </g>
     </g>
    </g>
    <g id="xtick_4">
     <g id="line2d_4">
      <g>
       <use xlink:href="#m440cba44cd" x="276.888199" y="133.172722" style="stroke: #000000; stroke-width: 0.8"/>
      </g>
     </g>
     <g id="text_3">
      <!-- 30 -->
      <g transform="translate(270.525699 147.77116)scale(0.1 -0.1)">
       <defs>
        <path id="DejaVuSans-33" d="M 2597 2516 
Q 3050 2419 3304 2112 
Q 3559 1806 3559 1356 
Q 3559 666 3084 287 
Q 2609 -91 1734 -91 
Q 1441 -91 1130 -33 
Q 819 25 488 141 
L 488 750 
Q 750 597 1062 519 
Q 1375 441 1716 441 
Q 2309 441 2620 675 
Q 2931 909 2931 1356 
Q 2931 1769 2642 2001 
Q 2353 2234 1838 2234 
L 1294 2234 
L 1294 2753 
L 1863 2753 
Q 2328 2753 2575 2939 
Q 2822 3125 2822 3475 
Q 2822 3834 2567 4026 
Q 2313 4219 1838 4219 
Q 1578 4219 1281 4162 
Q 984 4106 628 3988 
L 628 4550 
Q 988 4650 1302 4700 
Q 1616 4750 1894 4750 
Q 2613 4750 3031 4423 
Q 3450 4097 3450 3541 
Q 3450 3153 3228 2886 
Q 3006 2619 2597 2516 
z
" transform="scale(0.015625)"/>
       </defs>
       <use xlink:href="#DejaVuSans-33"/>
       <use xlink:href="#DejaVuSans-30" x="63.623047"/>
      </g>
     </g>
    </g>
    <g id="xtick_5">
     <g id="line2d_5">
      <g>
       <use xlink:href="#m440cba44cd" x="356.356662" y="133.172722" style="stroke: #000000; stroke-width: 0.8"/>
      </g>
     </g>
     <g id="text_4">
      <!-- 40 -->
      <g transform="translate(349.994162 147.77116)scale(0.1 -0.1)">
       <defs>
        <path id="DejaVuSans-34" d="M 2419 4116 
L 825 1625 
L 2419 1625 
L 2419 4116 
z
M 2253 4666 
L 3047 4666 
L 3047 1625 
L 3713 1625 
L 3713 1100 
L 3047 1100 
L 3047 0 
L 2419 0 
L 2419 1100 
L 313 1100 
L 313 1709 
L 2253 4666 
z
" transform="scale(0.015625)"/>
       </defs>
       <use xlink:href="#DejaVuSans-34"/>
       <use xlink:href="#DejaVuSans-30" x="63.623047"/>
      </g>
     </g>
    </g>
    <g id="xtick_6">
     <g id="line2d_6">
      <g>
       <use xlink:href="#m440cba44cd" x="435.825124" y="133.172722" style="stroke: #000000; stroke-width: 0.8"/>
      </g>
     </g>
     <g id="text_5">
      <!-- 50 -->
      <g transform="translate(429.462624 147.77116)scale(0.1 -0.1)">
       <defs>
        <path id="DejaVuSans-35" d="M 691 4666 
L 3169 4666 
L 3169 4134 
L 1269 4134 
L 1269 2991 
Q 1406 3038 1543 3061 
Q 1681 3084 1819 3084 
Q 2600 3084 3056 2656 
Q 3513 2228 3513 1497 
Q 3513 744 3044 326 
Q 2575 -91 1722 -91 
Q 1428 -91 1123 -41 
Q 819 9 494 109 
L 494 744 
Q 775 591 1075 516 
Q 1375 441 1709 441 
Q 2250 441 2565 725 
Q 2881 1009 2881 1497 
Q 2881 1984 2565 2268 
Q 2250 2553 1709 2553 
Q 1456 2553 1204 2497 
Q 953 2441 691 2322 
L 691 4666 
z
" transform="scale(0.015625)"/>
       </defs>
       <use xlink:href="#DejaVuSans-35"/>
       <use xlink:href="#DejaVuSans-30" x="63.623047"/>
      </g>
     </g>
    </g>
    <g id="xtick_7">
     <g id="line2d_7">
      <defs>
       <path id="m71883d9e97" d="M 0 0 
L 0 2 
" style="stroke: #000000; stroke-width: 0.6"/>
      </defs>
      <g>
       <use xlink:href="#m71883d9e97" x="22.58912" y="133.172722" style="stroke: #000000; stroke-width: 0.6"/>
      </g>
     </g>
    </g>
    <g id="xtick_8">
     <g id="line2d_8">
      <g>
       <use xlink:href="#m71883d9e97" x="54.376505" y="133.172722" style="stroke: #000000; stroke-width: 0.6"/>
      </g>
     </g>
    </g>
    <g id="xtick_9">
     <g id="line2d_9">
      <g>
       <use xlink:href="#m71883d9e97" x="70.270197" y="133.172722" style="stroke: #000000; stroke-width: 0.6"/>
      </g>
     </g>
    </g>
    <g id="xtick_10">
     <g id="line2d_10">
      <g>
       <use xlink:href="#m71883d9e97" x="86.16389" y="133.172722" style="stroke: #000000; stroke-width: 0.6"/>
      </g>
     </g>
    </g>
    <g id="xtick_11">
     <g id="line2d_11">
      <g>
       <use xlink:href="#m71883d9e97" x="102.057582" y="133.172722" style="stroke: #000000; stroke-width: 0.6"/>
      </g>
     </g>
    </g>
    <g id="xtick_12">
     <g id="line2d_12">
      <g>
       <use xlink:href="#m71883d9e97" x="133.844967" y="133.172722" style="stroke: #000000; stroke-width: 0.6"/>
      </g>
     </g>
    </g>
    <g id="xtick_13">
     <g id="line2d_13">
      <g>
       <use xlink:href="#m71883d9e97" x="149.73866" y="133.172722" style="stroke: #000000; stroke-width: 0.6"/>
      </g>
     </g>
    </g>
    <g id="xtick_14">
     <g id="line2d_14">
      <g>
       <use xlink:href="#m71883d9e97" x="165.632352" y="133.172722" style="stroke: #000000; stroke-width: 0.6"/>
      </g>
     </g>
    </g>
    <g id="xtick_15">
     <g id="line2d_15">
      <g>
       <use xlink:href="#m71883d9e97" x="181.526045" y="133.172722" style="stroke: #000000; stroke-width: 0.6"/>
      </g>
     </g>
    </g>
    <g id="xtick_16">
     <g id="line2d_16">
      <g>
       <use xlink:href="#m71883d9e97" x="213.31343" y="133.172722" style="stroke: #000000; stroke-width: 0.6"/>
      </g>
     </g>
    </g>
    <g id="xtick_17">
     <g id="line2d_17">
      <g>
       <use xlink:href="#m71883d9e97" x="229.207122" y="133.172722" style="stroke: #000000; stroke-width: 0.6"/>
      </g>
     </g>
    </g>
    <g id="xtick_18">
     <g id="line2d_18">
      <g>
       <use xlink:href="#m71883d9e97" x="245.100814" y="133.172722" style="stroke: #000000; stroke-width: 0.6"/>
      </g>
     </g>
    </g>
    <g id="xtick_19">
     <g id="line2d_19">
      <g>
       <use xlink:href="#m71883d9e97" x="260.994507" y="133.172722" style="stroke: #000000; stroke-width: 0.6"/>
      </g>
     </g>
    </g>
    <g id="xtick_20">
     <g id="line2d_20">
      <g>
       <use xlink:href="#m71883d9e97" x="292.781892" y="133.172722" style="stroke: #000000; stroke-width: 0.6"/>
      </g>
     </g>
    </g>
    <g id="xtick_21">
     <g id="line2d_21">
      <g>
       <use xlink:href="#m71883d9e97" x="308.675584" y="133.172722" style="stroke: #000000; stroke-width: 0.6"/>
      </g>
     </g>
    </g>
    <g id="xtick_22">
     <g id="line2d_22">
      <g>
       <use xlink:href="#m71883d9e97" x="324.569277" y="133.172722" style="stroke: #000000; stroke-width: 0.6"/>
      </g>
     </g>
    </g>
    <g id="xtick_23">
     <g id="line2d_23">
      <g>
       <use xlink:href="#m71883d9e97" x="340.462969" y="133.172722" style="stroke: #000000; stroke-width: 0.6"/>
      </g>
     </g>
    </g>
    <g id="xtick_24">
     <g id="line2d_24">
      <g>
       <use xlink:href="#m71883d9e97" x="372.250354" y="133.172722" style="stroke: #000000; stroke-width: 0.6"/>
      </g>
     </g>
    </g>
    <g id="xtick_25">
     <g id="line2d_25">
      <g>
       <use xlink:href="#m71883d9e97" x="388.144047" y="133.172722" style="stroke: #000000; stroke-width: 0.6"/>
      </g>
     </g>
    </g>
    <g id="xtick_26">
     <g id="line2d_26">
      <g>
       <use xlink:href="#m71883d9e97" x="404.037739" y="133.172722" style="stroke: #000000; stroke-width: 0.6"/>
      </g>
     </g>
    </g>
    <g id="xtick_27">
     <g id="line2d_27">
      <g>
       <use xlink:href="#m71883d9e97" x="419.931431" y="133.172722" style="stroke: #000000; stroke-width: 0.6"/>
      </g>
     </g>
    </g>
   </g>
   <g id="matplotlib.axis_2">
    <g id="ytick_1">
     <g id="line2d_28">
      <defs>
       <path id="m698e8c19c6" d="M 0 0 
L -3.5 0 
" style="stroke: #000000; stroke-width: 0.8"/>
      </defs>
      <g>
       <use xlink:href="#m698e8c19c6" x="38.482813" y="296.070726" style="stroke: #000000; stroke-width: 0.8"/>
      </g>
     </g>
     <g id="text_6">
      <!-- −0.8 -->
      <g transform="translate(7.2 299.869945)scale(0.1 -0.1)">
       <defs>
        <path id="DejaVuSans-2212" d="M 678 2272 
L 4684 2272 
L 4684 1741 
L 678 1741 
L 678 2272 
z
" transform="scale(0.015625)"/>
        <path id="DejaVuSans-2e" d="M 684 794 
L 1344 794 
L 1344 0 
L 684 0 
L 684 794 
z
" transform="scale(0.015625)"/>
        <path id="DejaVuSans-38" d="M 2034 2216 
Q 1584 2216 1326 1975 
Q 1069 1734 1069 1313 
Q 1069 891 1326 650 
Q 1584 409 2034 409 
Q 2484 409 2743 651 
Q 3003 894 3003 1313 
Q 3003 1734 2745 1975 
Q 2488 2216 2034 2216 
z
M 1403 2484 
Q 997 2584 770 2862 
Q 544 3141 544 3541 
Q 544 4100 942 4425 
Q 1341 4750 2034 4750 
Q 2731 4750 3128 4425 
Q 3525 4100 3525 3541 
Q 3525 3141 3298 2862 
Q 3072 2584 2669 2484 
Q 3125 2378 3379 2068 
Q 3634 1759 3634 1313 
Q 3634 634 3220 271 
Q 2806 -91 2034 -91 
Q 1263 -91 848 271 
Q 434 634 434 1313 
Q 434 1759 690 2068 
Q 947 2378 1403 2484 
z
M 1172 3481 
Q 1172 3119 1398 2916 
Q 1625 2713 2034 2713 
Q 2441 2713 2670 2916 
Q 2900 3119 2900 3481 
Q 2900 3844 2670 4047 
Q 2441 4250 2034 4250 
Q 1625 4250 1398 4047 
Q 1172 3844 1172 3481 
z
" transform="scale(0.015625)"/>
       </defs>
       <use xlink:href="#DejaVuSans-2212"/>
       <use xlink:href="#DejaVuSans-30" x="83.789062"/>
       <use xlink:href="#DejaVuSans-2e" x="147.412109"/>
       <use xlink:href="#DejaVuSans-38" x="179.199219"/>
      </g>
     </g>
    </g>
    <g id="ytick_2">
     <g id="line2d_29">
      <g>
       <use xlink:href="#m698e8c19c6" x="38.482813" y="255.346225" style="stroke: #000000; stroke-width: 0.8"/>
      </g>
     </g>
     <g id="text_7">
      <!-- −0.6 -->
      <g transform="translate(7.2 259.145444)scale(0.1 -0.1)">
       <defs>
        <path id="DejaVuSans-36" d="M 2113 2584 
Q 1688 2584 1439 2293 
Q 1191 2003 1191 1497 
Q 1191 994 1439 701 
Q 1688 409 2113 409 
Q 2538 409 2786 701 
Q 3034 994 3034 1497 
Q 3034 2003 2786 2293 
Q 2538 2584 2113 2584 
z
M 3366 4563 
L 3366 3988 
Q 3128 4100 2886 4159 
Q 2644 4219 2406 4219 
Q 1781 4219 1451 3797 
Q 1122 3375 1075 2522 
Q 1259 2794 1537 2939 
Q 1816 3084 2150 3084 
Q 2853 3084 3261 2657 
Q 3669 2231 3669 1497 
Q 3669 778 3244 343 
Q 2819 -91 2113 -91 
Q 1303 -91 875 529 
Q 447 1150 447 2328 
Q 447 3434 972 4092 
Q 1497 4750 2381 4750 
Q 2619 4750 2861 4703 
Q 3103 4656 3366 4563 
z
" transform="scale(0.015625)"/>
       </defs>
       <use xlink:href="#DejaVuSans-2212"/>
       <use xlink:href="#DejaVuSans-30" x="83.789062"/>
       <use xlink:href="#DejaVuSans-2e" x="147.412109"/>
       <use xlink:href="#DejaVuSans-36" x="179.199219"/>
      </g>
     </g>
    </g>
    <g id="ytick_3">
     <g id="line2d_30">
      <g>
       <use xlink:href="#m698e8c19c6" x="38.482813" y="214.621724" style="stroke: #000000; stroke-width: 0.8"/>
      </g>
     </g>
     <g id="text_8">
      <!-- −0.4 -->
      <g transform="translate(7.2 218.420943)scale(0.1 -0.1)">
       <use xlink:href="#DejaVuSans-2212"/>
       <use xlink:href="#DejaVuSans-30" x="83.789062"/>
       <use xlink:href="#DejaVuSans-2e" x="147.412109"/>
       <use xlink:href="#DejaVuSans-34" x="179.199219"/>
      </g>
     </g>
    </g>
    <g id="ytick_4">
     <g id="line2d_31">
      <g>
       <use xlink:href="#m698e8c19c6" x="38.482813" y="173.897223" style="stroke: #000000; stroke-width: 0.8"/>
      </g>
     </g>
     <g id="text_9">
      <!-- −0.2 -->
      <g transform="translate(7.2 177.696442)scale(0.1 -0.1)">
       <use xlink:href="#DejaVuSans-2212"/>
       <use xlink:href="#DejaVuSans-30" x="83.789062"/>
       <use xlink:href="#DejaVuSans-2e" x="147.412109"/>
       <use xlink:href="#DejaVuSans-32" x="179.199219"/>
      </g>
     </g>
    </g>
    <g id="ytick_5">
     <g id="line2d_32">
      <g>
       <use xlink:href="#m698e8c19c6" x="38.482813" y="133.172722" style="stroke: #000000; stroke-width: 0.8"/>
      </g>
     </g>
    </g>
    <g id="ytick_6">
     <g id="line2d_33">
      <g>
       <use xlink:href="#m698e8c19c6" x="38.482813" y="92.448221" style="stroke: #000000; stroke-width: 0.8"/>
      </g>
     </g>
     <g id="text_10">
      <!-- 0.2 -->
      <g transform="translate(15.579688 96.24744)scale(0.1 -0.1)">
       <use xlink:href="#DejaVuSans-30"/>
       <use xlink:href="#DejaVuSans-2e" x="63.623047"/>
       <use xlink:href="#DejaVuSans-32" x="95.410156"/>
      </g>
     </g>
    </g>
    <g id="ytick_7">
     <g id="line2d_34">
      <g>
       <use xlink:href="#m698e8c19c6" x="38.482813" y="51.72372" style="stroke: #000000; stroke-width: 0.8"/>
      </g>
     </g>
     <g id="text_11">
      <!-- 0.4 -->
      <g transform="translate(15.579688 55.522939)scale(0.1 -0.1)">
       <use xlink:href="#DejaVuSans-30"/>
       <use xlink:href="#DejaVuSans-2e" x="63.623047"/>
       <use xlink:href="#DejaVuSans-34" x="95.410156"/>
      </g>
     </g>
    </g>
    <g id="ytick_8">
     <g id="line2d_35">
      <g>
       <use xlink:href="#m698e8c19c6" x="38.482813" y="10.999219" style="stroke: #000000; stroke-width: 0.8"/>
      </g>
     </g>
     <g id="text_12">
      <!-- 0.6 -->
      <g transform="translate(15.579688 14.798438)scale(0.1 -0.1)">
       <use xlink:href="#DejaVuSans-30"/>
       <use xlink:href="#DejaVuSans-2e" x="63.623047"/>
       <use xlink:href="#DejaVuSans-36" x="95.410156"/>
      </g>
     </g>
    </g>
    <g id="ytick_9">
     <g id="line2d_36">
      <defs>
       <path id="m17eb1b571c" d="M 0 0 
L -2 0 
" style="stroke: #000000; stroke-width: 0.6"/>
      </defs>
      <g>
       <use xlink:href="#m17eb1b571c" x="38.482813" y="326.614102" style="stroke: #000000; stroke-width: 0.6"/>
      </g>
     </g>
    </g>
    <g id="ytick_10">
     <g id="line2d_37">
      <g>
       <use xlink:href="#m17eb1b571c" x="38.482813" y="316.432977" style="stroke: #000000; stroke-width: 0.6"/>
      </g>
     </g>
    </g>
    <g id="ytick_11">
     <g id="line2d_38">
      <g>
       <use xlink:href="#m17eb1b571c" x="38.482813" y="306.251852" style="stroke: #000000; stroke-width: 0.6"/>
      </g>
     </g>
    </g>
    <g id="ytick_12">
     <g id="line2d_39">
      <g>
       <use xlink:href="#m17eb1b571c" x="38.482813" y="285.889601" style="stroke: #000000; stroke-width: 0.6"/>
      </g>
     </g>
    </g>
    <g id="ytick_13">
     <g id="line2d_40">
      <g>
       <use xlink:href="#m17eb1b571c" x="38.482813" y="275.708476" style="stroke: #000000; stroke-width: 0.6"/>
      </g>
     </g>
    </g>
    <g id="ytick_14">
     <g id="line2d_41">
      <g>
       <use xlink:href="#m17eb1b571c" x="38.482813" y="265.527351" style="stroke: #000000; stroke-width: 0.6"/>
      </g>
     </g>
    </g>
    <g id="ytick_15">
     <g id="line2d_42">
      <g>
       <use xlink:href="#m17eb1b571c" x="38.482813" y="245.1651" style="stroke: #000000; stroke-width: 0.6"/>
      </g>
     </g>
    </g>
    <g id="ytick_16">
     <g id="line2d_43">
      <g>
       <use xlink:href="#m17eb1b571c" x="38.482813" y="234.983975" style="stroke: #000000; stroke-width: 0.6"/>
      </g>
     </g>
    </g>
    <g id="ytick_17">
     <g id="line2d_44">
      <g>
       <use xlink:href="#m17eb1b571c" x="38.482813" y="224.802849" style="stroke: #000000; stroke-width: 0.6"/>
      </g>
     </g>
    </g>
    <g id="ytick_18">
     <g id="line2d_45">
      <g>
       <use xlink:href="#m17eb1b571c" x="38.482813" y="204.440599" style="stroke: #000000; stroke-width: 0.6"/>
      </g>
     </g>
    </g>
    <g id="ytick_19">
     <g id="line2d_46">
      <g>
       <use xlink:href="#m17eb1b571c" x="38.482813" y="194.259474" style="stroke: #000000; stroke-width: 0.6"/>
      </g>
     </g>
    </g>
    <g id="ytick_20">
     <g id="line2d_47">
      <g>
       <use xlink:href="#m17eb1b571c" x="38.482813" y="184.078348" style="stroke: #000000; stroke-width: 0.6"/>
      </g>
     </g>
    </g>
    <g id="ytick_21">
     <g id="line2d_48">
      <g>
       <use xlink:href="#m17eb1b571c" x="38.482813" y="163.716098" style="stroke: #000000; stroke-width: 0.6"/>
      </g>
     </g>
    </g>
    <g id="ytick_22">
     <g id="line2d_49">
      <g>
       <use xlink:href="#m17eb1b571c" x="38.482813" y="153.534973" style="stroke: #000000; stroke-width: 0.6"/>
      </g>
     </g>
    </g>
    <g id="ytick_23">
     <g id="line2d_50">
      <g>
       <use xlink:href="#m17eb1b571c" x="38.482813" y="143.353847" style="stroke: #000000; stroke-width: 0.6"/>
      </g>
     </g>
    </g>
    <g id="ytick_24">
     <g id="line2d_51">
      <g>
       <use xlink:href="#m17eb1b571c" x="38.482813" y="122.991597" style="stroke: #000000; stroke-width: 0.6"/>
      </g>
     </g>
    </g>
    <g id="ytick_25">
     <g id="line2d_52">
      <g>
       <use xlink:href="#m17eb1b571c" x="38.482813" y="112.810471" style="stroke: #000000; stroke-width: 0.6"/>
      </g>
     </g>
    </g>
    <g id="ytick_26">
     <g id="line2d_53">
      <g>
       <use xlink:href="#m17eb1b571c" x="38.482813" y="102.629346" style="stroke: #000000; stroke-width: 0.6"/>
      </g>
     </g>
    </g>
    <g id="ytick_27">
     <g id="line2d_54">
      <g>
       <use xlink:href="#m17eb1b571c" x="38.482813" y="82.267096" style="stroke: #000000; stroke-width: 0.6"/>
      </g>
     </g>
    </g>
    <g id="ytick_28">
     <g id="line2d_55">
      <g>
       <use xlink:href="#m17eb1b571c" x="38.482813" y="72.08597" style="stroke: #000000; stroke-width: 0.6"/>
      </g>
     </g>
    </g>
    <g id="ytick_29">
     <g id="line2d_56">
      <g>
       <use xlink:href="#m17eb1b571c" x="38.482813" y="61.904845" style="stroke: #000000; stroke-width: 0.6"/>
      </g>
     </g>
    </g>
    <g id="ytick_30">
     <g id="line2d_57">
      <g>
       <use xlink:href="#m17eb1b571c" x="38.482813" y="41.542595" style="stroke: #000000; stroke-width: 0.6"/>
      </g>
     </g>
    </g>
    <g id="ytick_31">
     <g id="line2d_58">
      <g>
       <use xlink:href="#m17eb1b571c" x="38.482813" y="31.361469" style="stroke: #000000; stroke-width: 0.6"/>
      </g>
     </g>
    </g>
    <g id="ytick_32">
     <g id="line2d_59">
      <g>
       <use xlink:href="#m17eb1b571c" x="38.482813" y="21.180344" style="stroke: #000000; stroke-width: 0.6"/>
      </g>
     </g>
    </g>
   </g>
   <g id="line2d_60">
    <path d="M 30.535966 222.776925 
L 31.943792 210.054587 
L 33.351617 195.544259 
L 34.821248 178.849057 
L 38.734384 129.950106 
L 41.55344 94.562909 
L 43.851545 68.241199 
L 45.108103 55.456673 
L 46.364661 44.112243 
L 47.925686 32.326998 
L 49.486711 23.389814 
L 50.429048 19.471671 
L 51.371385 16.707607 
L 52.880136 14.728196 
L 54.217925 15.492856 
L 55.406094 18.116254 
L 56.594263 22.495106 
L 58.163109 30.787787 
L 59.572648 40.436848 
L 60.982187 51.877519 
L 62.167297 62.647958 
L 64.142215 82.329499 
L 69.586383 139.839354 
L 71.843235 161.260509 
L 73.27179 173.105003 
L 74.713373 183.361302 
L 76.154955 191.679606 
L 77.564923 197.772324 
L 78.87141 201.521233 
L 80.177898 203.406839 
L 82.099197 202.822097 
L 83.449868 200.111977 
L 84.944372 195.067339 
L 86.523188 187.651899 
L 88.913417 173.104689 
L 90.691949 160.416057 
L 96.342663 117.443267 
L 98.069913 105.723793 
L 99.758934 95.794032 
L 101.024059 89.584175 
L 102.289185 84.572495 
L 104.258895 79.376342 
L 105.390254 77.899285 
L 106.714759 77.590416 
L 108.039264 78.792525 
L 110.291162 84.115814 
L 111.654371 89.153513 
L 113.718098 98.947137 
L 116.412578 114.58255 
L 122.197415 150.817264 
L 124.439166 162.751694 
L 125.609353 167.997201 
L 126.897946 172.830094 
L 128.186539 176.568455 
L 129.811927 179.601416 
L 131.078283 180.609513 
L 132.344639 180.418799 
L 133.81783 178.717432 
L 135.291021 175.504116 
L 137.36467 168.67911 
L 139.35385 160.036089 
L 142.148477 145.540239 
L 146.020784 124.041625 
L 147.659901 115.527303 
L 149.886738 105.406728 
L 152.4436 96.701254 
L 154.082623 93.125544 
L 155.721647 91.277831 
L 157.519332 91.299156 
L 159.338842 93.466808 
L 161.330202 98.141407 
L 162.43875 101.673899 
L 165.457299 113.959947 
L 168.073254 126.629336 
L 172.655141 149.035847 
L 174.855406 158.124384 
L 176.772675 164.412524 
L 178.335895 168.161713 
L 180.090455 170.72257 
L 181.845014 171.445762 
L 182.722048 171.111045 
L 185.150879 167.840862 
L 186.399683 164.909301 
L 188.351799 158.855822 
L 190.303915 151.352933 
L 192.654806 141.055056 
L 197.351963 119.848794 
L 200.081096 109.449807 
L 202.028946 103.755195 
L 202.987522 101.60213 
L 204.543302 99.115636 
L 206.099081 97.944462 
L 208.368293 98.648961 
L 209.668647 100.312908 
L 211.885895 105.094761 
L 213.790255 110.891644 
L 215.997419 119.086846 
L 222.943846 147.889662 
L 225.281658 155.909912 
L 227.179452 160.947253 
L 229.077245 164.368341 
L 230.460977 165.738755 
L 231.259065 166.080189 
L 234.062729 164.666273 
L 235.39327 162.62429 
L 237.177573 158.635487 
L 239.364073 152.090553 
L 241.800405 143.242968 
L 245.551709 128.321288 
L 249.475105 114.175885 
L 251.485407 108.599049 
L 253.49571 104.629289 
L 255.500557 102.505584 
L 256.792169 102.167763 
L 259.375443 103.922112 
L 261.355805 107.336507 
L 261.87495 108.500603 
L 265.093981 117.769534 
L 268.468459 129.968095 
L 272.570818 145.099543 
L 274.75972 152.028412 
L 277.874867 159.241241 
L 278.938562 160.819276 
L 280.688723 162.319406 
L 282.329529 162.443414 
L 283.970335 161.328657 
L 285.109681 159.853062 
L 286.690096 156.92308 
L 289.667512 149.045486 
L 290.331747 146.956008 
L 296.655694 124.810956 
L 299.611877 115.579664 
L 301.105337 111.799057 
L 302.760816 108.514191 
L 305.264667 105.633205 
L 308.32853 105.817201 
L 310.402798 108.234608 
L 310.909551 109.087267 
L 314.170202 116.681936 
L 314.82109 118.56334 
L 319.601223 134.334008 
L 322.878975 145.105988 
L 325.942377 153.294919 
L 328.288779 157.569798 
L 329.285289 158.753314 
L 331.358935 159.906246 
L 334.297283 158.449132 
L 336.221653 155.627705 
L 337.290495 153.490422 
L 340.127391 146.205417 
L 344.641157 131.838519 
L 347.772667 121.962462 
L 351.629529 112.420622 
L 354.915995 108.084565 
L 356.084619 107.552909 
L 359.214985 108.844058 
L 360.518543 110.504916 
L 362.908023 115.063009 
L 364.441387 118.855531 
L 365.662096 122.248453 
L 372.022989 141.872076 
L 375.409077 150.72632 
L 376.769357 153.449522 
L 379.200722 156.777645 
L 381.487851 157.896344 
L 382.822704 157.607651 
L 385.754031 154.613097 
L 386.305088 153.712688 
L 389.246497 147.392337 
L 390.414246 144.307774 
L 396.967347 124.856836 
L 398.724689 120.1093 
L 400.904844 115.155905 
L 403.135817 111.510278 
L 405.15662 109.681223 
L 407.7285 109.549892 
L 409.210685 110.595183 
L 411.773927 114.199749 
L 413.096375 116.844802 
L 415.732785 123.347743 
L 418.727426 131.929328 
L 422.819965 143.585721 
L 424.759368 148.292058 
L 427.910296 153.883184 
L 429.684911 155.638193 
L 431.554634 156.274177 
L 432.876049 155.955158 
L 435.825124 153.028325 
L 435.825124 153.028325 
" clip-path="url(#pbd612a4026)" style="fill: none; stroke: #0000ff; stroke-linecap: square"/>
   </g>
   <g id="line2d_61">
    <path d="M 40.169421 324.417152 
L 40.762576 278.204207 
L 41.652307 230.160323 
L 42.542039 194.814045 
L 44.016714 150.483956 
L 45.310286 120.258496 
L 46.603858 95.513378 
L 47.866507 75.582777 
L 49.129156 59.291614 
L 49.973795 50.27293 
L 50.818434 42.689253 
L 51.870786 35.177549 
L 52.923138 29.741017 
L 54.431544 25.413628 
L 55.93995 24.946652 
L 56.556174 25.802185 
L 57.988794 29.973831 
L 59.421414 36.94336 
L 60.854819 46.365323 
L 62.783166 62.211996 
L 64.635802 79.976997 
L 71.205991 148.35366 
L 73.145732 165.944541 
L 74.911094 179.517842 
L 76.916517 191.469394 
L 78.244745 197.110921 
L 79.572973 200.831644 
L 80.694846 202.449832 
L 81.816719 202.677234 
L 83.520274 200.439981 
L 84.993515 196.143054 
L 86.466756 189.871095 
L 87.146498 186.382568 
L 89.180061 174.069525 
L 91.033513 160.983501 
L 97.404847 112.941532 
L 100.033616 96.61398 
L 101.191332 90.790996 
L 102.393511 85.796142 
L 103.595691 81.962329 
L 105.1676 78.80361 
L 106.73951 77.806789 
L 108.168529 78.768327 
L 109.416449 81.01158 
L 110.66437 84.48419 
L 112.569373 91.911471 
L 113.940062 98.608327 
L 117.308474 118.369101 
L 121.832013 146.94778 
L 124.517185 161.703794 
L 126.747046 171.257828 
L 127.503243 173.803202 
L 128.919123 177.516147 
L 130.335004 179.781043 
L 132.506278 180.34529 
L 134.274445 178.233833 
L 136.422515 172.786055 
L 137.510606 168.951155 
L 139.231642 161.648204 
L 142.2444 146.237078 
L 147.556219 117.16749 
L 147.885043 115.51887 
L 150.24018 104.888877 
L 151.945177 98.811455 
L 154.468368 92.904968 
L 156.075068 91.26826 
L 157.681769 91.347384 
L 158.823359 92.434568 
L 160.8933 96.475936 
L 163.358846 104.364912 
L 164.753258 110.02524 
L 166.836573 119.621623 
L 171.881486 144.626021 
L 173.928346 153.76143 
L 174.979003 157.90715 
L 176.50979 163.104595 
L 178.040577 167.144507 
L 178.946849 168.933661 
L 180.491368 170.882252 
L 182.035886 171.398558 
L 183.282581 170.766252 
L 185.307251 167.812701 
L 187.684535 161.588071 
L 189.384652 155.618969 
L 190.73243 150.196362 
L 198.15361 117.166439 
L 199.372289 112.465699 
L 202.46699 103.073899 
L 204.351579 99.570213 
L 205.211645 98.598995 
L 206.713601 97.884877 
L 208.215558 98.427605 
L 209.047307 99.259569 
L 210.759211 102.107322 
L 212.471116 106.35511 
L 214.058843 111.365043 
L 217.313885 123.9338 
L 221.558499 141.906752 
L 223.620102 149.909607 
L 226.655168 159.374324 
L 227.182487 160.650294 
L 229.553394 164.789157 
L 232.022403 166.093336 
L 234.71603 163.931173 
L 235.92913 161.799688 
L 239.563777 151.804742 
L 243.843709 135.609805 
L 247.548777 121.132969 
L 250.361841 111.866497 
L 253.548508 104.732353 
L 255.76801 102.435586 
L 258.615674 102.993129 
L 260.75218 105.932201 
L 261.841739 108.190001 
L 264.587513 115.783952 
L 265.955198 120.362125 
L 271.969798 142.639824 
L 274.444748 150.805609 
L 276.621649 156.544586 
L 279.034237 160.804499 
L 281.214482 162.460559 
L 283.918658 161.467988 
L 285.544404 159.298302 
L 286.92755 156.603693 
L 288.675999 152.221587 
L 292.463865 140.041426 
L 297.287896 122.99219 
L 298.69256 118.515554 
L 301.956725 110.169035 
L 303.37059 107.708705 
L 304.668828 106.165743 
L 306.983075 105.225241 
L 308.734785 106.080749 
L 310.486495 108.237259 
L 312.250326 111.609407 
L 313.51267 114.668879 
L 314.998141 118.839777 
L 320.557615 137.309082 
L 322.951406 145.069521 
L 325.603701 152.320521 
L 327.866119 156.814847 
L 330.42393 159.558979 
L 332.929832 159.608386 
L 333.155174 159.483334 
L 335.744475 156.579332 
L 337.708073 152.73171 
L 339.88771 147.11645 
L 342.002896 140.708471 
L 345.41068 129.57417 
L 348.894468 119.003393 
L 350.071705 115.974402 
L 352.748488 110.616781 
L 353.611773 109.416545 
L 355.494981 107.793552 
L 357.378189 107.594324 
L 359.417978 108.985978 
L 360.792199 110.819629 
L 362.563071 114.141569 
L 364.099843 117.777499 
L 366.807847 125.43875 
L 372.340405 142.591755 
L 375.961766 151.752845 
L 378.507909 155.95692 
L 381.23797 157.857351 
L 382.207982 157.837265 
L 383.92506 156.907421 
L 385.642139 154.881282 
L 386.565441 153.37138 
L 389.435743 147.080755 
L 392.41716 138.722343 
L 395.183084 130.316184 
L 398.422796 121.057634 
L 401.872413 113.493391 
L 403.089456 111.657184 
L 405.451885 109.57187 
L 407.898482 109.601882 
L 410.301691 111.782743 
L 411.598067 113.777481 
L 414.097945 118.996645 
L 416.496394 125.282773 
L 422.782831 143.324729 
L 424.791788 148.225686 
L 427.047404 152.548171 
L 429.46138 155.427641 
L 432.314839 156.180709 
L 433.769366 155.427205 
L 435.825124 153.112992 
L 435.825124 153.112992 
" clip-path="url(#pbd612a4026)" style="fill: none; stroke: #ff0000; stroke-linecap: square"/>
   </g>
   <g id="patch_3">
    <path d="M 38.482813 330.610931 
L 38.482813 8.534417 
" style="fill: none; stroke: #000000; stroke-width: 0.8; stroke-linejoin: miter; stroke-linecap: square"/>
   </g>
   <g id="patch_4">
    <path d="M 22.430183 133.172722 
L 443.930907 133.172722 
" style="fill: none; stroke: #000000; stroke-width: 0.8; stroke-linejoin: miter; stroke-linecap: square"/>
   </g>
   <g id="legend_1">
    <g id="patch_5">
     <path d="M 345.030907 52.632854 
L 440.930907 52.632854 
L 440.930907 15.534417 
L 345.030907 15.534417 
z
" style="fill: #4c4c4c; opacity: 0.5; stroke: #4c4c4c; stroke-linejoin: miter"/>
    </g>
    <g id="patch_6">
     <path d="M 343.030907 50.632854 
L 438.930907 50.632854 
L 438.930907 13.534417 
L 343.030907 13.534417 
z
" style="fill: #ffffff; stroke: #cccccc; stroke-linejoin: miter"/>
    </g>
    <g id="line2d_62">
     <path d="M 352.030907 23.632854 
L 346.530907 23.632854 
" style="fill: none; stroke: #0000ff; stroke-linecap: square"/>
    </g>
    <g id="text_13">
     <!-- $J_{1}(x)$ -->
     <g transform="translate(354.530907 27.132854)scale(0.1 -0.1)">
      <defs>
       <path id="Cmmi10-4a" d="M 697 384 
Q 759 206 928 115 
Q 1097 25 1294 25 
Q 1494 25 1680 164 
Q 1866 303 1995 512 
Q 2125 722 2175 928 
L 2931 3956 
Q 2938 3981 2939 3993 
Q 2941 4006 2944 4019 
Q 2944 4088 2894 4103 
Q 2725 4147 2209 4147 
Q 2144 4147 2144 4231 
Q 2156 4281 2164 4309 
Q 2172 4338 2192 4355 
Q 2213 4372 2253 4372 
L 3988 4372 
Q 4050 4372 4050 4288 
Q 4025 4147 3969 4147 
Q 3744 4147 3628 4112 
Q 3513 4078 3469 3928 
L 2713 903 
Q 2641 606 2420 367 
Q 2200 128 1897 -6 
Q 1594 -141 1288 -141 
Q 950 -141 695 46 
Q 441 234 441 556 
Q 441 769 556 922 
Q 672 1075 884 1075 
Q 1006 1075 1089 1000 
Q 1172 925 1172 806 
Q 1172 634 1044 506 
Q 916 378 744 378 
Q 709 378 697 384 
z
" transform="scale(0.015625)"/>
       <path id="Cmr10-31" d="M 594 0 
L 594 225 
Q 1394 225 1394 428 
L 1394 3788 
Q 1063 3628 556 3628 
L 556 3853 
Q 1341 3853 1741 4263 
L 1831 4263 
Q 1853 4263 1873 4245 
Q 1894 4228 1894 4206 
L 1894 428 
Q 1894 225 2694 225 
L 2694 0 
L 594 0 
z
" transform="scale(0.015625)"/>
       <path id="Cmr10-28" d="M 1984 -1588 
Q 1628 -1306 1370 -942 
Q 1113 -578 948 -165 
Q 784 247 703 697 
Q 622 1147 622 1600 
Q 622 2059 703 2509 
Q 784 2959 951 3375 
Q 1119 3791 1378 4153 
Q 1638 4516 1984 4788 
Q 1984 4800 2016 4800 
L 2075 4800 
Q 2094 4800 2109 4783 
Q 2125 4766 2125 4744 
Q 2125 4716 2113 4703 
Q 1800 4397 1592 4047 
Q 1384 3697 1257 3301 
Q 1131 2906 1075 2482 
Q 1019 2059 1019 1600 
Q 1019 -434 2106 -1491 
Q 2125 -1509 2125 -1544 
Q 2125 -1559 2108 -1579 
Q 2091 -1600 2075 -1600 
L 2016 -1600 
Q 1984 -1600 1984 -1588 
z
" transform="scale(0.015625)"/>
       <path id="Cmmi10-78" d="M 500 184 
Q 613 97 819 97 
Q 1019 97 1172 289 
Q 1325 481 1381 709 
L 1672 1844 
Q 1741 2153 1741 2266 
Q 1741 2425 1652 2544 
Q 1563 2663 1403 2663 
Q 1200 2663 1022 2536 
Q 844 2409 722 2214 
Q 600 2019 550 1819 
Q 538 1778 500 1778 
L 422 1778 
Q 372 1778 372 1838 
L 372 1856 
Q 434 2094 584 2320 
Q 734 2547 951 2687 
Q 1169 2828 1416 2828 
Q 1650 2828 1839 2703 
Q 2028 2578 2106 2363 
Q 2216 2559 2386 2693 
Q 2556 2828 2759 2828 
Q 2897 2828 3040 2779 
Q 3184 2731 3275 2631 
Q 3366 2531 3366 2381 
Q 3366 2219 3261 2101 
Q 3156 1984 2994 1984 
Q 2891 1984 2822 2050 
Q 2753 2116 2753 2216 
Q 2753 2350 2845 2451 
Q 2938 2553 3066 2572 
Q 2950 2663 2747 2663 
Q 2541 2663 2389 2472 
Q 2238 2281 2175 2047 
L 1894 916 
Q 1825 659 1825 494 
Q 1825 331 1917 214 
Q 2009 97 2163 97 
Q 2463 97 2698 361 
Q 2934 625 3009 941 
Q 3022 978 3059 978 
L 3138 978 
Q 3163 978 3178 961 
Q 3194 944 3194 922 
Q 3194 916 3188 903 
Q 3097 522 2806 225 
Q 2516 -72 2150 -72 
Q 1916 -72 1727 54 
Q 1538 181 1459 397 
Q 1359 209 1182 68 
Q 1006 -72 806 -72 
Q 669 -72 523 -23 
Q 378 25 287 125 
Q 197 225 197 378 
Q 197 528 301 651 
Q 406 775 563 775 
Q 669 775 741 711 
Q 813 647 813 544 
Q 813 409 723 309 
Q 634 209 500 184 
z
" transform="scale(0.015625)"/>
       <path id="Cmr10-29" d="M 416 -1600 
Q 359 -1600 359 -1544 
Q 359 -1516 372 -1503 
Q 1466 -434 1466 1600 
Q 1466 3634 384 4691 
Q 359 4706 359 4744 
Q 359 4766 376 4783 
Q 394 4800 416 4800 
L 475 4800 
Q 494 4800 506 4788 
Q 966 4425 1272 3906 
Q 1578 3388 1720 2800 
Q 1863 2213 1863 1600 
Q 1863 1147 1786 708 
Q 1709 269 1542 -157 
Q 1375 -584 1119 -945 
Q 863 -1306 506 -1588 
Q 494 -1600 475 -1600 
L 416 -1600 
z
" transform="scale(0.015625)"/>
      </defs>
      <use xlink:href="#Cmmi10-4a"/>
      <use xlink:href="#Cmr10-31" transform="translate(55.419922 -17.00625)scale(0.7)"/>
      <use xlink:href="#Cmr10-28" transform="translate(96.797266 0)"/>
      <use xlink:href="#Cmmi10-78" transform="translate(135.615625 0)"/>
      <use xlink:href="#Cmr10-29" transform="translate(192.695703 0)"/>
     </g>
    </g>
    <g id="line2d_63">
     <path d="M 352.030907 38.532854 
L 346.530907 38.532854 
" style="fill: none; stroke: #ff0000; stroke-linecap: square"/>
    </g>
    <g id="text_14">
     <!-- $\sqrt{\frac{2}{\pi x}}\cos(x - 3\pi/4)$ -->
     <g transform="translate(354.530907 42.032854)scale(0.1 -0.1)">
      <defs>
       <path id="Cmex10-71" d="M 2713 -11263 
L 1259 -6188 
L 819 -6700 
L 703 -6578 
L 1619 -5503 
L 2981 -10266 
L 6284 178 
Q 6306 256 6400 256 
Q 6453 256 6490 218 
Q 6528 181 6528 128 
L 6528 103 
L 2963 -11188 
Q 2925 -11263 2853 -11263 
L 2713 -11263 
z
" transform="scale(0.015625)"/>
       <path id="Cmr10-32" d="M 319 0 
L 319 172 
Q 319 188 331 206 
L 1325 1306 
Q 1550 1550 1690 1715 
Q 1831 1881 1968 2097 
Q 2106 2313 2186 2536 
Q 2266 2759 2266 3009 
Q 2266 3272 2169 3511 
Q 2072 3750 1880 3894 
Q 1688 4038 1416 4038 
Q 1138 4038 916 3870 
Q 694 3703 603 3438 
Q 628 3444 672 3444 
Q 816 3444 917 3347 
Q 1019 3250 1019 3097 
Q 1019 2950 917 2848 
Q 816 2747 672 2747 
Q 522 2747 420 2851 
Q 319 2956 319 3097 
Q 319 3338 409 3548 
Q 500 3759 670 3923 
Q 841 4088 1055 4175 
Q 1269 4263 1509 4263 
Q 1875 4263 2190 4108 
Q 2506 3953 2690 3670 
Q 2875 3388 2875 3009 
Q 2875 2731 2753 2481 
Q 2631 2231 2440 2026 
Q 2250 1822 1953 1562 
Q 1656 1303 1563 1216 
L 838 519 
L 1453 519 
Q 1906 519 2211 526 
Q 2516 534 2534 550 
Q 2609 631 2688 1141 
L 2875 1141 
L 2694 0 
L 319 0 
z
" transform="scale(0.015625)"/>
       <path id="Cmmi10-bc" d="M 647 109 
Q 647 144 672 213 
Q 850 584 1004 942 
Q 1159 1300 1282 1639 
Q 1406 1978 1509 2363 
L 1100 2363 
Q 866 2363 662 2216 
Q 459 2069 325 1844 
Q 313 1819 288 1819 
L 213 1819 
Q 153 1819 153 1881 
Q 153 1894 166 1919 
Q 375 2275 614 2517 
Q 853 2759 1153 2759 
L 3475 2759 
Q 3541 2759 3587 2715 
Q 3634 2672 3634 2597 
Q 3634 2503 3567 2433 
Q 3500 2363 3406 2363 
L 2591 2363 
Q 2488 1859 2478 1381 
Q 2478 766 2694 269 
Q 2713 231 2713 191 
Q 2713 122 2672 62 
Q 2631 3 2567 -34 
Q 2503 -72 2431 -72 
Q 2263 -72 2200 203 
Q 2138 478 2138 738 
Q 2138 1103 2200 1442 
Q 2263 1781 2400 2363 
L 1703 2363 
Q 1197 313 1094 103 
Q 1003 -72 844 -72 
Q 766 -72 706 -20 
Q 647 31 647 109 
z
" transform="scale(0.015625)"/>
       <path id="Cmr10-63" d="M 1594 -72 
Q 1206 -72 890 129 
Q 575 331 394 667 
Q 213 1003 213 1381 
Q 213 1759 392 2106 
Q 572 2453 889 2661 
Q 1206 2869 1594 2869 
Q 1969 2869 2276 2722 
Q 2584 2575 2584 2241 
Q 2584 2116 2495 2023 
Q 2406 1931 2278 1931 
Q 2150 1931 2061 2023 
Q 1972 2116 1972 2241 
Q 1972 2353 2044 2436 
Q 2116 2519 2222 2541 
Q 2000 2681 1600 2681 
Q 1294 2681 1106 2478 
Q 919 2275 844 1975 
Q 769 1675 769 1381 
Q 769 1072 861 783 
Q 953 494 1158 305 
Q 1363 116 1672 116 
Q 1975 116 2187 302 
Q 2400 488 2478 788 
Q 2478 825 2528 825 
L 2606 825 
Q 2625 825 2640 808 
Q 2656 791 2656 769 
L 2656 750 
Q 2559 372 2271 150 
Q 1984 -72 1594 -72 
z
" transform="scale(0.015625)"/>
       <path id="Cmr10-6f" d="M 1600 -72 
Q 1216 -72 887 123 
Q 559 319 368 647 
Q 178 975 178 1363 
Q 178 1656 283 1928 
Q 388 2200 583 2414 
Q 778 2628 1037 2748 
Q 1297 2869 1600 2869 
Q 1994 2869 2317 2661 
Q 2641 2453 2828 2104 
Q 3016 1756 3016 1363 
Q 3016 978 2825 648 
Q 2634 319 2307 123 
Q 1981 -72 1600 -72 
z
M 1600 116 
Q 2113 116 2284 487 
Q 2456 859 2456 1434 
Q 2456 1756 2422 1967 
Q 2388 2178 2272 2350 
Q 2200 2456 2089 2536 
Q 1978 2616 1854 2658 
Q 1731 2700 1600 2700 
Q 1400 2700 1220 2609 
Q 1041 2519 922 2350 
Q 803 2169 770 1951 
Q 738 1734 738 1434 
Q 738 1075 800 789 
Q 863 503 1052 309 
Q 1241 116 1600 116 
z
" transform="scale(0.015625)"/>
       <path id="Cmr10-73" d="M 213 -19 
L 213 1025 
Q 213 1075 269 1075 
L 347 1075 
Q 384 1075 397 1025 
Q 575 97 1259 97 
Q 1563 97 1767 234 
Q 1972 372 1972 659 
Q 1972 866 1812 1011 
Q 1653 1156 1434 1209 
L 1006 1294 
Q 791 1341 614 1437 
Q 438 1534 325 1695 
Q 213 1856 213 2069 
Q 213 2350 361 2529 
Q 509 2709 746 2789 
Q 984 2869 1259 2869 
Q 1588 2869 1831 2694 
L 2016 2853 
Q 2016 2869 2047 2869 
L 2094 2869 
Q 2113 2869 2128 2851 
Q 2144 2834 2144 2816 
L 2144 1978 
Q 2144 1919 2094 1919 
L 2016 1919 
Q 1959 1919 1959 1978 
Q 1959 2313 1773 2516 
Q 1588 2719 1253 2719 
Q 966 2719 755 2612 
Q 544 2506 544 2247 
Q 544 2069 695 1955 
Q 847 1841 1050 1791 
L 1484 1709 
Q 1703 1659 1892 1540 
Q 2081 1422 2192 1240 
Q 2303 1059 2303 831 
Q 2303 600 2223 429 
Q 2144 259 2001 146 
Q 1859 34 1665 -19 
Q 1472 -72 1259 -72 
Q 859 -72 575 197 
L 341 -56 
Q 341 -72 306 -72 
L 269 -72 
Q 213 -72 213 -19 
z
" transform="scale(0.015625)"/>
       <path id="Cmsy10-a1" d="M 653 1472 
Q 600 1472 565 1512 
Q 531 1553 531 1600 
Q 531 1647 565 1687 
Q 600 1728 653 1728 
L 4325 1728 
Q 4375 1728 4408 1687 
Q 4441 1647 4441 1600 
Q 4441 1553 4408 1512 
Q 4375 1472 4325 1472 
L 653 1472 
z
" transform="scale(0.015625)"/>
       <path id="Cmr10-33" d="M 609 494 
Q 759 275 1012 169 
Q 1266 63 1556 63 
Q 1928 63 2084 380 
Q 2241 697 2241 1100 
Q 2241 1281 2208 1462 
Q 2175 1644 2097 1800 
Q 2019 1956 1883 2050 
Q 1747 2144 1550 2144 
L 1125 2144 
Q 1069 2144 1069 2203 
L 1069 2259 
Q 1069 2309 1125 2309 
L 1478 2338 
Q 1703 2338 1851 2506 
Q 2000 2675 2069 2917 
Q 2138 3159 2138 3378 
Q 2138 3684 1994 3881 
Q 1850 4078 1556 4078 
Q 1313 4078 1091 3986 
Q 869 3894 738 3706 
Q 750 3709 759 3711 
Q 769 3713 781 3713 
Q 925 3713 1022 3613 
Q 1119 3513 1119 3372 
Q 1119 3234 1022 3134 
Q 925 3034 781 3034 
Q 641 3034 541 3134 
Q 441 3234 441 3372 
Q 441 3647 606 3850 
Q 772 4053 1033 4158 
Q 1294 4263 1556 4263 
Q 1750 4263 1965 4205 
Q 2181 4147 2356 4039 
Q 2531 3931 2642 3762 
Q 2753 3594 2753 3378 
Q 2753 3109 2633 2881 
Q 2513 2653 2303 2487 
Q 2094 2322 1844 2241 
Q 2122 2188 2372 2031 
Q 2622 1875 2773 1631 
Q 2925 1388 2925 1106 
Q 2925 753 2731 467 
Q 2538 181 2222 20 
Q 1906 -141 1556 -141 
Q 1256 -141 954 -26 
Q 653 88 461 316 
Q 269 544 269 863 
Q 269 1022 375 1128 
Q 481 1234 641 1234 
Q 744 1234 830 1186 
Q 916 1138 964 1050 
Q 1013 963 1013 863 
Q 1013 706 903 600 
Q 794 494 641 494 
L 609 494 
z
" transform="scale(0.015625)"/>
       <path id="Cmmi10-3d" d="M 359 -1472 
Q 359 -1453 366 -1447 
L 2591 4722 
Q 2603 4759 2634 4779 
Q 2666 4800 2706 4800 
Q 2763 4800 2798 4765 
Q 2834 4731 2834 4672 
L 2834 4647 
L 609 -1522 
Q 572 -1600 488 -1600 
Q 434 -1600 396 -1562 
Q 359 -1525 359 -1472 
z
" transform="scale(0.015625)"/>
       <path id="Cmr10-34" d="M 178 1056 
L 178 1281 
L 2156 4231 
Q 2178 4263 2222 4263 
L 2316 4263 
Q 2388 4263 2388 4191 
L 2388 1281 
L 3016 1281 
L 3016 1056 
L 2388 1056 
L 2388 428 
Q 2388 297 2575 261 
Q 2763 225 3009 225 
L 3009 0 
L 1247 0 
L 1247 225 
Q 1494 225 1681 261 
Q 1869 297 1869 428 
L 1869 1056 
L 178 1056 
z
M 391 1281 
L 1906 1281 
L 1906 3547 
L 391 1281 
z
" transform="scale(0.015625)"/>
      </defs>
      <use xlink:href="#Cmex10-71" transform="translate(0 112.859375)scale(0.782542)"/>
      <use xlink:href="#Cmr10-32" transform="translate(112.75 38.123437)scale(0.7)"/>
      <use xlink:href="#Cmmi10-bc" transform="translate(90.75 -24.057813)scale(0.7)"/>
      <use xlink:href="#Cmmi10-78" transform="translate(130.637695 -24.057813)scale(0.7)"/>
      <use xlink:href="#Cmr10-63" transform="translate(195.59375 0.625)"/>
      <use xlink:href="#Cmr10-6f" transform="translate(239.978516 0.625)"/>
      <use xlink:href="#Cmr10-73" transform="translate(289.978516 0.625)"/>
      <use xlink:href="#Cmr10-28" transform="translate(329.382812 0.625)"/>
      <use xlink:href="#Cmmi10-78" transform="translate(368.201172 0.625)"/>
      <use xlink:href="#Cmsy10-a1" transform="translate(442.839844 0.625)"/>
      <use xlink:href="#Cmr10-33" transform="translate(538.083984 0.625)"/>
      <use xlink:href="#Cmmi10-bc" transform="translate(588.083984 0.625)"/>
      <use xlink:href="#Cmmi10-3d" transform="translate(645.066406 0.625)"/>
      <use xlink:href="#Cmr10-34" transform="translate(695.066406 0.625)"/>
      <use xlink:href="#Cmr10-29" transform="translate(745.066406 0.625)"/>
      <path d="M 78.25 109.5 
L 78.25 115.75 
L 195.59375 115.75 
L 195.59375 109.5 
L 78.25 109.5 
z
"/>
      <path d="M 90.75 13.123437 
L 90.75 19.373437 
L 170.59375 19.373437 
L 170.59375 13.123437 
L 90.75 13.123437 
z
"/>
     </g>
    </g>
   </g>
  </g>
 </g>
 <defs>
  <clipPath id="pbd612a4026">
   <rect x="22.430183" y="8.534417" width="421.500724" height="322.076514"/>
  </clipPath>
 </defs>
</svg>
